G04 #@! TF.GenerationSoftware,KiCad,Pcbnew,(5.1.12)-1*
G04 #@! TF.CreationDate,2024-11-16T16:09:52+01:00*
G04 #@! TF.ProjectId,C7W1B1V1.0,43375731-4231-4563-912e-302e6b696361,rev?*
G04 #@! TF.SameCoordinates,Original*
G04 #@! TF.FileFunction,Soldermask,Top*
G04 #@! TF.FilePolarity,Negative*
%FSLAX46Y46*%
G04 Gerber Fmt 4.6, Leading zero omitted, Abs format (unit mm)*
G04 Created by KiCad (PCBNEW (5.1.12)-1) date 2024-11-16 16:09:52*
%MOMM*%
%LPD*%
G01*
G04 APERTURE LIST*
%ADD10C,2.700000*%
%ADD11O,1.700000X1.700000*%
%ADD12R,1.700000X1.700000*%
%ADD13R,1.750000X2.500000*%
%ADD14R,0.800000X0.400000*%
%ADD15R,0.990000X0.300000*%
%ADD16C,0.650000*%
%ADD17O,2.304000X1.204000*%
%ADD18R,0.600000X1.150000*%
%ADD19C,3.000000*%
%ADD20R,3.000000X3.000000*%
%ADD21R,1.200000X0.600000*%
%ADD22R,0.720000X1.050000*%
%ADD23R,0.350000X0.300000*%
%ADD24R,1.700000X2.200000*%
%ADD25R,0.850000X0.400000*%
%ADD26R,0.600000X0.450000*%
%ADD27R,0.900000X1.200000*%
%ADD28R,0.400000X0.400000*%
%ADD29R,1.100000X0.600000*%
%ADD30R,3.450000X4.350000*%
%ADD31R,0.950000X0.450000*%
%ADD32R,1.525000X0.700000*%
G04 APERTURE END LIST*
D10*
G04 #@! TO.C,H2*
X-77980000Y-104870000D03*
G04 #@! TD*
G04 #@! TO.C,H1*
X-65730000Y-151940000D03*
G04 #@! TD*
D11*
G04 #@! TO.C,J5*
X-68210000Y-92110000D03*
X-70750000Y-92110000D03*
X-73290000Y-92110000D03*
X-75830000Y-92110000D03*
X-78370000Y-92110000D03*
X-80910000Y-92110000D03*
D12*
X-83450000Y-92110000D03*
G04 #@! TD*
D13*
G04 #@! TO.C,U9*
X-58520000Y-109650000D03*
D14*
X-57020000Y-108700000D03*
X-57020000Y-109650000D03*
X-57020000Y-110600000D03*
X-60020000Y-110600000D03*
X-60020000Y-109650000D03*
X-60020000Y-108700000D03*
G04 #@! TD*
G04 #@! TO.C,C28*
G36*
G01*
X-56030000Y-109390000D02*
X-55690000Y-109390000D01*
G75*
G02*
X-55550000Y-109530000I0J-140000D01*
G01*
X-55550000Y-109810000D01*
G75*
G02*
X-55690000Y-109950000I-140000J0D01*
G01*
X-56030000Y-109950000D01*
G75*
G02*
X-56170000Y-109810000I0J140000D01*
G01*
X-56170000Y-109530000D01*
G75*
G02*
X-56030000Y-109390000I140000J0D01*
G01*
G37*
G36*
G01*
X-56030000Y-108430000D02*
X-55690000Y-108430000D01*
G75*
G02*
X-55550000Y-108570000I0J-140000D01*
G01*
X-55550000Y-108850000D01*
G75*
G02*
X-55690000Y-108990000I-140000J0D01*
G01*
X-56030000Y-108990000D01*
G75*
G02*
X-56170000Y-108850000I0J140000D01*
G01*
X-56170000Y-108570000D01*
G75*
G02*
X-56030000Y-108430000I140000J0D01*
G01*
G37*
G04 #@! TD*
G04 #@! TO.C,C27*
G36*
G01*
X-61350000Y-109400000D02*
X-61010000Y-109400000D01*
G75*
G02*
X-60870000Y-109540000I0J-140000D01*
G01*
X-60870000Y-109820000D01*
G75*
G02*
X-61010000Y-109960000I-140000J0D01*
G01*
X-61350000Y-109960000D01*
G75*
G02*
X-61490000Y-109820000I0J140000D01*
G01*
X-61490000Y-109540000D01*
G75*
G02*
X-61350000Y-109400000I140000J0D01*
G01*
G37*
G36*
G01*
X-61350000Y-108440000D02*
X-61010000Y-108440000D01*
G75*
G02*
X-60870000Y-108580000I0J-140000D01*
G01*
X-60870000Y-108860000D01*
G75*
G02*
X-61010000Y-109000000I-140000J0D01*
G01*
X-61350000Y-109000000D01*
G75*
G02*
X-61490000Y-108860000I0J140000D01*
G01*
X-61490000Y-108580000D01*
G75*
G02*
X-61350000Y-108440000I140000J0D01*
G01*
G37*
G04 #@! TD*
D15*
G04 #@! TO.C,U5*
X-48475000Y-115420000D03*
X-48475000Y-114920000D03*
X-48475000Y-114420000D03*
X-46865000Y-114420000D03*
X-46865000Y-114920000D03*
X-46865000Y-115420000D03*
G04 #@! TD*
G04 #@! TO.C,R25*
G36*
G01*
X-81215000Y-127720000D02*
X-80845000Y-127720000D01*
G75*
G02*
X-80710000Y-127855000I0J-135000D01*
G01*
X-80710000Y-128125000D01*
G75*
G02*
X-80845000Y-128260000I-135000J0D01*
G01*
X-81215000Y-128260000D01*
G75*
G02*
X-81350000Y-128125000I0J135000D01*
G01*
X-81350000Y-127855000D01*
G75*
G02*
X-81215000Y-127720000I135000J0D01*
G01*
G37*
G36*
G01*
X-81215000Y-126700000D02*
X-80845000Y-126700000D01*
G75*
G02*
X-80710000Y-126835000I0J-135000D01*
G01*
X-80710000Y-127105000D01*
G75*
G02*
X-80845000Y-127240000I-135000J0D01*
G01*
X-81215000Y-127240000D01*
G75*
G02*
X-81350000Y-127105000I0J135000D01*
G01*
X-81350000Y-126835000D01*
G75*
G02*
X-81215000Y-126700000I135000J0D01*
G01*
G37*
G04 #@! TD*
G04 #@! TO.C,R24*
G36*
G01*
X-82225000Y-127720000D02*
X-81855000Y-127720000D01*
G75*
G02*
X-81720000Y-127855000I0J-135000D01*
G01*
X-81720000Y-128125000D01*
G75*
G02*
X-81855000Y-128260000I-135000J0D01*
G01*
X-82225000Y-128260000D01*
G75*
G02*
X-82360000Y-128125000I0J135000D01*
G01*
X-82360000Y-127855000D01*
G75*
G02*
X-82225000Y-127720000I135000J0D01*
G01*
G37*
G36*
G01*
X-82225000Y-126700000D02*
X-81855000Y-126700000D01*
G75*
G02*
X-81720000Y-126835000I0J-135000D01*
G01*
X-81720000Y-127105000D01*
G75*
G02*
X-81855000Y-127240000I-135000J0D01*
G01*
X-82225000Y-127240000D01*
G75*
G02*
X-82360000Y-127105000I0J135000D01*
G01*
X-82360000Y-126835000D01*
G75*
G02*
X-82225000Y-126700000I135000J0D01*
G01*
G37*
G04 #@! TD*
G04 #@! TO.C,R14*
G36*
G01*
X-42770000Y-113725000D02*
X-42770000Y-113355000D01*
G75*
G02*
X-42635000Y-113220000I135000J0D01*
G01*
X-42365000Y-113220000D01*
G75*
G02*
X-42230000Y-113355000I0J-135000D01*
G01*
X-42230000Y-113725000D01*
G75*
G02*
X-42365000Y-113860000I-135000J0D01*
G01*
X-42635000Y-113860000D01*
G75*
G02*
X-42770000Y-113725000I0J135000D01*
G01*
G37*
G36*
G01*
X-43790000Y-113725000D02*
X-43790000Y-113355000D01*
G75*
G02*
X-43655000Y-113220000I135000J0D01*
G01*
X-43385000Y-113220000D01*
G75*
G02*
X-43250000Y-113355000I0J-135000D01*
G01*
X-43250000Y-113725000D01*
G75*
G02*
X-43385000Y-113860000I-135000J0D01*
G01*
X-43655000Y-113860000D01*
G75*
G02*
X-43790000Y-113725000I0J135000D01*
G01*
G37*
G04 #@! TD*
G04 #@! TO.C,R13*
G36*
G01*
X-48950000Y-93635000D02*
X-48950000Y-94005000D01*
G75*
G02*
X-49085000Y-94140000I-135000J0D01*
G01*
X-49355000Y-94140000D01*
G75*
G02*
X-49490000Y-94005000I0J135000D01*
G01*
X-49490000Y-93635000D01*
G75*
G02*
X-49355000Y-93500000I135000J0D01*
G01*
X-49085000Y-93500000D01*
G75*
G02*
X-48950000Y-93635000I0J-135000D01*
G01*
G37*
G36*
G01*
X-47930000Y-93635000D02*
X-47930000Y-94005000D01*
G75*
G02*
X-48065000Y-94140000I-135000J0D01*
G01*
X-48335000Y-94140000D01*
G75*
G02*
X-48470000Y-94005000I0J135000D01*
G01*
X-48470000Y-93635000D01*
G75*
G02*
X-48335000Y-93500000I135000J0D01*
G01*
X-48065000Y-93500000D01*
G75*
G02*
X-47930000Y-93635000I0J-135000D01*
G01*
G37*
G04 #@! TD*
G04 #@! TO.C,R12*
G36*
G01*
X-42675000Y-119110000D02*
X-43045000Y-119110000D01*
G75*
G02*
X-43180000Y-118975000I0J135000D01*
G01*
X-43180000Y-118705000D01*
G75*
G02*
X-43045000Y-118570000I135000J0D01*
G01*
X-42675000Y-118570000D01*
G75*
G02*
X-42540000Y-118705000I0J-135000D01*
G01*
X-42540000Y-118975000D01*
G75*
G02*
X-42675000Y-119110000I-135000J0D01*
G01*
G37*
G36*
G01*
X-42675000Y-120130000D02*
X-43045000Y-120130000D01*
G75*
G02*
X-43180000Y-119995000I0J135000D01*
G01*
X-43180000Y-119725000D01*
G75*
G02*
X-43045000Y-119590000I135000J0D01*
G01*
X-42675000Y-119590000D01*
G75*
G02*
X-42540000Y-119725000I0J-135000D01*
G01*
X-42540000Y-119995000D01*
G75*
G02*
X-42675000Y-120130000I-135000J0D01*
G01*
G37*
G04 #@! TD*
G04 #@! TO.C,J2*
G36*
G01*
X-38970000Y-117302000D02*
X-40120000Y-117302000D01*
G75*
G02*
X-40222000Y-117200000I0J102000D01*
G01*
X-40222000Y-116900000D01*
G75*
G02*
X-40120000Y-116798000I102000J0D01*
G01*
X-38970000Y-116798000D01*
G75*
G02*
X-38868000Y-116900000I0J-102000D01*
G01*
X-38868000Y-117200000D01*
G75*
G02*
X-38970000Y-117302000I-102000J0D01*
G01*
G37*
G36*
G01*
X-38970000Y-116802000D02*
X-40120000Y-116802000D01*
G75*
G02*
X-40222000Y-116700000I0J102000D01*
G01*
X-40222000Y-116400000D01*
G75*
G02*
X-40120000Y-116298000I102000J0D01*
G01*
X-38970000Y-116298000D01*
G75*
G02*
X-38868000Y-116400000I0J-102000D01*
G01*
X-38868000Y-116700000D01*
G75*
G02*
X-38970000Y-116802000I-102000J0D01*
G01*
G37*
G36*
G01*
X-38970000Y-116302000D02*
X-40120000Y-116302000D01*
G75*
G02*
X-40222000Y-116200000I0J102000D01*
G01*
X-40222000Y-115900000D01*
G75*
G02*
X-40120000Y-115798000I102000J0D01*
G01*
X-38970000Y-115798000D01*
G75*
G02*
X-38868000Y-115900000I0J-102000D01*
G01*
X-38868000Y-116200000D01*
G75*
G02*
X-38970000Y-116302000I-102000J0D01*
G01*
G37*
G36*
G01*
X-38970000Y-113802000D02*
X-40120000Y-113802000D01*
G75*
G02*
X-40222000Y-113700000I0J102000D01*
G01*
X-40222000Y-113400000D01*
G75*
G02*
X-40120000Y-113298000I102000J0D01*
G01*
X-38970000Y-113298000D01*
G75*
G02*
X-38868000Y-113400000I0J-102000D01*
G01*
X-38868000Y-113700000D01*
G75*
G02*
X-38970000Y-113802000I-102000J0D01*
G01*
G37*
G36*
G01*
X-38970000Y-114302000D02*
X-40120000Y-114302000D01*
G75*
G02*
X-40222000Y-114200000I0J102000D01*
G01*
X-40222000Y-113900000D01*
G75*
G02*
X-40120000Y-113798000I102000J0D01*
G01*
X-38970000Y-113798000D01*
G75*
G02*
X-38868000Y-113900000I0J-102000D01*
G01*
X-38868000Y-114200000D01*
G75*
G02*
X-38970000Y-114302000I-102000J0D01*
G01*
G37*
G36*
G01*
X-38970000Y-114802000D02*
X-40120000Y-114802000D01*
G75*
G02*
X-40222000Y-114700000I0J102000D01*
G01*
X-40222000Y-114400000D01*
G75*
G02*
X-40120000Y-114298000I102000J0D01*
G01*
X-38970000Y-114298000D01*
G75*
G02*
X-38868000Y-114400000I0J-102000D01*
G01*
X-38868000Y-114700000D01*
G75*
G02*
X-38970000Y-114802000I-102000J0D01*
G01*
G37*
G36*
G01*
X-38970000Y-115802000D02*
X-40120000Y-115802000D01*
G75*
G02*
X-40222000Y-115700000I0J102000D01*
G01*
X-40222000Y-115400000D01*
G75*
G02*
X-40120000Y-115298000I102000J0D01*
G01*
X-38970000Y-115298000D01*
G75*
G02*
X-38868000Y-115400000I0J-102000D01*
G01*
X-38868000Y-115700000D01*
G75*
G02*
X-38970000Y-115802000I-102000J0D01*
G01*
G37*
G36*
G01*
X-38970000Y-115302000D02*
X-40120000Y-115302000D01*
G75*
G02*
X-40222000Y-115200000I0J102000D01*
G01*
X-40222000Y-114900000D01*
G75*
G02*
X-40120000Y-114798000I102000J0D01*
G01*
X-38970000Y-114798000D01*
G75*
G02*
X-38868000Y-114900000I0J-102000D01*
G01*
X-38868000Y-115200000D01*
G75*
G02*
X-38970000Y-115302000I-102000J0D01*
G01*
G37*
G36*
G01*
X-38970000Y-113302000D02*
X-40120000Y-113302000D01*
G75*
G02*
X-40222000Y-113200000I0J102000D01*
G01*
X-40222000Y-112600000D01*
G75*
G02*
X-40120000Y-112498000I102000J0D01*
G01*
X-38970000Y-112498000D01*
G75*
G02*
X-38868000Y-112600000I0J-102000D01*
G01*
X-38868000Y-113200000D01*
G75*
G02*
X-38970000Y-113302000I-102000J0D01*
G01*
G37*
G36*
G01*
X-38970000Y-118102000D02*
X-40120000Y-118102000D01*
G75*
G02*
X-40222000Y-118000000I0J102000D01*
G01*
X-40222000Y-117400000D01*
G75*
G02*
X-40120000Y-117298000I102000J0D01*
G01*
X-38970000Y-117298000D01*
G75*
G02*
X-38868000Y-117400000I0J-102000D01*
G01*
X-38868000Y-118000000D01*
G75*
G02*
X-38970000Y-118102000I-102000J0D01*
G01*
G37*
G36*
G01*
X-38970000Y-112502000D02*
X-40120000Y-112502000D01*
G75*
G02*
X-40222000Y-112400000I0J102000D01*
G01*
X-40222000Y-111800000D01*
G75*
G02*
X-40120000Y-111698000I102000J0D01*
G01*
X-38970000Y-111698000D01*
G75*
G02*
X-38868000Y-111800000I0J-102000D01*
G01*
X-38868000Y-112400000D01*
G75*
G02*
X-38970000Y-112502000I-102000J0D01*
G01*
G37*
G36*
G01*
X-38970000Y-118902000D02*
X-40120000Y-118902000D01*
G75*
G02*
X-40222000Y-118800000I0J102000D01*
G01*
X-40222000Y-118200000D01*
G75*
G02*
X-40120000Y-118098000I102000J0D01*
G01*
X-38970000Y-118098000D01*
G75*
G02*
X-38868000Y-118200000I0J-102000D01*
G01*
X-38868000Y-118800000D01*
G75*
G02*
X-38970000Y-118902000I-102000J0D01*
G01*
G37*
D16*
X-38470000Y-118190000D03*
X-38470000Y-112410000D03*
D17*
X-38970000Y-110980000D03*
X-38970000Y-119620000D03*
G36*
G01*
X-34089000Y-111582000D02*
X-35491000Y-111582000D01*
G75*
G02*
X-35792000Y-111281000I0J301000D01*
G01*
X-35792000Y-110679000D01*
G75*
G02*
X-35491000Y-110378000I301000J0D01*
G01*
X-34089000Y-110378000D01*
G75*
G02*
X-33788000Y-110679000I0J-301000D01*
G01*
X-33788000Y-111281000D01*
G75*
G02*
X-34089000Y-111582000I-301000J0D01*
G01*
G37*
G36*
G01*
X-34089000Y-120222000D02*
X-35491000Y-120222000D01*
G75*
G02*
X-35792000Y-119921000I0J301000D01*
G01*
X-35792000Y-119319000D01*
G75*
G02*
X-35491000Y-119018000I301000J0D01*
G01*
X-34089000Y-119018000D01*
G75*
G02*
X-33788000Y-119319000I0J-301000D01*
G01*
X-33788000Y-119921000D01*
G75*
G02*
X-34089000Y-120222000I-301000J0D01*
G01*
G37*
G04 #@! TD*
G04 #@! TO.C,F1*
G36*
G01*
X-44140000Y-111496250D02*
X-44140000Y-110983750D01*
G75*
G02*
X-43921250Y-110765000I218750J0D01*
G01*
X-43483750Y-110765000D01*
G75*
G02*
X-43265000Y-110983750I0J-218750D01*
G01*
X-43265000Y-111496250D01*
G75*
G02*
X-43483750Y-111715000I-218750J0D01*
G01*
X-43921250Y-111715000D01*
G75*
G02*
X-44140000Y-111496250I0J218750D01*
G01*
G37*
G36*
G01*
X-45715000Y-111496250D02*
X-45715000Y-110983750D01*
G75*
G02*
X-45496250Y-110765000I218750J0D01*
G01*
X-45058750Y-110765000D01*
G75*
G02*
X-44840000Y-110983750I0J-218750D01*
G01*
X-44840000Y-111496250D01*
G75*
G02*
X-45058750Y-111715000I-218750J0D01*
G01*
X-45496250Y-111715000D01*
G75*
G02*
X-45715000Y-111496250I0J218750D01*
G01*
G37*
G04 #@! TD*
G04 #@! TO.C,C14*
G36*
G01*
X-46670000Y-111910000D02*
X-46330000Y-111910000D01*
G75*
G02*
X-46190000Y-112050000I0J-140000D01*
G01*
X-46190000Y-112330000D01*
G75*
G02*
X-46330000Y-112470000I-140000J0D01*
G01*
X-46670000Y-112470000D01*
G75*
G02*
X-46810000Y-112330000I0J140000D01*
G01*
X-46810000Y-112050000D01*
G75*
G02*
X-46670000Y-111910000I140000J0D01*
G01*
G37*
G36*
G01*
X-46670000Y-110950000D02*
X-46330000Y-110950000D01*
G75*
G02*
X-46190000Y-111090000I0J-140000D01*
G01*
X-46190000Y-111370000D01*
G75*
G02*
X-46330000Y-111510000I-140000J0D01*
G01*
X-46670000Y-111510000D01*
G75*
G02*
X-46810000Y-111370000I0J140000D01*
G01*
X-46810000Y-111090000D01*
G75*
G02*
X-46670000Y-110950000I140000J0D01*
G01*
G37*
G04 #@! TD*
G04 #@! TO.C,C13*
G36*
G01*
X-42630000Y-111910000D02*
X-42290000Y-111910000D01*
G75*
G02*
X-42150000Y-112050000I0J-140000D01*
G01*
X-42150000Y-112330000D01*
G75*
G02*
X-42290000Y-112470000I-140000J0D01*
G01*
X-42630000Y-112470000D01*
G75*
G02*
X-42770000Y-112330000I0J140000D01*
G01*
X-42770000Y-112050000D01*
G75*
G02*
X-42630000Y-111910000I140000J0D01*
G01*
G37*
G36*
G01*
X-42630000Y-110950000D02*
X-42290000Y-110950000D01*
G75*
G02*
X-42150000Y-111090000I0J-140000D01*
G01*
X-42150000Y-111370000D01*
G75*
G02*
X-42290000Y-111510000I-140000J0D01*
G01*
X-42630000Y-111510000D01*
G75*
G02*
X-42770000Y-111370000I0J140000D01*
G01*
X-42770000Y-111090000D01*
G75*
G02*
X-42630000Y-110950000I140000J0D01*
G01*
G37*
G04 #@! TD*
D18*
G04 #@! TO.C,U6*
X-50320000Y-109390000D03*
X-52220000Y-109390000D03*
X-52220000Y-106890000D03*
X-51270000Y-106890000D03*
X-50320000Y-106890000D03*
G04 #@! TD*
G04 #@! TO.C,R17*
G36*
G01*
X-50515000Y-111440000D02*
X-50145000Y-111440000D01*
G75*
G02*
X-50010000Y-111575000I0J-135000D01*
G01*
X-50010000Y-111845000D01*
G75*
G02*
X-50145000Y-111980000I-135000J0D01*
G01*
X-50515000Y-111980000D01*
G75*
G02*
X-50650000Y-111845000I0J135000D01*
G01*
X-50650000Y-111575000D01*
G75*
G02*
X-50515000Y-111440000I135000J0D01*
G01*
G37*
G36*
G01*
X-50515000Y-110420000D02*
X-50145000Y-110420000D01*
G75*
G02*
X-50010000Y-110555000I0J-135000D01*
G01*
X-50010000Y-110825000D01*
G75*
G02*
X-50145000Y-110960000I-135000J0D01*
G01*
X-50515000Y-110960000D01*
G75*
G02*
X-50650000Y-110825000I0J135000D01*
G01*
X-50650000Y-110555000D01*
G75*
G02*
X-50515000Y-110420000I135000J0D01*
G01*
G37*
G04 #@! TD*
G04 #@! TO.C,R16*
G36*
G01*
X-50080000Y-105315000D02*
X-50080000Y-105685000D01*
G75*
G02*
X-50215000Y-105820000I-135000J0D01*
G01*
X-50485000Y-105820000D01*
G75*
G02*
X-50620000Y-105685000I0J135000D01*
G01*
X-50620000Y-105315000D01*
G75*
G02*
X-50485000Y-105180000I135000J0D01*
G01*
X-50215000Y-105180000D01*
G75*
G02*
X-50080000Y-105315000I0J-135000D01*
G01*
G37*
G36*
G01*
X-49060000Y-105315000D02*
X-49060000Y-105685000D01*
G75*
G02*
X-49195000Y-105820000I-135000J0D01*
G01*
X-49465000Y-105820000D01*
G75*
G02*
X-49600000Y-105685000I0J135000D01*
G01*
X-49600000Y-105315000D01*
G75*
G02*
X-49465000Y-105180000I135000J0D01*
G01*
X-49195000Y-105180000D01*
G75*
G02*
X-49060000Y-105315000I0J-135000D01*
G01*
G37*
G04 #@! TD*
D19*
G04 #@! TO.C,J3*
X-57850000Y-94350000D03*
D20*
X-52770000Y-94350000D03*
G04 #@! TD*
G04 #@! TO.C,C17*
G36*
G01*
X-52910000Y-110580000D02*
X-52910000Y-110920000D01*
G75*
G02*
X-53050000Y-111060000I-140000J0D01*
G01*
X-53330000Y-111060000D01*
G75*
G02*
X-53470000Y-110920000I0J140000D01*
G01*
X-53470000Y-110580000D01*
G75*
G02*
X-53330000Y-110440000I140000J0D01*
G01*
X-53050000Y-110440000D01*
G75*
G02*
X-52910000Y-110580000I0J-140000D01*
G01*
G37*
G36*
G01*
X-51950000Y-110580000D02*
X-51950000Y-110920000D01*
G75*
G02*
X-52090000Y-111060000I-140000J0D01*
G01*
X-52370000Y-111060000D01*
G75*
G02*
X-52510000Y-110920000I0J140000D01*
G01*
X-52510000Y-110580000D01*
G75*
G02*
X-52370000Y-110440000I140000J0D01*
G01*
X-52090000Y-110440000D01*
G75*
G02*
X-51950000Y-110580000I0J-140000D01*
G01*
G37*
G04 #@! TD*
D21*
G04 #@! TO.C,U8*
X-57360000Y-102180000D03*
X-57360000Y-101230000D03*
X-57360000Y-100280000D03*
X-54860000Y-100280000D03*
X-54860000Y-101230000D03*
X-54860000Y-102180000D03*
G04 #@! TD*
D22*
G04 #@! TO.C,Q1*
X-51430000Y-101150000D03*
X-52410000Y-101150000D03*
D23*
X-52570000Y-100275000D03*
X-51920000Y-100275000D03*
X-51270000Y-100275000D03*
X-51270000Y-102025000D03*
X-51920000Y-102025000D03*
X-52570000Y-102025000D03*
G04 #@! TD*
G04 #@! TO.C,R23*
G36*
G01*
X-59440000Y-101095000D02*
X-59440000Y-101465000D01*
G75*
G02*
X-59575000Y-101600000I-135000J0D01*
G01*
X-59845000Y-101600000D01*
G75*
G02*
X-59980000Y-101465000I0J135000D01*
G01*
X-59980000Y-101095000D01*
G75*
G02*
X-59845000Y-100960000I135000J0D01*
G01*
X-59575000Y-100960000D01*
G75*
G02*
X-59440000Y-101095000I0J-135000D01*
G01*
G37*
G36*
G01*
X-58420000Y-101095000D02*
X-58420000Y-101465000D01*
G75*
G02*
X-58555000Y-101600000I-135000J0D01*
G01*
X-58825000Y-101600000D01*
G75*
G02*
X-58960000Y-101465000I0J135000D01*
G01*
X-58960000Y-101095000D01*
G75*
G02*
X-58825000Y-100960000I135000J0D01*
G01*
X-58555000Y-100960000D01*
G75*
G02*
X-58420000Y-101095000I0J-135000D01*
G01*
G37*
G04 #@! TD*
G04 #@! TO.C,R20*
G36*
G01*
X-54860000Y-99085000D02*
X-54860000Y-98715000D01*
G75*
G02*
X-54725000Y-98580000I135000J0D01*
G01*
X-54455000Y-98580000D01*
G75*
G02*
X-54320000Y-98715000I0J-135000D01*
G01*
X-54320000Y-99085000D01*
G75*
G02*
X-54455000Y-99220000I-135000J0D01*
G01*
X-54725000Y-99220000D01*
G75*
G02*
X-54860000Y-99085000I0J135000D01*
G01*
G37*
G36*
G01*
X-55880000Y-99085000D02*
X-55880000Y-98715000D01*
G75*
G02*
X-55745000Y-98580000I135000J0D01*
G01*
X-55475000Y-98580000D01*
G75*
G02*
X-55340000Y-98715000I0J-135000D01*
G01*
X-55340000Y-99085000D01*
G75*
G02*
X-55475000Y-99220000I-135000J0D01*
G01*
X-55745000Y-99220000D01*
G75*
G02*
X-55880000Y-99085000I0J135000D01*
G01*
G37*
G04 #@! TD*
G04 #@! TO.C,C24*
G36*
G01*
X-58980000Y-102440000D02*
X-58980000Y-102100000D01*
G75*
G02*
X-58840000Y-101960000I140000J0D01*
G01*
X-58560000Y-101960000D01*
G75*
G02*
X-58420000Y-102100000I0J-140000D01*
G01*
X-58420000Y-102440000D01*
G75*
G02*
X-58560000Y-102580000I-140000J0D01*
G01*
X-58840000Y-102580000D01*
G75*
G02*
X-58980000Y-102440000I0J140000D01*
G01*
G37*
G36*
G01*
X-59940000Y-102440000D02*
X-59940000Y-102100000D01*
G75*
G02*
X-59800000Y-101960000I140000J0D01*
G01*
X-59520000Y-101960000D01*
G75*
G02*
X-59380000Y-102100000I0J-140000D01*
G01*
X-59380000Y-102440000D01*
G75*
G02*
X-59520000Y-102580000I-140000J0D01*
G01*
X-59800000Y-102580000D01*
G75*
G02*
X-59940000Y-102440000I0J140000D01*
G01*
G37*
G04 #@! TD*
D24*
G04 #@! TO.C,U7*
X-66330000Y-107130000D03*
D25*
X-64880000Y-106180000D03*
X-64880000Y-107130000D03*
X-64880000Y-108080000D03*
X-67780000Y-108080000D03*
X-67780000Y-107130000D03*
X-67780000Y-106180000D03*
G04 #@! TD*
G04 #@! TO.C,R22*
G36*
G01*
X-62960000Y-112625000D02*
X-62960000Y-112255000D01*
G75*
G02*
X-62825000Y-112120000I135000J0D01*
G01*
X-62555000Y-112120000D01*
G75*
G02*
X-62420000Y-112255000I0J-135000D01*
G01*
X-62420000Y-112625000D01*
G75*
G02*
X-62555000Y-112760000I-135000J0D01*
G01*
X-62825000Y-112760000D01*
G75*
G02*
X-62960000Y-112625000I0J135000D01*
G01*
G37*
G36*
G01*
X-63980000Y-112625000D02*
X-63980000Y-112255000D01*
G75*
G02*
X-63845000Y-112120000I135000J0D01*
G01*
X-63575000Y-112120000D01*
G75*
G02*
X-63440000Y-112255000I0J-135000D01*
G01*
X-63440000Y-112625000D01*
G75*
G02*
X-63575000Y-112760000I-135000J0D01*
G01*
X-63845000Y-112760000D01*
G75*
G02*
X-63980000Y-112625000I0J135000D01*
G01*
G37*
G04 #@! TD*
G04 #@! TO.C,R21*
G36*
G01*
X-63440000Y-111265000D02*
X-63440000Y-111635000D01*
G75*
G02*
X-63575000Y-111770000I-135000J0D01*
G01*
X-63845000Y-111770000D01*
G75*
G02*
X-63980000Y-111635000I0J135000D01*
G01*
X-63980000Y-111265000D01*
G75*
G02*
X-63845000Y-111130000I135000J0D01*
G01*
X-63575000Y-111130000D01*
G75*
G02*
X-63440000Y-111265000I0J-135000D01*
G01*
G37*
G36*
G01*
X-62420000Y-111265000D02*
X-62420000Y-111635000D01*
G75*
G02*
X-62555000Y-111770000I-135000J0D01*
G01*
X-62825000Y-111770000D01*
G75*
G02*
X-62960000Y-111635000I0J135000D01*
G01*
X-62960000Y-111265000D01*
G75*
G02*
X-62825000Y-111130000I135000J0D01*
G01*
X-62555000Y-111130000D01*
G75*
G02*
X-62420000Y-111265000I0J-135000D01*
G01*
G37*
G04 #@! TD*
G04 #@! TO.C,R19*
G36*
G01*
X-65650000Y-109305000D02*
X-65650000Y-109675000D01*
G75*
G02*
X-65785000Y-109810000I-135000J0D01*
G01*
X-66055000Y-109810000D01*
G75*
G02*
X-66190000Y-109675000I0J135000D01*
G01*
X-66190000Y-109305000D01*
G75*
G02*
X-66055000Y-109170000I135000J0D01*
G01*
X-65785000Y-109170000D01*
G75*
G02*
X-65650000Y-109305000I0J-135000D01*
G01*
G37*
G36*
G01*
X-64630000Y-109305000D02*
X-64630000Y-109675000D01*
G75*
G02*
X-64765000Y-109810000I-135000J0D01*
G01*
X-65035000Y-109810000D01*
G75*
G02*
X-65170000Y-109675000I0J135000D01*
G01*
X-65170000Y-109305000D01*
G75*
G02*
X-65035000Y-109170000I135000J0D01*
G01*
X-64765000Y-109170000D01*
G75*
G02*
X-64630000Y-109305000I0J-135000D01*
G01*
G37*
G04 #@! TD*
G04 #@! TO.C,R18*
G36*
G01*
X-65660000Y-110305000D02*
X-65660000Y-110675000D01*
G75*
G02*
X-65795000Y-110810000I-135000J0D01*
G01*
X-66065000Y-110810000D01*
G75*
G02*
X-66200000Y-110675000I0J135000D01*
G01*
X-66200000Y-110305000D01*
G75*
G02*
X-66065000Y-110170000I135000J0D01*
G01*
X-65795000Y-110170000D01*
G75*
G02*
X-65660000Y-110305000I0J-135000D01*
G01*
G37*
G36*
G01*
X-64640000Y-110305000D02*
X-64640000Y-110675000D01*
G75*
G02*
X-64775000Y-110810000I-135000J0D01*
G01*
X-65045000Y-110810000D01*
G75*
G02*
X-65180000Y-110675000I0J135000D01*
G01*
X-65180000Y-110305000D01*
G75*
G02*
X-65045000Y-110170000I135000J0D01*
G01*
X-64775000Y-110170000D01*
G75*
G02*
X-64640000Y-110305000I0J-135000D01*
G01*
G37*
G04 #@! TD*
G04 #@! TO.C,R15*
G36*
G01*
X-68530000Y-109295000D02*
X-68530000Y-109665000D01*
G75*
G02*
X-68665000Y-109800000I-135000J0D01*
G01*
X-68935000Y-109800000D01*
G75*
G02*
X-69070000Y-109665000I0J135000D01*
G01*
X-69070000Y-109295000D01*
G75*
G02*
X-68935000Y-109160000I135000J0D01*
G01*
X-68665000Y-109160000D01*
G75*
G02*
X-68530000Y-109295000I0J-135000D01*
G01*
G37*
G36*
G01*
X-67510000Y-109295000D02*
X-67510000Y-109665000D01*
G75*
G02*
X-67645000Y-109800000I-135000J0D01*
G01*
X-67915000Y-109800000D01*
G75*
G02*
X-68050000Y-109665000I0J135000D01*
G01*
X-68050000Y-109295000D01*
G75*
G02*
X-67915000Y-109160000I135000J0D01*
G01*
X-67645000Y-109160000D01*
G75*
G02*
X-67510000Y-109295000I0J-135000D01*
G01*
G37*
G04 #@! TD*
G04 #@! TO.C,L1*
G36*
G01*
X-66765000Y-104765000D02*
X-66765000Y-102615000D01*
G75*
G02*
X-66515000Y-102365000I250000J0D01*
G01*
X-65765000Y-102365000D01*
G75*
G02*
X-65515000Y-102615000I0J-250000D01*
G01*
X-65515000Y-104765000D01*
G75*
G02*
X-65765000Y-105015000I-250000J0D01*
G01*
X-66515000Y-105015000D01*
G75*
G02*
X-66765000Y-104765000I0J250000D01*
G01*
G37*
G36*
G01*
X-69565000Y-104765000D02*
X-69565000Y-102615000D01*
G75*
G02*
X-69315000Y-102365000I250000J0D01*
G01*
X-68565000Y-102365000D01*
G75*
G02*
X-68315000Y-102615000I0J-250000D01*
G01*
X-68315000Y-104765000D01*
G75*
G02*
X-68565000Y-105015000I-250000J0D01*
G01*
X-69315000Y-105015000D01*
G75*
G02*
X-69565000Y-104765000I0J250000D01*
G01*
G37*
G04 #@! TD*
D26*
G04 #@! TO.C,D2*
X-61620000Y-114920000D03*
X-63720000Y-114920000D03*
G04 #@! TD*
D27*
G04 #@! TO.C,D1*
X-64480000Y-104110000D03*
X-61180000Y-104110000D03*
G04 #@! TD*
G04 #@! TO.C,C25*
G36*
G01*
X-63390000Y-105650000D02*
X-63390000Y-105990000D01*
G75*
G02*
X-63530000Y-106130000I-140000J0D01*
G01*
X-63810000Y-106130000D01*
G75*
G02*
X-63950000Y-105990000I0J140000D01*
G01*
X-63950000Y-105650000D01*
G75*
G02*
X-63810000Y-105510000I140000J0D01*
G01*
X-63530000Y-105510000D01*
G75*
G02*
X-63390000Y-105650000I0J-140000D01*
G01*
G37*
G36*
G01*
X-62430000Y-105650000D02*
X-62430000Y-105990000D01*
G75*
G02*
X-62570000Y-106130000I-140000J0D01*
G01*
X-62850000Y-106130000D01*
G75*
G02*
X-62990000Y-105990000I0J140000D01*
G01*
X-62990000Y-105650000D01*
G75*
G02*
X-62850000Y-105510000I140000J0D01*
G01*
X-62570000Y-105510000D01*
G75*
G02*
X-62430000Y-105650000I0J-140000D01*
G01*
G37*
G04 #@! TD*
G04 #@! TO.C,C23*
G36*
G01*
X-63390000Y-109570000D02*
X-63390000Y-109910000D01*
G75*
G02*
X-63530000Y-110050000I-140000J0D01*
G01*
X-63810000Y-110050000D01*
G75*
G02*
X-63950000Y-109910000I0J140000D01*
G01*
X-63950000Y-109570000D01*
G75*
G02*
X-63810000Y-109430000I140000J0D01*
G01*
X-63530000Y-109430000D01*
G75*
G02*
X-63390000Y-109570000I0J-140000D01*
G01*
G37*
G36*
G01*
X-62430000Y-109570000D02*
X-62430000Y-109910000D01*
G75*
G02*
X-62570000Y-110050000I-140000J0D01*
G01*
X-62850000Y-110050000D01*
G75*
G02*
X-62990000Y-109910000I0J140000D01*
G01*
X-62990000Y-109570000D01*
G75*
G02*
X-62850000Y-109430000I140000J0D01*
G01*
X-62570000Y-109430000D01*
G75*
G02*
X-62430000Y-109570000I0J-140000D01*
G01*
G37*
G04 #@! TD*
G04 #@! TO.C,C22*
G36*
G01*
X-63390000Y-108580000D02*
X-63390000Y-108920000D01*
G75*
G02*
X-63530000Y-109060000I-140000J0D01*
G01*
X-63810000Y-109060000D01*
G75*
G02*
X-63950000Y-108920000I0J140000D01*
G01*
X-63950000Y-108580000D01*
G75*
G02*
X-63810000Y-108440000I140000J0D01*
G01*
X-63530000Y-108440000D01*
G75*
G02*
X-63390000Y-108580000I0J-140000D01*
G01*
G37*
G36*
G01*
X-62430000Y-108580000D02*
X-62430000Y-108920000D01*
G75*
G02*
X-62570000Y-109060000I-140000J0D01*
G01*
X-62850000Y-109060000D01*
G75*
G02*
X-62990000Y-108920000I0J140000D01*
G01*
X-62990000Y-108580000D01*
G75*
G02*
X-62850000Y-108440000I140000J0D01*
G01*
X-62570000Y-108440000D01*
G75*
G02*
X-62430000Y-108580000I0J-140000D01*
G01*
G37*
G04 #@! TD*
G04 #@! TO.C,C21*
G36*
G01*
X-63030000Y-113600000D02*
X-63030000Y-113260000D01*
G75*
G02*
X-62890000Y-113120000I140000J0D01*
G01*
X-62610000Y-113120000D01*
G75*
G02*
X-62470000Y-113260000I0J-140000D01*
G01*
X-62470000Y-113600000D01*
G75*
G02*
X-62610000Y-113740000I-140000J0D01*
G01*
X-62890000Y-113740000D01*
G75*
G02*
X-63030000Y-113600000I0J140000D01*
G01*
G37*
G36*
G01*
X-63990000Y-113600000D02*
X-63990000Y-113260000D01*
G75*
G02*
X-63850000Y-113120000I140000J0D01*
G01*
X-63570000Y-113120000D01*
G75*
G02*
X-63430000Y-113260000I0J-140000D01*
G01*
X-63430000Y-113600000D01*
G75*
G02*
X-63570000Y-113740000I-140000J0D01*
G01*
X-63850000Y-113740000D01*
G75*
G02*
X-63990000Y-113600000I0J140000D01*
G01*
G37*
G04 #@! TD*
G04 #@! TO.C,C20*
G36*
G01*
X-63390000Y-107600000D02*
X-63390000Y-107940000D01*
G75*
G02*
X-63530000Y-108080000I-140000J0D01*
G01*
X-63810000Y-108080000D01*
G75*
G02*
X-63950000Y-107940000I0J140000D01*
G01*
X-63950000Y-107600000D01*
G75*
G02*
X-63810000Y-107460000I140000J0D01*
G01*
X-63530000Y-107460000D01*
G75*
G02*
X-63390000Y-107600000I0J-140000D01*
G01*
G37*
G36*
G01*
X-62430000Y-107600000D02*
X-62430000Y-107940000D01*
G75*
G02*
X-62570000Y-108080000I-140000J0D01*
G01*
X-62850000Y-108080000D01*
G75*
G02*
X-62990000Y-107940000I0J140000D01*
G01*
X-62990000Y-107600000D01*
G75*
G02*
X-62850000Y-107460000I140000J0D01*
G01*
X-62570000Y-107460000D01*
G75*
G02*
X-62430000Y-107600000I0J-140000D01*
G01*
G37*
G04 #@! TD*
G04 #@! TO.C,C19*
G36*
G01*
X-63390000Y-106630000D02*
X-63390000Y-106970000D01*
G75*
G02*
X-63530000Y-107110000I-140000J0D01*
G01*
X-63810000Y-107110000D01*
G75*
G02*
X-63950000Y-106970000I0J140000D01*
G01*
X-63950000Y-106630000D01*
G75*
G02*
X-63810000Y-106490000I140000J0D01*
G01*
X-63530000Y-106490000D01*
G75*
G02*
X-63390000Y-106630000I0J-140000D01*
G01*
G37*
G36*
G01*
X-62430000Y-106630000D02*
X-62430000Y-106970000D01*
G75*
G02*
X-62570000Y-107110000I-140000J0D01*
G01*
X-62850000Y-107110000D01*
G75*
G02*
X-62990000Y-106970000I0J140000D01*
G01*
X-62990000Y-106630000D01*
G75*
G02*
X-62850000Y-106490000I140000J0D01*
G01*
X-62570000Y-106490000D01*
G75*
G02*
X-62430000Y-106630000I0J-140000D01*
G01*
G37*
G04 #@! TD*
G04 #@! TO.C,C18*
G36*
G01*
X-65620000Y-111310000D02*
X-65620000Y-111650000D01*
G75*
G02*
X-65760000Y-111790000I-140000J0D01*
G01*
X-66040000Y-111790000D01*
G75*
G02*
X-66180000Y-111650000I0J140000D01*
G01*
X-66180000Y-111310000D01*
G75*
G02*
X-66040000Y-111170000I140000J0D01*
G01*
X-65760000Y-111170000D01*
G75*
G02*
X-65620000Y-111310000I0J-140000D01*
G01*
G37*
G36*
G01*
X-64660000Y-111310000D02*
X-64660000Y-111650000D01*
G75*
G02*
X-64800000Y-111790000I-140000J0D01*
G01*
X-65080000Y-111790000D01*
G75*
G02*
X-65220000Y-111650000I0J140000D01*
G01*
X-65220000Y-111310000D01*
G75*
G02*
X-65080000Y-111170000I140000J0D01*
G01*
X-64800000Y-111170000D01*
G75*
G02*
X-64660000Y-111310000I0J-140000D01*
G01*
G37*
G04 #@! TD*
G04 #@! TO.C,C16*
G36*
G01*
X-68810000Y-106440000D02*
X-69150000Y-106440000D01*
G75*
G02*
X-69290000Y-106300000I0J140000D01*
G01*
X-69290000Y-106020000D01*
G75*
G02*
X-69150000Y-105880000I140000J0D01*
G01*
X-68810000Y-105880000D01*
G75*
G02*
X-68670000Y-106020000I0J-140000D01*
G01*
X-68670000Y-106300000D01*
G75*
G02*
X-68810000Y-106440000I-140000J0D01*
G01*
G37*
G36*
G01*
X-68810000Y-107400000D02*
X-69150000Y-107400000D01*
G75*
G02*
X-69290000Y-107260000I0J140000D01*
G01*
X-69290000Y-106980000D01*
G75*
G02*
X-69150000Y-106840000I140000J0D01*
G01*
X-68810000Y-106840000D01*
G75*
G02*
X-68670000Y-106980000I0J-140000D01*
G01*
X-68670000Y-107260000D01*
G75*
G02*
X-68810000Y-107400000I-140000J0D01*
G01*
G37*
G04 #@! TD*
G04 #@! TO.C,C15*
G36*
G01*
X-69790000Y-106440000D02*
X-70130000Y-106440000D01*
G75*
G02*
X-70270000Y-106300000I0J140000D01*
G01*
X-70270000Y-106020000D01*
G75*
G02*
X-70130000Y-105880000I140000J0D01*
G01*
X-69790000Y-105880000D01*
G75*
G02*
X-69650000Y-106020000I0J-140000D01*
G01*
X-69650000Y-106300000D01*
G75*
G02*
X-69790000Y-106440000I-140000J0D01*
G01*
G37*
G36*
G01*
X-69790000Y-107400000D02*
X-70130000Y-107400000D01*
G75*
G02*
X-70270000Y-107260000I0J140000D01*
G01*
X-70270000Y-106980000D01*
G75*
G02*
X-70130000Y-106840000I140000J0D01*
G01*
X-69790000Y-106840000D01*
G75*
G02*
X-69650000Y-106980000I0J-140000D01*
G01*
X-69650000Y-107260000D01*
G75*
G02*
X-69790000Y-107400000I-140000J0D01*
G01*
G37*
G04 #@! TD*
G04 #@! TO.C,R7*
G36*
G01*
X-68485000Y-128680000D02*
X-68115000Y-128680000D01*
G75*
G02*
X-67980000Y-128815000I0J-135000D01*
G01*
X-67980000Y-129085000D01*
G75*
G02*
X-68115000Y-129220000I-135000J0D01*
G01*
X-68485000Y-129220000D01*
G75*
G02*
X-68620000Y-129085000I0J135000D01*
G01*
X-68620000Y-128815000D01*
G75*
G02*
X-68485000Y-128680000I135000J0D01*
G01*
G37*
G36*
G01*
X-68485000Y-127660000D02*
X-68115000Y-127660000D01*
G75*
G02*
X-67980000Y-127795000I0J-135000D01*
G01*
X-67980000Y-128065000D01*
G75*
G02*
X-68115000Y-128200000I-135000J0D01*
G01*
X-68485000Y-128200000D01*
G75*
G02*
X-68620000Y-128065000I0J135000D01*
G01*
X-68620000Y-127795000D01*
G75*
G02*
X-68485000Y-127660000I135000J0D01*
G01*
G37*
G04 #@! TD*
G04 #@! TO.C,C10*
G36*
G01*
X-61220000Y-120040000D02*
X-60880000Y-120040000D01*
G75*
G02*
X-60740000Y-120180000I0J-140000D01*
G01*
X-60740000Y-120460000D01*
G75*
G02*
X-60880000Y-120600000I-140000J0D01*
G01*
X-61220000Y-120600000D01*
G75*
G02*
X-61360000Y-120460000I0J140000D01*
G01*
X-61360000Y-120180000D01*
G75*
G02*
X-61220000Y-120040000I140000J0D01*
G01*
G37*
G36*
G01*
X-61220000Y-119080000D02*
X-60880000Y-119080000D01*
G75*
G02*
X-60740000Y-119220000I0J-140000D01*
G01*
X-60740000Y-119500000D01*
G75*
G02*
X-60880000Y-119640000I-140000J0D01*
G01*
X-61220000Y-119640000D01*
G75*
G02*
X-61360000Y-119500000I0J140000D01*
G01*
X-61360000Y-119220000D01*
G75*
G02*
X-61220000Y-119080000I140000J0D01*
G01*
G37*
G04 #@! TD*
D11*
G04 #@! TO.C,J1*
X-65890000Y-120490000D03*
X-63350000Y-120490000D03*
X-65890000Y-123030000D03*
X-63350000Y-123030000D03*
X-65890000Y-125570000D03*
X-63350000Y-125570000D03*
X-65890000Y-128110000D03*
D12*
X-63350000Y-128110000D03*
G04 #@! TD*
D28*
G04 #@! TO.C,U2*
X-71550000Y-111750000D03*
X-72350000Y-111750000D03*
X-73150000Y-111750000D03*
X-73950000Y-111750000D03*
X-73950000Y-114150000D03*
X-73150000Y-114150000D03*
X-72350000Y-114150000D03*
X-71550000Y-114150000D03*
G04 #@! TD*
G04 #@! TO.C,R6*
G36*
G01*
X-73550000Y-116205000D02*
X-73550000Y-115835000D01*
G75*
G02*
X-73415000Y-115700000I135000J0D01*
G01*
X-73145000Y-115700000D01*
G75*
G02*
X-73010000Y-115835000I0J-135000D01*
G01*
X-73010000Y-116205000D01*
G75*
G02*
X-73145000Y-116340000I-135000J0D01*
G01*
X-73415000Y-116340000D01*
G75*
G02*
X-73550000Y-116205000I0J135000D01*
G01*
G37*
G36*
G01*
X-74570000Y-116205000D02*
X-74570000Y-115835000D01*
G75*
G02*
X-74435000Y-115700000I135000J0D01*
G01*
X-74165000Y-115700000D01*
G75*
G02*
X-74030000Y-115835000I0J-135000D01*
G01*
X-74030000Y-116205000D01*
G75*
G02*
X-74165000Y-116340000I-135000J0D01*
G01*
X-74435000Y-116340000D01*
G75*
G02*
X-74570000Y-116205000I0J135000D01*
G01*
G37*
G04 #@! TD*
G04 #@! TO.C,R5*
G36*
G01*
X-75540000Y-116215000D02*
X-75540000Y-115845000D01*
G75*
G02*
X-75405000Y-115710000I135000J0D01*
G01*
X-75135000Y-115710000D01*
G75*
G02*
X-75000000Y-115845000I0J-135000D01*
G01*
X-75000000Y-116215000D01*
G75*
G02*
X-75135000Y-116350000I-135000J0D01*
G01*
X-75405000Y-116350000D01*
G75*
G02*
X-75540000Y-116215000I0J135000D01*
G01*
G37*
G36*
G01*
X-76560000Y-116215000D02*
X-76560000Y-115845000D01*
G75*
G02*
X-76425000Y-115710000I135000J0D01*
G01*
X-76155000Y-115710000D01*
G75*
G02*
X-76020000Y-115845000I0J-135000D01*
G01*
X-76020000Y-116215000D01*
G75*
G02*
X-76155000Y-116350000I-135000J0D01*
G01*
X-76425000Y-116350000D01*
G75*
G02*
X-76560000Y-116215000I0J135000D01*
G01*
G37*
G04 #@! TD*
G04 #@! TO.C,R4*
G36*
G01*
X-72080000Y-115825000D02*
X-72080000Y-116195000D01*
G75*
G02*
X-72215000Y-116330000I-135000J0D01*
G01*
X-72485000Y-116330000D01*
G75*
G02*
X-72620000Y-116195000I0J135000D01*
G01*
X-72620000Y-115825000D01*
G75*
G02*
X-72485000Y-115690000I135000J0D01*
G01*
X-72215000Y-115690000D01*
G75*
G02*
X-72080000Y-115825000I0J-135000D01*
G01*
G37*
G36*
G01*
X-71060000Y-115825000D02*
X-71060000Y-116195000D01*
G75*
G02*
X-71195000Y-116330000I-135000J0D01*
G01*
X-71465000Y-116330000D01*
G75*
G02*
X-71600000Y-116195000I0J135000D01*
G01*
X-71600000Y-115825000D01*
G75*
G02*
X-71465000Y-115690000I135000J0D01*
G01*
X-71195000Y-115690000D01*
G75*
G02*
X-71060000Y-115825000I0J-135000D01*
G01*
G37*
G04 #@! TD*
G04 #@! TO.C,R3*
G36*
G01*
X-75985000Y-112510000D02*
X-75615000Y-112510000D01*
G75*
G02*
X-75480000Y-112645000I0J-135000D01*
G01*
X-75480000Y-112915000D01*
G75*
G02*
X-75615000Y-113050000I-135000J0D01*
G01*
X-75985000Y-113050000D01*
G75*
G02*
X-76120000Y-112915000I0J135000D01*
G01*
X-76120000Y-112645000D01*
G75*
G02*
X-75985000Y-112510000I135000J0D01*
G01*
G37*
G36*
G01*
X-75985000Y-111490000D02*
X-75615000Y-111490000D01*
G75*
G02*
X-75480000Y-111625000I0J-135000D01*
G01*
X-75480000Y-111895000D01*
G75*
G02*
X-75615000Y-112030000I-135000J0D01*
G01*
X-75985000Y-112030000D01*
G75*
G02*
X-76120000Y-111895000I0J135000D01*
G01*
X-76120000Y-111625000D01*
G75*
G02*
X-75985000Y-111490000I135000J0D01*
G01*
G37*
G04 #@! TD*
G04 #@! TO.C,C9*
G36*
G01*
X-72060000Y-109720000D02*
X-72060000Y-110060000D01*
G75*
G02*
X-72200000Y-110200000I-140000J0D01*
G01*
X-72480000Y-110200000D01*
G75*
G02*
X-72620000Y-110060000I0J140000D01*
G01*
X-72620000Y-109720000D01*
G75*
G02*
X-72480000Y-109580000I140000J0D01*
G01*
X-72200000Y-109580000D01*
G75*
G02*
X-72060000Y-109720000I0J-140000D01*
G01*
G37*
G36*
G01*
X-71100000Y-109720000D02*
X-71100000Y-110060000D01*
G75*
G02*
X-71240000Y-110200000I-140000J0D01*
G01*
X-71520000Y-110200000D01*
G75*
G02*
X-71660000Y-110060000I0J140000D01*
G01*
X-71660000Y-109720000D01*
G75*
G02*
X-71520000Y-109580000I140000J0D01*
G01*
X-71240000Y-109580000D01*
G75*
G02*
X-71100000Y-109720000I0J-140000D01*
G01*
G37*
G04 #@! TD*
G04 #@! TO.C,C8*
G36*
G01*
X-73130000Y-109250000D02*
X-73470000Y-109250000D01*
G75*
G02*
X-73610000Y-109110000I0J140000D01*
G01*
X-73610000Y-108830000D01*
G75*
G02*
X-73470000Y-108690000I140000J0D01*
G01*
X-73130000Y-108690000D01*
G75*
G02*
X-72990000Y-108830000I0J-140000D01*
G01*
X-72990000Y-109110000D01*
G75*
G02*
X-73130000Y-109250000I-140000J0D01*
G01*
G37*
G36*
G01*
X-73130000Y-110210000D02*
X-73470000Y-110210000D01*
G75*
G02*
X-73610000Y-110070000I0J140000D01*
G01*
X-73610000Y-109790000D01*
G75*
G02*
X-73470000Y-109650000I140000J0D01*
G01*
X-73130000Y-109650000D01*
G75*
G02*
X-72990000Y-109790000I0J-140000D01*
G01*
X-72990000Y-110070000D01*
G75*
G02*
X-73130000Y-110210000I-140000J0D01*
G01*
G37*
G04 #@! TD*
D29*
G04 #@! TO.C,Y1*
X-81130000Y-123550000D03*
X-81130000Y-122150000D03*
G04 #@! TD*
G04 #@! TO.C,R2*
G36*
G01*
X-81870000Y-125225000D02*
X-81870000Y-124855000D01*
G75*
G02*
X-81735000Y-124720000I135000J0D01*
G01*
X-81465000Y-124720000D01*
G75*
G02*
X-81330000Y-124855000I0J-135000D01*
G01*
X-81330000Y-125225000D01*
G75*
G02*
X-81465000Y-125360000I-135000J0D01*
G01*
X-81735000Y-125360000D01*
G75*
G02*
X-81870000Y-125225000I0J135000D01*
G01*
G37*
G36*
G01*
X-82890000Y-125225000D02*
X-82890000Y-124855000D01*
G75*
G02*
X-82755000Y-124720000I135000J0D01*
G01*
X-82485000Y-124720000D01*
G75*
G02*
X-82350000Y-124855000I0J-135000D01*
G01*
X-82350000Y-125225000D01*
G75*
G02*
X-82485000Y-125360000I-135000J0D01*
G01*
X-82755000Y-125360000D01*
G75*
G02*
X-82890000Y-125225000I0J135000D01*
G01*
G37*
G04 #@! TD*
G04 #@! TO.C,R1*
G36*
G01*
X-75595000Y-117850000D02*
X-75965000Y-117850000D01*
G75*
G02*
X-76100000Y-117715000I0J135000D01*
G01*
X-76100000Y-117445000D01*
G75*
G02*
X-75965000Y-117310000I135000J0D01*
G01*
X-75595000Y-117310000D01*
G75*
G02*
X-75460000Y-117445000I0J-135000D01*
G01*
X-75460000Y-117715000D01*
G75*
G02*
X-75595000Y-117850000I-135000J0D01*
G01*
G37*
G36*
G01*
X-75595000Y-118870000D02*
X-75965000Y-118870000D01*
G75*
G02*
X-76100000Y-118735000I0J135000D01*
G01*
X-76100000Y-118465000D01*
G75*
G02*
X-75965000Y-118330000I135000J0D01*
G01*
X-75595000Y-118330000D01*
G75*
G02*
X-75460000Y-118465000I0J-135000D01*
G01*
X-75460000Y-118735000D01*
G75*
G02*
X-75595000Y-118870000I-135000J0D01*
G01*
G37*
G04 #@! TD*
G04 #@! TO.C,C7*
G36*
G01*
X-69460000Y-120750000D02*
X-69460000Y-120410000D01*
G75*
G02*
X-69320000Y-120270000I140000J0D01*
G01*
X-69040000Y-120270000D01*
G75*
G02*
X-68900000Y-120410000I0J-140000D01*
G01*
X-68900000Y-120750000D01*
G75*
G02*
X-69040000Y-120890000I-140000J0D01*
G01*
X-69320000Y-120890000D01*
G75*
G02*
X-69460000Y-120750000I0J140000D01*
G01*
G37*
G36*
G01*
X-70420000Y-120750000D02*
X-70420000Y-120410000D01*
G75*
G02*
X-70280000Y-120270000I140000J0D01*
G01*
X-70000000Y-120270000D01*
G75*
G02*
X-69860000Y-120410000I0J-140000D01*
G01*
X-69860000Y-120750000D01*
G75*
G02*
X-70000000Y-120890000I-140000J0D01*
G01*
X-70280000Y-120890000D01*
G75*
G02*
X-70420000Y-120750000I0J140000D01*
G01*
G37*
G04 #@! TD*
G04 #@! TO.C,C6*
G36*
G01*
X-80490000Y-125170000D02*
X-80830000Y-125170000D01*
G75*
G02*
X-80970000Y-125030000I0J140000D01*
G01*
X-80970000Y-124750000D01*
G75*
G02*
X-80830000Y-124610000I140000J0D01*
G01*
X-80490000Y-124610000D01*
G75*
G02*
X-80350000Y-124750000I0J-140000D01*
G01*
X-80350000Y-125030000D01*
G75*
G02*
X-80490000Y-125170000I-140000J0D01*
G01*
G37*
G36*
G01*
X-80490000Y-126130000D02*
X-80830000Y-126130000D01*
G75*
G02*
X-80970000Y-125990000I0J140000D01*
G01*
X-80970000Y-125710000D01*
G75*
G02*
X-80830000Y-125570000I140000J0D01*
G01*
X-80490000Y-125570000D01*
G75*
G02*
X-80350000Y-125710000I0J-140000D01*
G01*
X-80350000Y-125990000D01*
G75*
G02*
X-80490000Y-126130000I-140000J0D01*
G01*
G37*
G04 #@! TD*
G04 #@! TO.C,C5*
G36*
G01*
X-78480000Y-119310000D02*
X-78820000Y-119310000D01*
G75*
G02*
X-78960000Y-119170000I0J140000D01*
G01*
X-78960000Y-118890000D01*
G75*
G02*
X-78820000Y-118750000I140000J0D01*
G01*
X-78480000Y-118750000D01*
G75*
G02*
X-78340000Y-118890000I0J-140000D01*
G01*
X-78340000Y-119170000D01*
G75*
G02*
X-78480000Y-119310000I-140000J0D01*
G01*
G37*
G36*
G01*
X-78480000Y-120270000D02*
X-78820000Y-120270000D01*
G75*
G02*
X-78960000Y-120130000I0J140000D01*
G01*
X-78960000Y-119850000D01*
G75*
G02*
X-78820000Y-119710000I140000J0D01*
G01*
X-78480000Y-119710000D01*
G75*
G02*
X-78340000Y-119850000I0J-140000D01*
G01*
X-78340000Y-120130000D01*
G75*
G02*
X-78480000Y-120270000I-140000J0D01*
G01*
G37*
G04 #@! TD*
G04 #@! TO.C,C4*
G36*
G01*
X-79510000Y-119900000D02*
X-79850000Y-119900000D01*
G75*
G02*
X-79990000Y-119760000I0J140000D01*
G01*
X-79990000Y-119480000D01*
G75*
G02*
X-79850000Y-119340000I140000J0D01*
G01*
X-79510000Y-119340000D01*
G75*
G02*
X-79370000Y-119480000I0J-140000D01*
G01*
X-79370000Y-119760000D01*
G75*
G02*
X-79510000Y-119900000I-140000J0D01*
G01*
G37*
G36*
G01*
X-79510000Y-120860000D02*
X-79850000Y-120860000D01*
G75*
G02*
X-79990000Y-120720000I0J140000D01*
G01*
X-79990000Y-120440000D01*
G75*
G02*
X-79850000Y-120300000I140000J0D01*
G01*
X-79510000Y-120300000D01*
G75*
G02*
X-79370000Y-120440000I0J-140000D01*
G01*
X-79370000Y-120720000D01*
G75*
G02*
X-79510000Y-120860000I-140000J0D01*
G01*
G37*
G04 #@! TD*
G04 #@! TO.C,C3*
G36*
G01*
X-71450000Y-129160000D02*
X-71110000Y-129160000D01*
G75*
G02*
X-70970000Y-129300000I0J-140000D01*
G01*
X-70970000Y-129580000D01*
G75*
G02*
X-71110000Y-129720000I-140000J0D01*
G01*
X-71450000Y-129720000D01*
G75*
G02*
X-71590000Y-129580000I0J140000D01*
G01*
X-71590000Y-129300000D01*
G75*
G02*
X-71450000Y-129160000I140000J0D01*
G01*
G37*
G36*
G01*
X-71450000Y-128200000D02*
X-71110000Y-128200000D01*
G75*
G02*
X-70970000Y-128340000I0J-140000D01*
G01*
X-70970000Y-128620000D01*
G75*
G02*
X-71110000Y-128760000I-140000J0D01*
G01*
X-71450000Y-128760000D01*
G75*
G02*
X-71590000Y-128620000I0J140000D01*
G01*
X-71590000Y-128340000D01*
G75*
G02*
X-71450000Y-128200000I140000J0D01*
G01*
G37*
G04 #@! TD*
G04 #@! TO.C,C2*
G36*
G01*
X-82800000Y-123720000D02*
X-82800000Y-123380000D01*
G75*
G02*
X-82660000Y-123240000I140000J0D01*
G01*
X-82380000Y-123240000D01*
G75*
G02*
X-82240000Y-123380000I0J-140000D01*
G01*
X-82240000Y-123720000D01*
G75*
G02*
X-82380000Y-123860000I-140000J0D01*
G01*
X-82660000Y-123860000D01*
G75*
G02*
X-82800000Y-123720000I0J140000D01*
G01*
G37*
G36*
G01*
X-83760000Y-123720000D02*
X-83760000Y-123380000D01*
G75*
G02*
X-83620000Y-123240000I140000J0D01*
G01*
X-83340000Y-123240000D01*
G75*
G02*
X-83200000Y-123380000I0J-140000D01*
G01*
X-83200000Y-123720000D01*
G75*
G02*
X-83340000Y-123860000I-140000J0D01*
G01*
X-83620000Y-123860000D01*
G75*
G02*
X-83760000Y-123720000I0J140000D01*
G01*
G37*
G04 #@! TD*
G04 #@! TO.C,C1*
G36*
G01*
X-82800000Y-122320000D02*
X-82800000Y-121980000D01*
G75*
G02*
X-82660000Y-121840000I140000J0D01*
G01*
X-82380000Y-121840000D01*
G75*
G02*
X-82240000Y-121980000I0J-140000D01*
G01*
X-82240000Y-122320000D01*
G75*
G02*
X-82380000Y-122460000I-140000J0D01*
G01*
X-82660000Y-122460000D01*
G75*
G02*
X-82800000Y-122320000I0J140000D01*
G01*
G37*
G36*
G01*
X-83760000Y-122320000D02*
X-83760000Y-121980000D01*
G75*
G02*
X-83620000Y-121840000I140000J0D01*
G01*
X-83340000Y-121840000D01*
G75*
G02*
X-83200000Y-121980000I0J-140000D01*
G01*
X-83200000Y-122320000D01*
G75*
G02*
X-83340000Y-122460000I-140000J0D01*
G01*
X-83620000Y-122460000D01*
G75*
G02*
X-83760000Y-122320000I0J140000D01*
G01*
G37*
G04 #@! TD*
D11*
G04 #@! TO.C,J4*
X-72090000Y-148620000D03*
X-72090000Y-151160000D03*
X-74630000Y-148620000D03*
X-74630000Y-151160000D03*
X-77170000Y-148620000D03*
X-77170000Y-151160000D03*
X-79710000Y-148620000D03*
D12*
X-79710000Y-151160000D03*
G04 #@! TD*
G04 #@! TO.C,U1*
G36*
G01*
X-77870000Y-120740000D02*
X-77870000Y-119415000D01*
G75*
G02*
X-77795000Y-119340000I75000J0D01*
G01*
X-77645000Y-119340000D01*
G75*
G02*
X-77570000Y-119415000I0J-75000D01*
G01*
X-77570000Y-120740000D01*
G75*
G02*
X-77645000Y-120815000I-75000J0D01*
G01*
X-77795000Y-120815000D01*
G75*
G02*
X-77870000Y-120740000I0J75000D01*
G01*
G37*
G36*
G01*
X-77370000Y-120740000D02*
X-77370000Y-119415000D01*
G75*
G02*
X-77295000Y-119340000I75000J0D01*
G01*
X-77145000Y-119340000D01*
G75*
G02*
X-77070000Y-119415000I0J-75000D01*
G01*
X-77070000Y-120740000D01*
G75*
G02*
X-77145000Y-120815000I-75000J0D01*
G01*
X-77295000Y-120815000D01*
G75*
G02*
X-77370000Y-120740000I0J75000D01*
G01*
G37*
G36*
G01*
X-76870000Y-120740000D02*
X-76870000Y-119415000D01*
G75*
G02*
X-76795000Y-119340000I75000J0D01*
G01*
X-76645000Y-119340000D01*
G75*
G02*
X-76570000Y-119415000I0J-75000D01*
G01*
X-76570000Y-120740000D01*
G75*
G02*
X-76645000Y-120815000I-75000J0D01*
G01*
X-76795000Y-120815000D01*
G75*
G02*
X-76870000Y-120740000I0J75000D01*
G01*
G37*
G36*
G01*
X-76370000Y-120740000D02*
X-76370000Y-119415000D01*
G75*
G02*
X-76295000Y-119340000I75000J0D01*
G01*
X-76145000Y-119340000D01*
G75*
G02*
X-76070000Y-119415000I0J-75000D01*
G01*
X-76070000Y-120740000D01*
G75*
G02*
X-76145000Y-120815000I-75000J0D01*
G01*
X-76295000Y-120815000D01*
G75*
G02*
X-76370000Y-120740000I0J75000D01*
G01*
G37*
G36*
G01*
X-75870000Y-120740000D02*
X-75870000Y-119415000D01*
G75*
G02*
X-75795000Y-119340000I75000J0D01*
G01*
X-75645000Y-119340000D01*
G75*
G02*
X-75570000Y-119415000I0J-75000D01*
G01*
X-75570000Y-120740000D01*
G75*
G02*
X-75645000Y-120815000I-75000J0D01*
G01*
X-75795000Y-120815000D01*
G75*
G02*
X-75870000Y-120740000I0J75000D01*
G01*
G37*
G36*
G01*
X-75370000Y-120740000D02*
X-75370000Y-119415000D01*
G75*
G02*
X-75295000Y-119340000I75000J0D01*
G01*
X-75145000Y-119340000D01*
G75*
G02*
X-75070000Y-119415000I0J-75000D01*
G01*
X-75070000Y-120740000D01*
G75*
G02*
X-75145000Y-120815000I-75000J0D01*
G01*
X-75295000Y-120815000D01*
G75*
G02*
X-75370000Y-120740000I0J75000D01*
G01*
G37*
G36*
G01*
X-74870000Y-120740000D02*
X-74870000Y-119415000D01*
G75*
G02*
X-74795000Y-119340000I75000J0D01*
G01*
X-74645000Y-119340000D01*
G75*
G02*
X-74570000Y-119415000I0J-75000D01*
G01*
X-74570000Y-120740000D01*
G75*
G02*
X-74645000Y-120815000I-75000J0D01*
G01*
X-74795000Y-120815000D01*
G75*
G02*
X-74870000Y-120740000I0J75000D01*
G01*
G37*
G36*
G01*
X-74370000Y-120740000D02*
X-74370000Y-119415000D01*
G75*
G02*
X-74295000Y-119340000I75000J0D01*
G01*
X-74145000Y-119340000D01*
G75*
G02*
X-74070000Y-119415000I0J-75000D01*
G01*
X-74070000Y-120740000D01*
G75*
G02*
X-74145000Y-120815000I-75000J0D01*
G01*
X-74295000Y-120815000D01*
G75*
G02*
X-74370000Y-120740000I0J75000D01*
G01*
G37*
G36*
G01*
X-73870000Y-120740000D02*
X-73870000Y-119415000D01*
G75*
G02*
X-73795000Y-119340000I75000J0D01*
G01*
X-73645000Y-119340000D01*
G75*
G02*
X-73570000Y-119415000I0J-75000D01*
G01*
X-73570000Y-120740000D01*
G75*
G02*
X-73645000Y-120815000I-75000J0D01*
G01*
X-73795000Y-120815000D01*
G75*
G02*
X-73870000Y-120740000I0J75000D01*
G01*
G37*
G36*
G01*
X-73370000Y-120740000D02*
X-73370000Y-119415000D01*
G75*
G02*
X-73295000Y-119340000I75000J0D01*
G01*
X-73145000Y-119340000D01*
G75*
G02*
X-73070000Y-119415000I0J-75000D01*
G01*
X-73070000Y-120740000D01*
G75*
G02*
X-73145000Y-120815000I-75000J0D01*
G01*
X-73295000Y-120815000D01*
G75*
G02*
X-73370000Y-120740000I0J75000D01*
G01*
G37*
G36*
G01*
X-72870000Y-120740000D02*
X-72870000Y-119415000D01*
G75*
G02*
X-72795000Y-119340000I75000J0D01*
G01*
X-72645000Y-119340000D01*
G75*
G02*
X-72570000Y-119415000I0J-75000D01*
G01*
X-72570000Y-120740000D01*
G75*
G02*
X-72645000Y-120815000I-75000J0D01*
G01*
X-72795000Y-120815000D01*
G75*
G02*
X-72870000Y-120740000I0J75000D01*
G01*
G37*
G36*
G01*
X-72370000Y-120740000D02*
X-72370000Y-119415000D01*
G75*
G02*
X-72295000Y-119340000I75000J0D01*
G01*
X-72145000Y-119340000D01*
G75*
G02*
X-72070000Y-119415000I0J-75000D01*
G01*
X-72070000Y-120740000D01*
G75*
G02*
X-72145000Y-120815000I-75000J0D01*
G01*
X-72295000Y-120815000D01*
G75*
G02*
X-72370000Y-120740000I0J75000D01*
G01*
G37*
G36*
G01*
X-71545000Y-121565000D02*
X-71545000Y-121415000D01*
G75*
G02*
X-71470000Y-121340000I75000J0D01*
G01*
X-70145000Y-121340000D01*
G75*
G02*
X-70070000Y-121415000I0J-75000D01*
G01*
X-70070000Y-121565000D01*
G75*
G02*
X-70145000Y-121640000I-75000J0D01*
G01*
X-71470000Y-121640000D01*
G75*
G02*
X-71545000Y-121565000I0J75000D01*
G01*
G37*
G36*
G01*
X-71545000Y-122065000D02*
X-71545000Y-121915000D01*
G75*
G02*
X-71470000Y-121840000I75000J0D01*
G01*
X-70145000Y-121840000D01*
G75*
G02*
X-70070000Y-121915000I0J-75000D01*
G01*
X-70070000Y-122065000D01*
G75*
G02*
X-70145000Y-122140000I-75000J0D01*
G01*
X-71470000Y-122140000D01*
G75*
G02*
X-71545000Y-122065000I0J75000D01*
G01*
G37*
G36*
G01*
X-71545000Y-122565000D02*
X-71545000Y-122415000D01*
G75*
G02*
X-71470000Y-122340000I75000J0D01*
G01*
X-70145000Y-122340000D01*
G75*
G02*
X-70070000Y-122415000I0J-75000D01*
G01*
X-70070000Y-122565000D01*
G75*
G02*
X-70145000Y-122640000I-75000J0D01*
G01*
X-71470000Y-122640000D01*
G75*
G02*
X-71545000Y-122565000I0J75000D01*
G01*
G37*
G36*
G01*
X-71545000Y-123065000D02*
X-71545000Y-122915000D01*
G75*
G02*
X-71470000Y-122840000I75000J0D01*
G01*
X-70145000Y-122840000D01*
G75*
G02*
X-70070000Y-122915000I0J-75000D01*
G01*
X-70070000Y-123065000D01*
G75*
G02*
X-70145000Y-123140000I-75000J0D01*
G01*
X-71470000Y-123140000D01*
G75*
G02*
X-71545000Y-123065000I0J75000D01*
G01*
G37*
G36*
G01*
X-71545000Y-123565000D02*
X-71545000Y-123415000D01*
G75*
G02*
X-71470000Y-123340000I75000J0D01*
G01*
X-70145000Y-123340000D01*
G75*
G02*
X-70070000Y-123415000I0J-75000D01*
G01*
X-70070000Y-123565000D01*
G75*
G02*
X-70145000Y-123640000I-75000J0D01*
G01*
X-71470000Y-123640000D01*
G75*
G02*
X-71545000Y-123565000I0J75000D01*
G01*
G37*
G36*
G01*
X-71545000Y-124065000D02*
X-71545000Y-123915000D01*
G75*
G02*
X-71470000Y-123840000I75000J0D01*
G01*
X-70145000Y-123840000D01*
G75*
G02*
X-70070000Y-123915000I0J-75000D01*
G01*
X-70070000Y-124065000D01*
G75*
G02*
X-70145000Y-124140000I-75000J0D01*
G01*
X-71470000Y-124140000D01*
G75*
G02*
X-71545000Y-124065000I0J75000D01*
G01*
G37*
G36*
G01*
X-71545000Y-124565000D02*
X-71545000Y-124415000D01*
G75*
G02*
X-71470000Y-124340000I75000J0D01*
G01*
X-70145000Y-124340000D01*
G75*
G02*
X-70070000Y-124415000I0J-75000D01*
G01*
X-70070000Y-124565000D01*
G75*
G02*
X-70145000Y-124640000I-75000J0D01*
G01*
X-71470000Y-124640000D01*
G75*
G02*
X-71545000Y-124565000I0J75000D01*
G01*
G37*
G36*
G01*
X-71545000Y-125065000D02*
X-71545000Y-124915000D01*
G75*
G02*
X-71470000Y-124840000I75000J0D01*
G01*
X-70145000Y-124840000D01*
G75*
G02*
X-70070000Y-124915000I0J-75000D01*
G01*
X-70070000Y-125065000D01*
G75*
G02*
X-70145000Y-125140000I-75000J0D01*
G01*
X-71470000Y-125140000D01*
G75*
G02*
X-71545000Y-125065000I0J75000D01*
G01*
G37*
G36*
G01*
X-71545000Y-125565000D02*
X-71545000Y-125415000D01*
G75*
G02*
X-71470000Y-125340000I75000J0D01*
G01*
X-70145000Y-125340000D01*
G75*
G02*
X-70070000Y-125415000I0J-75000D01*
G01*
X-70070000Y-125565000D01*
G75*
G02*
X-70145000Y-125640000I-75000J0D01*
G01*
X-71470000Y-125640000D01*
G75*
G02*
X-71545000Y-125565000I0J75000D01*
G01*
G37*
G36*
G01*
X-71545000Y-126065000D02*
X-71545000Y-125915000D01*
G75*
G02*
X-71470000Y-125840000I75000J0D01*
G01*
X-70145000Y-125840000D01*
G75*
G02*
X-70070000Y-125915000I0J-75000D01*
G01*
X-70070000Y-126065000D01*
G75*
G02*
X-70145000Y-126140000I-75000J0D01*
G01*
X-71470000Y-126140000D01*
G75*
G02*
X-71545000Y-126065000I0J75000D01*
G01*
G37*
G36*
G01*
X-71545000Y-126565000D02*
X-71545000Y-126415000D01*
G75*
G02*
X-71470000Y-126340000I75000J0D01*
G01*
X-70145000Y-126340000D01*
G75*
G02*
X-70070000Y-126415000I0J-75000D01*
G01*
X-70070000Y-126565000D01*
G75*
G02*
X-70145000Y-126640000I-75000J0D01*
G01*
X-71470000Y-126640000D01*
G75*
G02*
X-71545000Y-126565000I0J75000D01*
G01*
G37*
G36*
G01*
X-71545000Y-127065000D02*
X-71545000Y-126915000D01*
G75*
G02*
X-71470000Y-126840000I75000J0D01*
G01*
X-70145000Y-126840000D01*
G75*
G02*
X-70070000Y-126915000I0J-75000D01*
G01*
X-70070000Y-127065000D01*
G75*
G02*
X-70145000Y-127140000I-75000J0D01*
G01*
X-71470000Y-127140000D01*
G75*
G02*
X-71545000Y-127065000I0J75000D01*
G01*
G37*
G36*
G01*
X-72370000Y-129065000D02*
X-72370000Y-127740000D01*
G75*
G02*
X-72295000Y-127665000I75000J0D01*
G01*
X-72145000Y-127665000D01*
G75*
G02*
X-72070000Y-127740000I0J-75000D01*
G01*
X-72070000Y-129065000D01*
G75*
G02*
X-72145000Y-129140000I-75000J0D01*
G01*
X-72295000Y-129140000D01*
G75*
G02*
X-72370000Y-129065000I0J75000D01*
G01*
G37*
G36*
G01*
X-72870000Y-129065000D02*
X-72870000Y-127740000D01*
G75*
G02*
X-72795000Y-127665000I75000J0D01*
G01*
X-72645000Y-127665000D01*
G75*
G02*
X-72570000Y-127740000I0J-75000D01*
G01*
X-72570000Y-129065000D01*
G75*
G02*
X-72645000Y-129140000I-75000J0D01*
G01*
X-72795000Y-129140000D01*
G75*
G02*
X-72870000Y-129065000I0J75000D01*
G01*
G37*
G36*
G01*
X-73370000Y-129065000D02*
X-73370000Y-127740000D01*
G75*
G02*
X-73295000Y-127665000I75000J0D01*
G01*
X-73145000Y-127665000D01*
G75*
G02*
X-73070000Y-127740000I0J-75000D01*
G01*
X-73070000Y-129065000D01*
G75*
G02*
X-73145000Y-129140000I-75000J0D01*
G01*
X-73295000Y-129140000D01*
G75*
G02*
X-73370000Y-129065000I0J75000D01*
G01*
G37*
G36*
G01*
X-73870000Y-129065000D02*
X-73870000Y-127740000D01*
G75*
G02*
X-73795000Y-127665000I75000J0D01*
G01*
X-73645000Y-127665000D01*
G75*
G02*
X-73570000Y-127740000I0J-75000D01*
G01*
X-73570000Y-129065000D01*
G75*
G02*
X-73645000Y-129140000I-75000J0D01*
G01*
X-73795000Y-129140000D01*
G75*
G02*
X-73870000Y-129065000I0J75000D01*
G01*
G37*
G36*
G01*
X-74370000Y-129065000D02*
X-74370000Y-127740000D01*
G75*
G02*
X-74295000Y-127665000I75000J0D01*
G01*
X-74145000Y-127665000D01*
G75*
G02*
X-74070000Y-127740000I0J-75000D01*
G01*
X-74070000Y-129065000D01*
G75*
G02*
X-74145000Y-129140000I-75000J0D01*
G01*
X-74295000Y-129140000D01*
G75*
G02*
X-74370000Y-129065000I0J75000D01*
G01*
G37*
G36*
G01*
X-74870000Y-129065000D02*
X-74870000Y-127740000D01*
G75*
G02*
X-74795000Y-127665000I75000J0D01*
G01*
X-74645000Y-127665000D01*
G75*
G02*
X-74570000Y-127740000I0J-75000D01*
G01*
X-74570000Y-129065000D01*
G75*
G02*
X-74645000Y-129140000I-75000J0D01*
G01*
X-74795000Y-129140000D01*
G75*
G02*
X-74870000Y-129065000I0J75000D01*
G01*
G37*
G36*
G01*
X-75370000Y-129065000D02*
X-75370000Y-127740000D01*
G75*
G02*
X-75295000Y-127665000I75000J0D01*
G01*
X-75145000Y-127665000D01*
G75*
G02*
X-75070000Y-127740000I0J-75000D01*
G01*
X-75070000Y-129065000D01*
G75*
G02*
X-75145000Y-129140000I-75000J0D01*
G01*
X-75295000Y-129140000D01*
G75*
G02*
X-75370000Y-129065000I0J75000D01*
G01*
G37*
G36*
G01*
X-75870000Y-129065000D02*
X-75870000Y-127740000D01*
G75*
G02*
X-75795000Y-127665000I75000J0D01*
G01*
X-75645000Y-127665000D01*
G75*
G02*
X-75570000Y-127740000I0J-75000D01*
G01*
X-75570000Y-129065000D01*
G75*
G02*
X-75645000Y-129140000I-75000J0D01*
G01*
X-75795000Y-129140000D01*
G75*
G02*
X-75870000Y-129065000I0J75000D01*
G01*
G37*
G36*
G01*
X-76370000Y-129065000D02*
X-76370000Y-127740000D01*
G75*
G02*
X-76295000Y-127665000I75000J0D01*
G01*
X-76145000Y-127665000D01*
G75*
G02*
X-76070000Y-127740000I0J-75000D01*
G01*
X-76070000Y-129065000D01*
G75*
G02*
X-76145000Y-129140000I-75000J0D01*
G01*
X-76295000Y-129140000D01*
G75*
G02*
X-76370000Y-129065000I0J75000D01*
G01*
G37*
G36*
G01*
X-76870000Y-129065000D02*
X-76870000Y-127740000D01*
G75*
G02*
X-76795000Y-127665000I75000J0D01*
G01*
X-76645000Y-127665000D01*
G75*
G02*
X-76570000Y-127740000I0J-75000D01*
G01*
X-76570000Y-129065000D01*
G75*
G02*
X-76645000Y-129140000I-75000J0D01*
G01*
X-76795000Y-129140000D01*
G75*
G02*
X-76870000Y-129065000I0J75000D01*
G01*
G37*
G36*
G01*
X-77370000Y-129065000D02*
X-77370000Y-127740000D01*
G75*
G02*
X-77295000Y-127665000I75000J0D01*
G01*
X-77145000Y-127665000D01*
G75*
G02*
X-77070000Y-127740000I0J-75000D01*
G01*
X-77070000Y-129065000D01*
G75*
G02*
X-77145000Y-129140000I-75000J0D01*
G01*
X-77295000Y-129140000D01*
G75*
G02*
X-77370000Y-129065000I0J75000D01*
G01*
G37*
G36*
G01*
X-77870000Y-129065000D02*
X-77870000Y-127740000D01*
G75*
G02*
X-77795000Y-127665000I75000J0D01*
G01*
X-77645000Y-127665000D01*
G75*
G02*
X-77570000Y-127740000I0J-75000D01*
G01*
X-77570000Y-129065000D01*
G75*
G02*
X-77645000Y-129140000I-75000J0D01*
G01*
X-77795000Y-129140000D01*
G75*
G02*
X-77870000Y-129065000I0J75000D01*
G01*
G37*
G36*
G01*
X-79870000Y-127065000D02*
X-79870000Y-126915000D01*
G75*
G02*
X-79795000Y-126840000I75000J0D01*
G01*
X-78470000Y-126840000D01*
G75*
G02*
X-78395000Y-126915000I0J-75000D01*
G01*
X-78395000Y-127065000D01*
G75*
G02*
X-78470000Y-127140000I-75000J0D01*
G01*
X-79795000Y-127140000D01*
G75*
G02*
X-79870000Y-127065000I0J75000D01*
G01*
G37*
G36*
G01*
X-79870000Y-126565000D02*
X-79870000Y-126415000D01*
G75*
G02*
X-79795000Y-126340000I75000J0D01*
G01*
X-78470000Y-126340000D01*
G75*
G02*
X-78395000Y-126415000I0J-75000D01*
G01*
X-78395000Y-126565000D01*
G75*
G02*
X-78470000Y-126640000I-75000J0D01*
G01*
X-79795000Y-126640000D01*
G75*
G02*
X-79870000Y-126565000I0J75000D01*
G01*
G37*
G36*
G01*
X-79870000Y-126065000D02*
X-79870000Y-125915000D01*
G75*
G02*
X-79795000Y-125840000I75000J0D01*
G01*
X-78470000Y-125840000D01*
G75*
G02*
X-78395000Y-125915000I0J-75000D01*
G01*
X-78395000Y-126065000D01*
G75*
G02*
X-78470000Y-126140000I-75000J0D01*
G01*
X-79795000Y-126140000D01*
G75*
G02*
X-79870000Y-126065000I0J75000D01*
G01*
G37*
G36*
G01*
X-79870000Y-125565000D02*
X-79870000Y-125415000D01*
G75*
G02*
X-79795000Y-125340000I75000J0D01*
G01*
X-78470000Y-125340000D01*
G75*
G02*
X-78395000Y-125415000I0J-75000D01*
G01*
X-78395000Y-125565000D01*
G75*
G02*
X-78470000Y-125640000I-75000J0D01*
G01*
X-79795000Y-125640000D01*
G75*
G02*
X-79870000Y-125565000I0J75000D01*
G01*
G37*
G36*
G01*
X-79870000Y-125065000D02*
X-79870000Y-124915000D01*
G75*
G02*
X-79795000Y-124840000I75000J0D01*
G01*
X-78470000Y-124840000D01*
G75*
G02*
X-78395000Y-124915000I0J-75000D01*
G01*
X-78395000Y-125065000D01*
G75*
G02*
X-78470000Y-125140000I-75000J0D01*
G01*
X-79795000Y-125140000D01*
G75*
G02*
X-79870000Y-125065000I0J75000D01*
G01*
G37*
G36*
G01*
X-79870000Y-124565000D02*
X-79870000Y-124415000D01*
G75*
G02*
X-79795000Y-124340000I75000J0D01*
G01*
X-78470000Y-124340000D01*
G75*
G02*
X-78395000Y-124415000I0J-75000D01*
G01*
X-78395000Y-124565000D01*
G75*
G02*
X-78470000Y-124640000I-75000J0D01*
G01*
X-79795000Y-124640000D01*
G75*
G02*
X-79870000Y-124565000I0J75000D01*
G01*
G37*
G36*
G01*
X-79870000Y-124065000D02*
X-79870000Y-123915000D01*
G75*
G02*
X-79795000Y-123840000I75000J0D01*
G01*
X-78470000Y-123840000D01*
G75*
G02*
X-78395000Y-123915000I0J-75000D01*
G01*
X-78395000Y-124065000D01*
G75*
G02*
X-78470000Y-124140000I-75000J0D01*
G01*
X-79795000Y-124140000D01*
G75*
G02*
X-79870000Y-124065000I0J75000D01*
G01*
G37*
G36*
G01*
X-79870000Y-123565000D02*
X-79870000Y-123415000D01*
G75*
G02*
X-79795000Y-123340000I75000J0D01*
G01*
X-78470000Y-123340000D01*
G75*
G02*
X-78395000Y-123415000I0J-75000D01*
G01*
X-78395000Y-123565000D01*
G75*
G02*
X-78470000Y-123640000I-75000J0D01*
G01*
X-79795000Y-123640000D01*
G75*
G02*
X-79870000Y-123565000I0J75000D01*
G01*
G37*
G36*
G01*
X-79870000Y-123065000D02*
X-79870000Y-122915000D01*
G75*
G02*
X-79795000Y-122840000I75000J0D01*
G01*
X-78470000Y-122840000D01*
G75*
G02*
X-78395000Y-122915000I0J-75000D01*
G01*
X-78395000Y-123065000D01*
G75*
G02*
X-78470000Y-123140000I-75000J0D01*
G01*
X-79795000Y-123140000D01*
G75*
G02*
X-79870000Y-123065000I0J75000D01*
G01*
G37*
G36*
G01*
X-79870000Y-122565000D02*
X-79870000Y-122415000D01*
G75*
G02*
X-79795000Y-122340000I75000J0D01*
G01*
X-78470000Y-122340000D01*
G75*
G02*
X-78395000Y-122415000I0J-75000D01*
G01*
X-78395000Y-122565000D01*
G75*
G02*
X-78470000Y-122640000I-75000J0D01*
G01*
X-79795000Y-122640000D01*
G75*
G02*
X-79870000Y-122565000I0J75000D01*
G01*
G37*
G36*
G01*
X-79870000Y-122065000D02*
X-79870000Y-121915000D01*
G75*
G02*
X-79795000Y-121840000I75000J0D01*
G01*
X-78470000Y-121840000D01*
G75*
G02*
X-78395000Y-121915000I0J-75000D01*
G01*
X-78395000Y-122065000D01*
G75*
G02*
X-78470000Y-122140000I-75000J0D01*
G01*
X-79795000Y-122140000D01*
G75*
G02*
X-79870000Y-122065000I0J75000D01*
G01*
G37*
G36*
G01*
X-79870000Y-121565000D02*
X-79870000Y-121415000D01*
G75*
G02*
X-79795000Y-121340000I75000J0D01*
G01*
X-78470000Y-121340000D01*
G75*
G02*
X-78395000Y-121415000I0J-75000D01*
G01*
X-78395000Y-121565000D01*
G75*
G02*
X-78470000Y-121640000I-75000J0D01*
G01*
X-79795000Y-121640000D01*
G75*
G02*
X-79870000Y-121565000I0J75000D01*
G01*
G37*
G04 #@! TD*
D30*
G04 #@! TO.C,U4*
X-75750000Y-142690000D03*
D31*
X-71850000Y-140785000D03*
X-71850000Y-142055000D03*
X-71850000Y-143325000D03*
X-71850000Y-144595000D03*
X-79650000Y-144595000D03*
X-79650000Y-143325000D03*
X-79650000Y-142055000D03*
X-79650000Y-140785000D03*
G04 #@! TD*
D32*
G04 #@! TO.C,U3*
X-73148000Y-134365000D03*
X-73148000Y-135635000D03*
X-73148000Y-136905000D03*
X-73148000Y-138175000D03*
X-78572000Y-138175000D03*
X-78572000Y-136905000D03*
X-78572000Y-135635000D03*
X-78572000Y-134365000D03*
G04 #@! TD*
G04 #@! TO.C,R11*
G36*
G01*
X-70775000Y-141750000D02*
X-70405000Y-141750000D01*
G75*
G02*
X-70270000Y-141885000I0J-135000D01*
G01*
X-70270000Y-142155000D01*
G75*
G02*
X-70405000Y-142290000I-135000J0D01*
G01*
X-70775000Y-142290000D01*
G75*
G02*
X-70910000Y-142155000I0J135000D01*
G01*
X-70910000Y-141885000D01*
G75*
G02*
X-70775000Y-141750000I135000J0D01*
G01*
G37*
G36*
G01*
X-70775000Y-140730000D02*
X-70405000Y-140730000D01*
G75*
G02*
X-70270000Y-140865000I0J-135000D01*
G01*
X-70270000Y-141135000D01*
G75*
G02*
X-70405000Y-141270000I-135000J0D01*
G01*
X-70775000Y-141270000D01*
G75*
G02*
X-70910000Y-141135000I0J135000D01*
G01*
X-70910000Y-140865000D01*
G75*
G02*
X-70775000Y-140730000I135000J0D01*
G01*
G37*
G04 #@! TD*
G04 #@! TO.C,R10*
G36*
G01*
X-81115000Y-143050000D02*
X-80745000Y-143050000D01*
G75*
G02*
X-80610000Y-143185000I0J-135000D01*
G01*
X-80610000Y-143455000D01*
G75*
G02*
X-80745000Y-143590000I-135000J0D01*
G01*
X-81115000Y-143590000D01*
G75*
G02*
X-81250000Y-143455000I0J135000D01*
G01*
X-81250000Y-143185000D01*
G75*
G02*
X-81115000Y-143050000I135000J0D01*
G01*
G37*
G36*
G01*
X-81115000Y-142030000D02*
X-80745000Y-142030000D01*
G75*
G02*
X-80610000Y-142165000I0J-135000D01*
G01*
X-80610000Y-142435000D01*
G75*
G02*
X-80745000Y-142570000I-135000J0D01*
G01*
X-81115000Y-142570000D01*
G75*
G02*
X-81250000Y-142435000I0J135000D01*
G01*
X-81250000Y-142165000D01*
G75*
G02*
X-81115000Y-142030000I135000J0D01*
G01*
G37*
G04 #@! TD*
G04 #@! TO.C,R9*
G36*
G01*
X-71765000Y-135370000D02*
X-71395000Y-135370000D01*
G75*
G02*
X-71260000Y-135505000I0J-135000D01*
G01*
X-71260000Y-135775000D01*
G75*
G02*
X-71395000Y-135910000I-135000J0D01*
G01*
X-71765000Y-135910000D01*
G75*
G02*
X-71900000Y-135775000I0J135000D01*
G01*
X-71900000Y-135505000D01*
G75*
G02*
X-71765000Y-135370000I135000J0D01*
G01*
G37*
G36*
G01*
X-71765000Y-134350000D02*
X-71395000Y-134350000D01*
G75*
G02*
X-71260000Y-134485000I0J-135000D01*
G01*
X-71260000Y-134755000D01*
G75*
G02*
X-71395000Y-134890000I-135000J0D01*
G01*
X-71765000Y-134890000D01*
G75*
G02*
X-71900000Y-134755000I0J135000D01*
G01*
X-71900000Y-134485000D01*
G75*
G02*
X-71765000Y-134350000I135000J0D01*
G01*
G37*
G04 #@! TD*
G04 #@! TO.C,R8*
G36*
G01*
X-80355000Y-137480000D02*
X-79985000Y-137480000D01*
G75*
G02*
X-79850000Y-137615000I0J-135000D01*
G01*
X-79850000Y-137885000D01*
G75*
G02*
X-79985000Y-138020000I-135000J0D01*
G01*
X-80355000Y-138020000D01*
G75*
G02*
X-80490000Y-137885000I0J135000D01*
G01*
X-80490000Y-137615000D01*
G75*
G02*
X-80355000Y-137480000I135000J0D01*
G01*
G37*
G36*
G01*
X-80355000Y-136460000D02*
X-79985000Y-136460000D01*
G75*
G02*
X-79850000Y-136595000I0J-135000D01*
G01*
X-79850000Y-136865000D01*
G75*
G02*
X-79985000Y-137000000I-135000J0D01*
G01*
X-80355000Y-137000000D01*
G75*
G02*
X-80490000Y-136865000I0J135000D01*
G01*
X-80490000Y-136595000D01*
G75*
G02*
X-80355000Y-136460000I135000J0D01*
G01*
G37*
G04 #@! TD*
G04 #@! TO.C,C12*
G36*
G01*
X-70950000Y-139020000D02*
X-70950000Y-138680000D01*
G75*
G02*
X-70810000Y-138540000I140000J0D01*
G01*
X-70530000Y-138540000D01*
G75*
G02*
X-70390000Y-138680000I0J-140000D01*
G01*
X-70390000Y-139020000D01*
G75*
G02*
X-70530000Y-139160000I-140000J0D01*
G01*
X-70810000Y-139160000D01*
G75*
G02*
X-70950000Y-139020000I0J140000D01*
G01*
G37*
G36*
G01*
X-71910000Y-139020000D02*
X-71910000Y-138680000D01*
G75*
G02*
X-71770000Y-138540000I140000J0D01*
G01*
X-71490000Y-138540000D01*
G75*
G02*
X-71350000Y-138680000I0J-140000D01*
G01*
X-71350000Y-139020000D01*
G75*
G02*
X-71490000Y-139160000I-140000J0D01*
G01*
X-71770000Y-139160000D01*
G75*
G02*
X-71910000Y-139020000I0J140000D01*
G01*
G37*
G04 #@! TD*
G04 #@! TO.C,C11*
G36*
G01*
X-72830000Y-133010000D02*
X-72830000Y-132670000D01*
G75*
G02*
X-72690000Y-132530000I140000J0D01*
G01*
X-72410000Y-132530000D01*
G75*
G02*
X-72270000Y-132670000I0J-140000D01*
G01*
X-72270000Y-133010000D01*
G75*
G02*
X-72410000Y-133150000I-140000J0D01*
G01*
X-72690000Y-133150000D01*
G75*
G02*
X-72830000Y-133010000I0J140000D01*
G01*
G37*
G36*
G01*
X-73790000Y-133010000D02*
X-73790000Y-132670000D01*
G75*
G02*
X-73650000Y-132530000I140000J0D01*
G01*
X-73370000Y-132530000D01*
G75*
G02*
X-73230000Y-132670000I0J-140000D01*
G01*
X-73230000Y-133010000D01*
G75*
G02*
X-73370000Y-133150000I-140000J0D01*
G01*
X-73650000Y-133150000D01*
G75*
G02*
X-73790000Y-133010000I0J140000D01*
G01*
G37*
G04 #@! TD*
G04 #@! TO.C,C26*
G36*
G01*
X-82260000Y-150080000D02*
X-81920000Y-150080000D01*
G75*
G02*
X-81780000Y-150220000I0J-140000D01*
G01*
X-81780000Y-150500000D01*
G75*
G02*
X-81920000Y-150640000I-140000J0D01*
G01*
X-82260000Y-150640000D01*
G75*
G02*
X-82400000Y-150500000I0J140000D01*
G01*
X-82400000Y-150220000D01*
G75*
G02*
X-82260000Y-150080000I140000J0D01*
G01*
G37*
G36*
G01*
X-82260000Y-149120000D02*
X-81920000Y-149120000D01*
G75*
G02*
X-81780000Y-149260000I0J-140000D01*
G01*
X-81780000Y-149540000D01*
G75*
G02*
X-81920000Y-149680000I-140000J0D01*
G01*
X-82260000Y-149680000D01*
G75*
G02*
X-82400000Y-149540000I0J140000D01*
G01*
X-82400000Y-149260000D01*
G75*
G02*
X-82260000Y-149120000I140000J0D01*
G01*
G37*
G04 #@! TD*
M02*
