G04 #@! TF.GenerationSoftware,KiCad,Pcbnew,(5.1.12)-1*
G04 #@! TF.CreationDate,2024-11-16T18:41:12+01:00*
G04 #@! TF.ProjectId,C7W1B1V1.0,43375731-4231-4563-912e-302e6b696361,rev?*
G04 #@! TF.SameCoordinates,Original*
G04 #@! TF.FileFunction,Legend,Top*
G04 #@! TF.FilePolarity,Positive*
%FSLAX46Y46*%
G04 Gerber Fmt 4.6, Leading zero omitted, Abs format (unit mm)*
G04 Created by KiCad (PCBNEW (5.1.12)-1) date 2024-11-16 18:41:12*
%MOMM*%
%LPD*%
G01*
G04 APERTURE LIST*
%ADD10C,0.150000*%
%ADD11C,0.250000*%
%ADD12C,0.200000*%
%ADD13C,0.120000*%
%ADD14C,0.100000*%
%ADD15C,0.254000*%
%ADD16R,3.450000X4.350000*%
%ADD17R,0.950000X0.450000*%
%ADD18R,1.525000X0.700000*%
%ADD19O,1.700000X1.700000*%
%ADD20R,1.700000X1.700000*%
%ADD21C,2.700000*%
%ADD22R,1.750000X2.500000*%
%ADD23R,0.800000X0.400000*%
%ADD24R,0.990000X0.300000*%
%ADD25C,0.650000*%
%ADD26O,2.304000X1.204000*%
%ADD27R,0.600000X1.150000*%
%ADD28C,3.000000*%
%ADD29R,3.000000X3.000000*%
%ADD30R,1.200000X0.600000*%
%ADD31R,0.720000X1.050000*%
%ADD32R,0.350000X0.300000*%
%ADD33R,1.700000X2.200000*%
%ADD34R,0.850000X0.400000*%
%ADD35R,0.600000X0.450000*%
%ADD36R,0.900000X1.200000*%
%ADD37R,0.400000X0.400000*%
%ADD38R,1.100000X0.600000*%
G04 APERTURE END LIST*
D10*
X-49860952Y-92881428D02*
X-49099047Y-92881428D01*
X-61380952Y-95131428D02*
X-60619047Y-95131428D01*
X-61000000Y-95512380D02*
X-61000000Y-94750476D01*
X-84745238Y-154342380D02*
X-84745238Y-153342380D01*
X-84364285Y-153342380D01*
X-84269047Y-153390000D01*
X-84221428Y-153437619D01*
X-84173809Y-153532857D01*
X-84173809Y-153675714D01*
X-84221428Y-153770952D01*
X-84269047Y-153818571D01*
X-84364285Y-153866190D01*
X-84745238Y-153866190D01*
X-83316666Y-153675714D02*
X-83316666Y-154342380D01*
X-83745238Y-153675714D02*
X-83745238Y-154199523D01*
X-83697619Y-154294761D01*
X-83602380Y-154342380D01*
X-83459523Y-154342380D01*
X-83364285Y-154294761D01*
X-83316666Y-154247142D01*
X-82888095Y-154294761D02*
X-82792857Y-154342380D01*
X-82602380Y-154342380D01*
X-82507142Y-154294761D01*
X-82459523Y-154199523D01*
X-82459523Y-154151904D01*
X-82507142Y-154056666D01*
X-82602380Y-154009047D01*
X-82745238Y-154009047D01*
X-82840476Y-153961428D01*
X-82888095Y-153866190D01*
X-82888095Y-153818571D01*
X-82840476Y-153723333D01*
X-82745238Y-153675714D01*
X-82602380Y-153675714D01*
X-82507142Y-153723333D01*
X-82126190Y-153675714D02*
X-81602380Y-153675714D01*
X-82126190Y-154342380D01*
X-81602380Y-154342380D01*
X-80840476Y-154294761D02*
X-80935714Y-154342380D01*
X-81126190Y-154342380D01*
X-81221428Y-154294761D01*
X-81269047Y-154199523D01*
X-81269047Y-153818571D01*
X-81221428Y-153723333D01*
X-81126190Y-153675714D01*
X-80935714Y-153675714D01*
X-80840476Y-153723333D01*
X-80792857Y-153818571D01*
X-80792857Y-153913809D01*
X-81269047Y-154009047D01*
X-80364285Y-154342380D02*
X-80364285Y-153342380D01*
X-80269047Y-153961428D02*
X-79983333Y-154342380D01*
X-79983333Y-153675714D02*
X-80364285Y-154056666D01*
X-79507142Y-153342380D02*
X-79602380Y-153532857D01*
X-79126190Y-154294761D02*
X-79030952Y-154342380D01*
X-78840476Y-154342380D01*
X-78745238Y-154294761D01*
X-78697619Y-154199523D01*
X-78697619Y-154151904D01*
X-78745238Y-154056666D01*
X-78840476Y-154009047D01*
X-78983333Y-154009047D01*
X-79078571Y-153961428D01*
X-79126190Y-153866190D01*
X-79126190Y-153818571D01*
X-79078571Y-153723333D01*
X-78983333Y-153675714D01*
X-78840476Y-153675714D01*
X-78745238Y-153723333D01*
X-77507142Y-154342380D02*
X-77507142Y-153342380D01*
X-77030952Y-153675714D02*
X-77030952Y-154342380D01*
X-77030952Y-153770952D02*
X-76983333Y-153723333D01*
X-76888095Y-153675714D01*
X-76745238Y-153675714D01*
X-76650000Y-153723333D01*
X-76602380Y-153818571D01*
X-76602380Y-154342380D01*
X-75697619Y-154294761D02*
X-75792857Y-154342380D01*
X-75983333Y-154342380D01*
X-76078571Y-154294761D01*
X-76126190Y-154247142D01*
X-76173809Y-154151904D01*
X-76173809Y-153866190D01*
X-76126190Y-153770952D01*
X-76078571Y-153723333D01*
X-75983333Y-153675714D01*
X-75792857Y-153675714D01*
X-75697619Y-153723333D01*
X-75126190Y-154342380D02*
X-75221428Y-154294761D01*
X-75269047Y-154247142D01*
X-75316666Y-154151904D01*
X-75316666Y-153866190D01*
X-75269047Y-153770952D01*
X-75221428Y-153723333D01*
X-75126190Y-153675714D01*
X-74983333Y-153675714D01*
X-74888095Y-153723333D01*
X-74840476Y-153770952D01*
X-74792857Y-153866190D01*
X-74792857Y-154151904D01*
X-74840476Y-154247142D01*
X-74888095Y-154294761D01*
X-74983333Y-154342380D01*
X-75126190Y-154342380D01*
X-74364285Y-154342380D02*
X-74364285Y-153675714D01*
X-74364285Y-153866190D02*
X-74316666Y-153770952D01*
X-74269047Y-153723333D01*
X-74173809Y-153675714D01*
X-74078571Y-153675714D01*
X-73745238Y-153675714D02*
X-73745238Y-154675714D01*
X-73745238Y-153723333D02*
X-73650000Y-153675714D01*
X-73459523Y-153675714D01*
X-73364285Y-153723333D01*
X-73316666Y-153770952D01*
X-73269047Y-153866190D01*
X-73269047Y-154151904D01*
X-73316666Y-154247142D01*
X-73364285Y-154294761D01*
X-73459523Y-154342380D01*
X-73650000Y-154342380D01*
X-73745238Y-154294761D01*
X-72697619Y-154342380D02*
X-72792857Y-154294761D01*
X-72840476Y-154247142D01*
X-72888095Y-154151904D01*
X-72888095Y-153866190D01*
X-72840476Y-153770952D01*
X-72792857Y-153723333D01*
X-72697619Y-153675714D01*
X-72554761Y-153675714D01*
X-72459523Y-153723333D01*
X-72411904Y-153770952D01*
X-72364285Y-153866190D01*
X-72364285Y-154151904D01*
X-72411904Y-154247142D01*
X-72459523Y-154294761D01*
X-72554761Y-154342380D01*
X-72697619Y-154342380D01*
X-71935714Y-154342380D02*
X-71935714Y-153675714D01*
X-71935714Y-153866190D02*
X-71888095Y-153770952D01*
X-71840476Y-153723333D01*
X-71745238Y-153675714D01*
X-71650000Y-153675714D01*
X-70888095Y-154342380D02*
X-70888095Y-153818571D01*
X-70935714Y-153723333D01*
X-71030952Y-153675714D01*
X-71221428Y-153675714D01*
X-71316666Y-153723333D01*
X-70888095Y-154294761D02*
X-70983333Y-154342380D01*
X-71221428Y-154342380D01*
X-71316666Y-154294761D01*
X-71364285Y-154199523D01*
X-71364285Y-154104285D01*
X-71316666Y-154009047D01*
X-71221428Y-153961428D01*
X-70983333Y-153961428D01*
X-70888095Y-153913809D01*
X-70554761Y-153675714D02*
X-70173809Y-153675714D01*
X-70411904Y-153342380D02*
X-70411904Y-154199523D01*
X-70364285Y-154294761D01*
X-70269047Y-154342380D01*
X-70173809Y-154342380D01*
X-69459523Y-154294761D02*
X-69554761Y-154342380D01*
X-69745238Y-154342380D01*
X-69840476Y-154294761D01*
X-69888095Y-154199523D01*
X-69888095Y-153818571D01*
X-69840476Y-153723333D01*
X-69745238Y-153675714D01*
X-69554761Y-153675714D01*
X-69459523Y-153723333D01*
X-69411904Y-153818571D01*
X-69411904Y-153913809D01*
X-69888095Y-154009047D01*
X-68554761Y-154342380D02*
X-68554761Y-153342380D01*
X-68554761Y-154294761D02*
X-68650000Y-154342380D01*
X-68840476Y-154342380D01*
X-68935714Y-154294761D01*
X-68983333Y-154247142D01*
X-69030952Y-154151904D01*
X-69030952Y-153866190D01*
X-68983333Y-153770952D01*
X-68935714Y-153723333D01*
X-68840476Y-153675714D01*
X-68650000Y-153675714D01*
X-68554761Y-153723333D01*
X-80739523Y-99982142D02*
X-80787142Y-100029761D01*
X-80930000Y-100077380D01*
X-81025238Y-100077380D01*
X-81168095Y-100029761D01*
X-81263333Y-99934523D01*
X-81310952Y-99839285D01*
X-81358571Y-99648809D01*
X-81358571Y-99505952D01*
X-81310952Y-99315476D01*
X-81263333Y-99220238D01*
X-81168095Y-99125000D01*
X-81025238Y-99077380D01*
X-80930000Y-99077380D01*
X-80787142Y-99125000D01*
X-80739523Y-99172619D01*
X-80406190Y-99077380D02*
X-79739523Y-99077380D01*
X-80168095Y-100077380D01*
X-79453809Y-99077380D02*
X-79215714Y-100077380D01*
X-79025238Y-99363095D01*
X-78834761Y-100077380D01*
X-78596666Y-99077380D01*
X-77691904Y-100077380D02*
X-78263333Y-100077380D01*
X-77977619Y-100077380D02*
X-77977619Y-99077380D01*
X-78072857Y-99220238D01*
X-78168095Y-99315476D01*
X-78263333Y-99363095D01*
X-76930000Y-99553571D02*
X-76787142Y-99601190D01*
X-76739523Y-99648809D01*
X-76691904Y-99744047D01*
X-76691904Y-99886904D01*
X-76739523Y-99982142D01*
X-76787142Y-100029761D01*
X-76882380Y-100077380D01*
X-77263333Y-100077380D01*
X-77263333Y-99077380D01*
X-76930000Y-99077380D01*
X-76834761Y-99125000D01*
X-76787142Y-99172619D01*
X-76739523Y-99267857D01*
X-76739523Y-99363095D01*
X-76787142Y-99458333D01*
X-76834761Y-99505952D01*
X-76930000Y-99553571D01*
X-77263333Y-99553571D01*
X-75739523Y-100077380D02*
X-76310952Y-100077380D01*
X-76025238Y-100077380D02*
X-76025238Y-99077380D01*
X-76120476Y-99220238D01*
X-76215714Y-99315476D01*
X-76310952Y-99363095D01*
X-75453809Y-99077380D02*
X-75120476Y-100077380D01*
X-74787142Y-99077380D01*
X-73930000Y-100077380D02*
X-74501428Y-100077380D01*
X-74215714Y-100077380D02*
X-74215714Y-99077380D01*
X-74310952Y-99220238D01*
X-74406190Y-99315476D01*
X-74501428Y-99363095D01*
X-73501428Y-99982142D02*
X-73453809Y-100029761D01*
X-73501428Y-100077380D01*
X-73549047Y-100029761D01*
X-73501428Y-99982142D01*
X-73501428Y-100077380D01*
X-72834761Y-99077380D02*
X-72739523Y-99077380D01*
X-72644285Y-99125000D01*
X-72596666Y-99172619D01*
X-72549047Y-99267857D01*
X-72501428Y-99458333D01*
X-72501428Y-99696428D01*
X-72549047Y-99886904D01*
X-72596666Y-99982142D01*
X-72644285Y-100029761D01*
X-72739523Y-100077380D01*
X-72834761Y-100077380D01*
X-72930000Y-100029761D01*
X-72977619Y-99982142D01*
X-73025238Y-99886904D01*
X-73072857Y-99696428D01*
X-73072857Y-99458333D01*
X-73025238Y-99267857D01*
X-72977619Y-99172619D01*
X-72930000Y-99125000D01*
X-72834761Y-99077380D01*
X-85477619Y-101679761D02*
X-85334761Y-101727380D01*
X-85096666Y-101727380D01*
X-85001428Y-101679761D01*
X-84953809Y-101632142D01*
X-84906190Y-101536904D01*
X-84906190Y-101441666D01*
X-84953809Y-101346428D01*
X-85001428Y-101298809D01*
X-85096666Y-101251190D01*
X-85287142Y-101203571D01*
X-85382380Y-101155952D01*
X-85430000Y-101108333D01*
X-85477619Y-101013095D01*
X-85477619Y-100917857D01*
X-85430000Y-100822619D01*
X-85382380Y-100775000D01*
X-85287142Y-100727380D01*
X-85049047Y-100727380D01*
X-84906190Y-100775000D01*
X-84477619Y-101727380D02*
X-84477619Y-101060714D01*
X-84477619Y-100727380D02*
X-84525238Y-100775000D01*
X-84477619Y-100822619D01*
X-84430000Y-100775000D01*
X-84477619Y-100727380D01*
X-84477619Y-100822619D01*
X-84001428Y-101727380D02*
X-84001428Y-101060714D01*
X-84001428Y-101155952D02*
X-83953809Y-101108333D01*
X-83858571Y-101060714D01*
X-83715714Y-101060714D01*
X-83620476Y-101108333D01*
X-83572857Y-101203571D01*
X-83572857Y-101727380D01*
X-83572857Y-101203571D02*
X-83525238Y-101108333D01*
X-83430000Y-101060714D01*
X-83287142Y-101060714D01*
X-83191904Y-101108333D01*
X-83144285Y-101203571D01*
X-83144285Y-101727380D01*
X-82668095Y-101060714D02*
X-82668095Y-102060714D01*
X-82668095Y-101108333D02*
X-82572857Y-101060714D01*
X-82382380Y-101060714D01*
X-82287142Y-101108333D01*
X-82239523Y-101155952D01*
X-82191904Y-101251190D01*
X-82191904Y-101536904D01*
X-82239523Y-101632142D01*
X-82287142Y-101679761D01*
X-82382380Y-101727380D01*
X-82572857Y-101727380D01*
X-82668095Y-101679761D01*
X-81620476Y-101727380D02*
X-81715714Y-101679761D01*
X-81763333Y-101584523D01*
X-81763333Y-100727380D01*
X-80858571Y-101679761D02*
X-80953809Y-101727380D01*
X-81144285Y-101727380D01*
X-81239523Y-101679761D01*
X-81287142Y-101584523D01*
X-81287142Y-101203571D01*
X-81239523Y-101108333D01*
X-81144285Y-101060714D01*
X-80953809Y-101060714D01*
X-80858571Y-101108333D01*
X-80810952Y-101203571D01*
X-80810952Y-101298809D01*
X-81287142Y-101394047D01*
X-79715714Y-101060714D02*
X-79525238Y-101727380D01*
X-79334761Y-101251190D01*
X-79144285Y-101727380D01*
X-78953809Y-101060714D01*
X-78191904Y-101679761D02*
X-78287142Y-101727380D01*
X-78477619Y-101727380D01*
X-78572857Y-101679761D01*
X-78620476Y-101584523D01*
X-78620476Y-101203571D01*
X-78572857Y-101108333D01*
X-78477619Y-101060714D01*
X-78287142Y-101060714D01*
X-78191904Y-101108333D01*
X-78144285Y-101203571D01*
X-78144285Y-101298809D01*
X-78620476Y-101394047D01*
X-77287142Y-101727380D02*
X-77287142Y-101203571D01*
X-77334761Y-101108333D01*
X-77430000Y-101060714D01*
X-77620476Y-101060714D01*
X-77715714Y-101108333D01*
X-77287142Y-101679761D02*
X-77382380Y-101727380D01*
X-77620476Y-101727380D01*
X-77715714Y-101679761D01*
X-77763333Y-101584523D01*
X-77763333Y-101489285D01*
X-77715714Y-101394047D01*
X-77620476Y-101346428D01*
X-77382380Y-101346428D01*
X-77287142Y-101298809D01*
X-76953809Y-101060714D02*
X-76572857Y-101060714D01*
X-76810952Y-100727380D02*
X-76810952Y-101584523D01*
X-76763333Y-101679761D01*
X-76668095Y-101727380D01*
X-76572857Y-101727380D01*
X-76239523Y-101727380D02*
X-76239523Y-100727380D01*
X-75810952Y-101727380D02*
X-75810952Y-101203571D01*
X-75858571Y-101108333D01*
X-75953809Y-101060714D01*
X-76096666Y-101060714D01*
X-76191904Y-101108333D01*
X-76239523Y-101155952D01*
X-74953809Y-101679761D02*
X-75049047Y-101727380D01*
X-75239523Y-101727380D01*
X-75334761Y-101679761D01*
X-75382380Y-101584523D01*
X-75382380Y-101203571D01*
X-75334761Y-101108333D01*
X-75239523Y-101060714D01*
X-75049047Y-101060714D01*
X-74953809Y-101108333D01*
X-74906190Y-101203571D01*
X-74906190Y-101298809D01*
X-75382380Y-101394047D01*
X-74477619Y-101727380D02*
X-74477619Y-101060714D01*
X-74477619Y-101251190D02*
X-74430000Y-101155952D01*
X-74382380Y-101108333D01*
X-74287142Y-101060714D01*
X-74191904Y-101060714D01*
X-73144285Y-101679761D02*
X-73049047Y-101727380D01*
X-72858571Y-101727380D01*
X-72763333Y-101679761D01*
X-72715714Y-101584523D01*
X-72715714Y-101536904D01*
X-72763333Y-101441666D01*
X-72858571Y-101394047D01*
X-73001428Y-101394047D01*
X-73096666Y-101346428D01*
X-73144285Y-101251190D01*
X-73144285Y-101203571D01*
X-73096666Y-101108333D01*
X-73001428Y-101060714D01*
X-72858571Y-101060714D01*
X-72763333Y-101108333D01*
X-72430000Y-101060714D02*
X-72049047Y-101060714D01*
X-72287142Y-100727380D02*
X-72287142Y-101584523D01*
X-72239523Y-101679761D01*
X-72144285Y-101727380D01*
X-72049047Y-101727380D01*
X-71287142Y-101727380D02*
X-71287142Y-101203571D01*
X-71334761Y-101108333D01*
X-71430000Y-101060714D01*
X-71620476Y-101060714D01*
X-71715714Y-101108333D01*
X-71287142Y-101679761D02*
X-71382380Y-101727380D01*
X-71620476Y-101727380D01*
X-71715714Y-101679761D01*
X-71763333Y-101584523D01*
X-71763333Y-101489285D01*
X-71715714Y-101394047D01*
X-71620476Y-101346428D01*
X-71382380Y-101346428D01*
X-71287142Y-101298809D01*
X-70953809Y-101060714D02*
X-70572857Y-101060714D01*
X-70810952Y-100727380D02*
X-70810952Y-101584523D01*
X-70763333Y-101679761D01*
X-70668095Y-101727380D01*
X-70572857Y-101727380D01*
X-70239523Y-101727380D02*
X-70239523Y-101060714D01*
X-70239523Y-100727380D02*
X-70287142Y-100775000D01*
X-70239523Y-100822619D01*
X-70191904Y-100775000D01*
X-70239523Y-100727380D01*
X-70239523Y-100822619D01*
X-69620476Y-101727380D02*
X-69715714Y-101679761D01*
X-69763333Y-101632142D01*
X-69810952Y-101536904D01*
X-69810952Y-101251190D01*
X-69763333Y-101155952D01*
X-69715714Y-101108333D01*
X-69620476Y-101060714D01*
X-69477619Y-101060714D01*
X-69382380Y-101108333D01*
X-69334761Y-101155952D01*
X-69287142Y-101251190D01*
X-69287142Y-101536904D01*
X-69334761Y-101632142D01*
X-69382380Y-101679761D01*
X-69477619Y-101727380D01*
X-69620476Y-101727380D01*
X-68858571Y-101060714D02*
X-68858571Y-101727380D01*
X-68858571Y-101155952D02*
X-68810952Y-101108333D01*
X-68715714Y-101060714D01*
X-68572857Y-101060714D01*
X-68477619Y-101108333D01*
X-68430000Y-101203571D01*
X-68430000Y-101727380D01*
X-68710000Y-97221904D02*
X-68757619Y-97317142D01*
X-68757619Y-97460000D01*
X-68710000Y-97602857D01*
X-68614761Y-97698095D01*
X-68519523Y-97745714D01*
X-68329047Y-97793333D01*
X-68186190Y-97793333D01*
X-67995714Y-97745714D01*
X-67900476Y-97698095D01*
X-67805238Y-97602857D01*
X-67757619Y-97460000D01*
X-67757619Y-97364761D01*
X-67805238Y-97221904D01*
X-67852857Y-97174285D01*
X-68186190Y-97174285D01*
X-68186190Y-97364761D01*
X-67757619Y-96745714D02*
X-68757619Y-96745714D01*
X-67757619Y-96174285D01*
X-68757619Y-96174285D01*
X-67757619Y-95698095D02*
X-68757619Y-95698095D01*
X-68757619Y-95460000D01*
X-68710000Y-95317142D01*
X-68614761Y-95221904D01*
X-68519523Y-95174285D01*
X-68329047Y-95126666D01*
X-68186190Y-95126666D01*
X-67995714Y-95174285D01*
X-67900476Y-95221904D01*
X-67805238Y-95317142D01*
X-67757619Y-95460000D01*
X-67757619Y-95698095D01*
X-71250000Y-97221904D02*
X-71297619Y-97317142D01*
X-71297619Y-97460000D01*
X-71250000Y-97602857D01*
X-71154761Y-97698095D01*
X-71059523Y-97745714D01*
X-70869047Y-97793333D01*
X-70726190Y-97793333D01*
X-70535714Y-97745714D01*
X-70440476Y-97698095D01*
X-70345238Y-97602857D01*
X-70297619Y-97460000D01*
X-70297619Y-97364761D01*
X-70345238Y-97221904D01*
X-70392857Y-97174285D01*
X-70726190Y-97174285D01*
X-70726190Y-97364761D01*
X-70297619Y-96745714D02*
X-71297619Y-96745714D01*
X-70297619Y-96174285D01*
X-71297619Y-96174285D01*
X-70297619Y-95698095D02*
X-71297619Y-95698095D01*
X-71297619Y-95460000D01*
X-71250000Y-95317142D01*
X-71154761Y-95221904D01*
X-71059523Y-95174285D01*
X-70869047Y-95126666D01*
X-70726190Y-95126666D01*
X-70535714Y-95174285D01*
X-70440476Y-95221904D01*
X-70345238Y-95317142D01*
X-70297619Y-95460000D01*
X-70297619Y-95698095D01*
X-72885238Y-98579047D02*
X-72837619Y-98436190D01*
X-72837619Y-98198095D01*
X-72885238Y-98102857D01*
X-72932857Y-98055238D01*
X-73028095Y-98007619D01*
X-73123333Y-98007619D01*
X-73218571Y-98055238D01*
X-73266190Y-98102857D01*
X-73313809Y-98198095D01*
X-73361428Y-98388571D01*
X-73409047Y-98483809D01*
X-73456666Y-98531428D01*
X-73551904Y-98579047D01*
X-73647142Y-98579047D01*
X-73742380Y-98531428D01*
X-73790000Y-98483809D01*
X-73837619Y-98388571D01*
X-73837619Y-98150476D01*
X-73790000Y-98007619D01*
X-73837619Y-97674285D02*
X-72837619Y-97436190D01*
X-73551904Y-97245714D01*
X-72837619Y-97055238D01*
X-73837619Y-96817142D01*
X-72837619Y-96436190D02*
X-73837619Y-96436190D01*
X-73837619Y-96198095D01*
X-73790000Y-96055238D01*
X-73694761Y-95960000D01*
X-73599523Y-95912380D01*
X-73409047Y-95864761D01*
X-73266190Y-95864761D01*
X-73075714Y-95912380D01*
X-72980476Y-95960000D01*
X-72885238Y-96055238D01*
X-72837619Y-96198095D01*
X-72837619Y-96436190D01*
X-72837619Y-95436190D02*
X-73837619Y-95436190D01*
X-73837619Y-94769523D02*
X-73837619Y-94579047D01*
X-73790000Y-94483809D01*
X-73694761Y-94388571D01*
X-73504285Y-94340952D01*
X-73170952Y-94340952D01*
X-72980476Y-94388571D01*
X-72885238Y-94483809D01*
X-72837619Y-94579047D01*
X-72837619Y-94769523D01*
X-72885238Y-94864761D01*
X-72980476Y-94960000D01*
X-73170952Y-95007619D01*
X-73504285Y-95007619D01*
X-73694761Y-94960000D01*
X-73790000Y-94864761D01*
X-73837619Y-94769523D01*
X-75425238Y-98721904D02*
X-75377619Y-98579047D01*
X-75377619Y-98340952D01*
X-75425238Y-98245714D01*
X-75472857Y-98198095D01*
X-75568095Y-98150476D01*
X-75663333Y-98150476D01*
X-75758571Y-98198095D01*
X-75806190Y-98245714D01*
X-75853809Y-98340952D01*
X-75901428Y-98531428D01*
X-75949047Y-98626666D01*
X-75996666Y-98674285D01*
X-76091904Y-98721904D01*
X-76187142Y-98721904D01*
X-76282380Y-98674285D01*
X-76330000Y-98626666D01*
X-76377619Y-98531428D01*
X-76377619Y-98293333D01*
X-76330000Y-98150476D01*
X-76377619Y-97817142D02*
X-75377619Y-97579047D01*
X-76091904Y-97388571D01*
X-75377619Y-97198095D01*
X-76377619Y-96960000D01*
X-75472857Y-96007619D02*
X-75425238Y-96055238D01*
X-75377619Y-96198095D01*
X-75377619Y-96293333D01*
X-75425238Y-96436190D01*
X-75520476Y-96531428D01*
X-75615714Y-96579047D01*
X-75806190Y-96626666D01*
X-75949047Y-96626666D01*
X-76139523Y-96579047D01*
X-76234761Y-96531428D01*
X-76330000Y-96436190D01*
X-76377619Y-96293333D01*
X-76377619Y-96198095D01*
X-76330000Y-96055238D01*
X-76282380Y-96007619D01*
X-75377619Y-95102857D02*
X-75377619Y-95579047D01*
X-76377619Y-95579047D01*
X-75377619Y-94769523D02*
X-76377619Y-94769523D01*
X-75377619Y-94198095D02*
X-75949047Y-94626666D01*
X-76377619Y-94198095D02*
X-75806190Y-94769523D01*
X-78917619Y-97221904D02*
X-78917619Y-96650476D01*
X-77917619Y-96936190D02*
X-78917619Y-96936190D01*
X-78917619Y-96412380D02*
X-77917619Y-95745714D01*
X-78917619Y-95745714D02*
X-77917619Y-96412380D01*
X-80457619Y-96626666D02*
X-80933809Y-96960000D01*
X-80457619Y-97198095D02*
X-81457619Y-97198095D01*
X-81457619Y-96817142D01*
X-81410000Y-96721904D01*
X-81362380Y-96674285D01*
X-81267142Y-96626666D01*
X-81124285Y-96626666D01*
X-81029047Y-96674285D01*
X-80981428Y-96721904D01*
X-80933809Y-96817142D01*
X-80933809Y-97198095D01*
X-81457619Y-96293333D02*
X-80457619Y-95626666D01*
X-81457619Y-95626666D02*
X-80457619Y-96293333D01*
X-82997619Y-97007619D02*
X-83473809Y-97340952D01*
X-82997619Y-97579047D02*
X-83997619Y-97579047D01*
X-83997619Y-97198095D01*
X-83950000Y-97102857D01*
X-83902380Y-97055238D01*
X-83807142Y-97007619D01*
X-83664285Y-97007619D01*
X-83569047Y-97055238D01*
X-83521428Y-97102857D01*
X-83473809Y-97198095D01*
X-83473809Y-97579047D01*
X-83045238Y-96626666D02*
X-82997619Y-96483809D01*
X-82997619Y-96245714D01*
X-83045238Y-96150476D01*
X-83092857Y-96102857D01*
X-83188095Y-96055238D01*
X-83283333Y-96055238D01*
X-83378571Y-96102857D01*
X-83426190Y-96150476D01*
X-83473809Y-96245714D01*
X-83521428Y-96436190D01*
X-83569047Y-96531428D01*
X-83616666Y-96579047D01*
X-83711904Y-96626666D01*
X-83807142Y-96626666D01*
X-83902380Y-96579047D01*
X-83950000Y-96531428D01*
X-83997619Y-96436190D01*
X-83997619Y-96198095D01*
X-83950000Y-96055238D01*
X-83997619Y-95769523D02*
X-83997619Y-95198095D01*
X-82997619Y-95483809D02*
X-83997619Y-95483809D01*
X-59707619Y-118623333D02*
X-59707619Y-117956666D01*
X-58707619Y-118385238D01*
X-62649047Y-118225238D02*
X-62696666Y-118320476D01*
X-62744285Y-118368095D01*
X-62839523Y-118415714D01*
X-62887142Y-118415714D01*
X-62982380Y-118368095D01*
X-63030000Y-118320476D01*
X-63077619Y-118225238D01*
X-63077619Y-118034761D01*
X-63030000Y-117939523D01*
X-62982380Y-117891904D01*
X-62887142Y-117844285D01*
X-62839523Y-117844285D01*
X-62744285Y-117891904D01*
X-62696666Y-117939523D01*
X-62649047Y-118034761D01*
X-62649047Y-118225238D01*
X-62601428Y-118320476D01*
X-62553809Y-118368095D01*
X-62458571Y-118415714D01*
X-62268095Y-118415714D01*
X-62172857Y-118368095D01*
X-62125238Y-118320476D01*
X-62077619Y-118225238D01*
X-62077619Y-118034761D01*
X-62125238Y-117939523D01*
X-62172857Y-117891904D01*
X-62268095Y-117844285D01*
X-62458571Y-117844285D01*
X-62553809Y-117891904D01*
X-62601428Y-117939523D01*
X-62649047Y-118034761D01*
X-63072380Y-130845714D02*
X-63120000Y-130798095D01*
X-63167619Y-130702857D01*
X-63167619Y-130464761D01*
X-63120000Y-130369523D01*
X-63072380Y-130321904D01*
X-62977142Y-130274285D01*
X-62881904Y-130274285D01*
X-62739047Y-130321904D01*
X-62167619Y-130893333D01*
X-62167619Y-130274285D01*
X-59017619Y-130284285D02*
X-59017619Y-130855714D01*
X-59017619Y-130570000D02*
X-60017619Y-130570000D01*
X-59874761Y-130665238D01*
X-59779523Y-130760476D01*
X-59731904Y-130855714D01*
X-70053333Y-150692380D02*
X-69386666Y-150692380D01*
X-69815238Y-151692380D01*
X-69895238Y-148500952D02*
X-69990476Y-148453333D01*
X-70038095Y-148405714D01*
X-70085714Y-148310476D01*
X-70085714Y-148262857D01*
X-70038095Y-148167619D01*
X-69990476Y-148120000D01*
X-69895238Y-148072380D01*
X-69704761Y-148072380D01*
X-69609523Y-148120000D01*
X-69561904Y-148167619D01*
X-69514285Y-148262857D01*
X-69514285Y-148310476D01*
X-69561904Y-148405714D01*
X-69609523Y-148453333D01*
X-69704761Y-148500952D01*
X-69895238Y-148500952D01*
X-69990476Y-148548571D01*
X-70038095Y-148596190D01*
X-70085714Y-148691428D01*
X-70085714Y-148881904D01*
X-70038095Y-148977142D01*
X-69990476Y-149024761D01*
X-69895238Y-149072380D01*
X-69704761Y-149072380D01*
X-69609523Y-149024761D01*
X-69561904Y-148977142D01*
X-69514285Y-148881904D01*
X-69514285Y-148691428D01*
X-69561904Y-148596190D01*
X-69609523Y-148548571D01*
X-69704761Y-148500952D01*
X-82435714Y-147627619D02*
X-82388095Y-147580000D01*
X-82292857Y-147532380D01*
X-82054761Y-147532380D01*
X-81959523Y-147580000D01*
X-81911904Y-147627619D01*
X-81864285Y-147722857D01*
X-81864285Y-147818095D01*
X-81911904Y-147960952D01*
X-82483333Y-148532380D01*
X-81864285Y-148532380D01*
X-81804285Y-152272380D02*
X-82375714Y-152272380D01*
X-82090000Y-152272380D02*
X-82090000Y-151272380D01*
X-82185238Y-151415238D01*
X-82280476Y-151510476D01*
X-82375714Y-151558095D01*
D11*
G04 #@! TO.C,U4*
X-80000000Y-140060000D02*
G75*
G03*
X-80000000Y-140060000I-125000J0D01*
G01*
D12*
G04 #@! TO.C,U3*
X-79335000Y-133665000D02*
X-77810000Y-133665000D01*
X-77460000Y-138808000D02*
X-77460000Y-133732000D01*
X-74260000Y-138808000D02*
X-77460000Y-138808000D01*
X-74260000Y-133732000D02*
X-74260000Y-138808000D01*
X-77460000Y-133732000D02*
X-74260000Y-133732000D01*
D13*
G04 #@! TO.C,R1*
X-75916359Y-117410000D02*
X-76223641Y-117410000D01*
X-75916359Y-116650000D02*
X-76223641Y-116650000D01*
G04 #@! TO.C,C7*
X-67527836Y-119260000D02*
X-67312164Y-119260000D01*
X-67527836Y-119980000D02*
X-67312164Y-119980000D01*
G04 #@! TO.C,J1*
X-58650000Y-129600000D02*
X-59980000Y-129600000D01*
X-58650000Y-128270000D02*
X-58650000Y-129600000D01*
X-61250000Y-129600000D02*
X-63850000Y-129600000D01*
X-61250000Y-127000000D02*
X-61250000Y-129600000D01*
X-58650000Y-127000000D02*
X-61250000Y-127000000D01*
X-63850000Y-129600000D02*
X-63850000Y-119320000D01*
X-58650000Y-127000000D02*
X-58650000Y-119320000D01*
X-58650000Y-119320000D02*
X-63850000Y-119320000D01*
G04 #@! TO.C,U1*
X-69500000Y-129400000D02*
X-68550000Y-129400000D01*
X-68550000Y-129400000D02*
X-68550000Y-128450000D01*
X-77820000Y-129400000D02*
X-78770000Y-129400000D01*
X-78770000Y-129400000D02*
X-78770000Y-128450000D01*
X-69500000Y-119180000D02*
X-68550000Y-119180000D01*
X-68550000Y-119180000D02*
X-68550000Y-120130000D01*
X-77820000Y-119180000D02*
X-78770000Y-119180000D01*
X-78770000Y-119180000D02*
X-78770000Y-120130000D01*
X-78770000Y-120130000D02*
X-80110000Y-120130000D01*
G04 #@! TO.C,C29*
X-76982164Y-131910000D02*
X-77197836Y-131910000D01*
X-76982164Y-131190000D02*
X-77197836Y-131190000D01*
G04 #@! TO.C,J5*
X-84780000Y-92110000D02*
X-84780000Y-90780000D01*
X-84780000Y-90780000D02*
X-83450000Y-90780000D01*
X-82180000Y-90780000D02*
X-66880000Y-90780000D01*
X-66880000Y-93440000D02*
X-66880000Y-90780000D01*
X-82180000Y-93440000D02*
X-66880000Y-93440000D01*
X-82180000Y-93440000D02*
X-82180000Y-90780000D01*
D11*
G04 #@! TO.C,U9*
X-60295000Y-108000000D02*
G75*
G03*
X-60295000Y-108000000I-125000J0D01*
G01*
D13*
G04 #@! TO.C,C28*
X-56220000Y-109082164D02*
X-56220000Y-109297836D01*
X-55500000Y-109082164D02*
X-55500000Y-109297836D01*
G04 #@! TO.C,C27*
X-61540000Y-109092164D02*
X-61540000Y-109307836D01*
X-60820000Y-109092164D02*
X-60820000Y-109307836D01*
D14*
G04 #@! TO.C,U5*
X-46070000Y-115420000D02*
X-46070000Y-115420000D01*
X-46070000Y-115520000D02*
X-46070000Y-115520000D01*
X-46070000Y-115520000D02*
G75*
G02*
X-46070000Y-115420000I0J50000D01*
G01*
X-46070000Y-115420000D02*
G75*
G02*
X-46070000Y-115520000I0J-50000D01*
G01*
D13*
G04 #@! TO.C,R25*
X-81290000Y-127396359D02*
X-81290000Y-127703641D01*
X-80530000Y-127396359D02*
X-80530000Y-127703641D01*
G04 #@! TO.C,R24*
X-82300000Y-127396359D02*
X-82300000Y-127703641D01*
X-81540000Y-127396359D02*
X-81540000Y-127703641D01*
G04 #@! TO.C,R14*
X-43163641Y-113920000D02*
X-42856359Y-113920000D01*
X-43163641Y-113160000D02*
X-42856359Y-113160000D01*
G04 #@! TO.C,R13*
X-48556359Y-93440000D02*
X-48863641Y-93440000D01*
X-48556359Y-94200000D02*
X-48863641Y-94200000D01*
G04 #@! TO.C,R12*
X-42480000Y-119503641D02*
X-42480000Y-119196359D01*
X-43240000Y-119503641D02*
X-43240000Y-119196359D01*
D12*
G04 #@! TO.C,J2*
X-40690000Y-118550000D02*
G75*
G03*
X-40690000Y-118550000I-100000J0D01*
G01*
X-37440000Y-110830000D02*
X-36190000Y-110830000D01*
X-37440000Y-119770000D02*
X-36190000Y-119770000D01*
X-32190000Y-110830000D02*
X-33470000Y-110830000D01*
X-33470000Y-119770000D02*
X-32190000Y-119770000D01*
D13*
G04 #@! TO.C,F1*
X-44652779Y-111750000D02*
X-44327221Y-111750000D01*
X-44652779Y-110730000D02*
X-44327221Y-110730000D01*
G04 #@! TO.C,C14*
X-46860000Y-111602164D02*
X-46860000Y-111817836D01*
X-46140000Y-111602164D02*
X-46140000Y-111817836D01*
G04 #@! TO.C,C13*
X-42820000Y-111602164D02*
X-42820000Y-111817836D01*
X-42100000Y-111602164D02*
X-42100000Y-111817836D01*
D12*
G04 #@! TO.C,U6*
X-49770000Y-106315000D02*
X-49770000Y-107465000D01*
X-52720000Y-107815000D02*
X-49820000Y-107815000D01*
X-52720000Y-108465000D02*
X-52720000Y-107815000D01*
X-49820000Y-108465000D02*
X-52720000Y-108465000D01*
X-49820000Y-107815000D02*
X-49820000Y-108465000D01*
D13*
G04 #@! TO.C,R17*
X-50710000Y-111046359D02*
X-50710000Y-111353641D01*
X-49950000Y-111046359D02*
X-49950000Y-111353641D01*
G04 #@! TO.C,R16*
X-49686359Y-105120000D02*
X-49993641Y-105120000D01*
X-49686359Y-105880000D02*
X-49993641Y-105880000D01*
G04 #@! TO.C,J3*
X-50230000Y-90540000D02*
X-60390000Y-90540000D01*
X-50230000Y-98160000D02*
X-50230000Y-90540000D01*
X-60390000Y-98160000D02*
X-50230000Y-98160000D01*
X-60390000Y-90540000D02*
X-60390000Y-98160000D01*
X-60390000Y-91810000D02*
X-50230000Y-91810000D01*
G04 #@! TO.C,C17*
X-52602164Y-110390000D02*
X-52817836Y-110390000D01*
X-52602164Y-111110000D02*
X-52817836Y-111110000D01*
D12*
G04 #@! TO.C,U8*
X-55810000Y-102680000D02*
X-56410000Y-102680000D01*
X-56410000Y-102680000D02*
X-56410000Y-99780000D01*
X-56410000Y-99780000D02*
X-55810000Y-99780000D01*
X-55810000Y-99780000D02*
X-55810000Y-102680000D01*
X-54260000Y-102830000D02*
X-55460000Y-102830000D01*
D14*
G04 #@! TO.C,Q1*
X-52570000Y-102650000D02*
X-52570000Y-102650000D01*
X-52570000Y-102550000D02*
X-52570000Y-102550000D01*
X-52570000Y-102550000D02*
G75*
G02*
X-52570000Y-102650000I0J-50000D01*
G01*
X-52570000Y-102650000D02*
G75*
G02*
X-52570000Y-102550000I0J50000D01*
G01*
D13*
G04 #@! TO.C,R23*
X-59046359Y-100900000D02*
X-59353641Y-100900000D01*
X-59046359Y-101660000D02*
X-59353641Y-101660000D01*
G04 #@! TO.C,R20*
X-55253641Y-99280000D02*
X-54946359Y-99280000D01*
X-55253641Y-98520000D02*
X-54946359Y-98520000D01*
G04 #@! TO.C,C24*
X-59287836Y-102630000D02*
X-59072164Y-102630000D01*
X-59287836Y-101910000D02*
X-59072164Y-101910000D01*
D11*
G04 #@! TO.C,U7*
X-68080000Y-105480000D02*
G75*
G03*
X-68080000Y-105480000I-125000J0D01*
G01*
D13*
G04 #@! TO.C,R22*
X-63353641Y-112820000D02*
X-63046359Y-112820000D01*
X-63353641Y-112060000D02*
X-63046359Y-112060000D01*
G04 #@! TO.C,R21*
X-63046359Y-111070000D02*
X-63353641Y-111070000D01*
X-63046359Y-111830000D02*
X-63353641Y-111830000D01*
G04 #@! TO.C,R19*
X-65256359Y-109110000D02*
X-65563641Y-109110000D01*
X-65256359Y-109870000D02*
X-65563641Y-109870000D01*
G04 #@! TO.C,R18*
X-65266359Y-110110000D02*
X-65573641Y-110110000D01*
X-65266359Y-110870000D02*
X-65573641Y-110870000D01*
G04 #@! TO.C,R15*
X-68136359Y-109100000D02*
X-68443641Y-109100000D01*
X-68136359Y-109860000D02*
X-68443641Y-109860000D01*
G04 #@! TO.C,L1*
X-68142064Y-105050000D02*
X-66937936Y-105050000D01*
X-68142064Y-102330000D02*
X-66937936Y-102330000D01*
G04 #@! TO.C,D2*
X-64170000Y-114070000D02*
X-61620000Y-114070000D01*
X-64170000Y-115770000D02*
X-61620000Y-115770000D01*
X-64170000Y-114070000D02*
X-64170000Y-115770000D01*
G04 #@! TO.C,D1*
X-60580000Y-105110000D02*
X-64480000Y-105110000D01*
X-60580000Y-103110000D02*
X-64480000Y-103110000D01*
X-60580000Y-105110000D02*
X-60580000Y-103110000D01*
G04 #@! TO.C,C25*
X-63082164Y-105460000D02*
X-63297836Y-105460000D01*
X-63082164Y-106180000D02*
X-63297836Y-106180000D01*
G04 #@! TO.C,C23*
X-63082164Y-109380000D02*
X-63297836Y-109380000D01*
X-63082164Y-110100000D02*
X-63297836Y-110100000D01*
G04 #@! TO.C,C22*
X-63082164Y-108390000D02*
X-63297836Y-108390000D01*
X-63082164Y-109110000D02*
X-63297836Y-109110000D01*
G04 #@! TO.C,C21*
X-63337836Y-113790000D02*
X-63122164Y-113790000D01*
X-63337836Y-113070000D02*
X-63122164Y-113070000D01*
G04 #@! TO.C,C20*
X-63082164Y-107410000D02*
X-63297836Y-107410000D01*
X-63082164Y-108130000D02*
X-63297836Y-108130000D01*
G04 #@! TO.C,C19*
X-63082164Y-106440000D02*
X-63297836Y-106440000D01*
X-63082164Y-107160000D02*
X-63297836Y-107160000D01*
G04 #@! TO.C,C18*
X-65312164Y-111120000D02*
X-65527836Y-111120000D01*
X-65312164Y-111840000D02*
X-65527836Y-111840000D01*
G04 #@! TO.C,C16*
X-68620000Y-106747836D02*
X-68620000Y-106532164D01*
X-69340000Y-106747836D02*
X-69340000Y-106532164D01*
G04 #@! TO.C,C15*
X-69600000Y-106747836D02*
X-69600000Y-106532164D01*
X-70320000Y-106747836D02*
X-70320000Y-106532164D01*
G04 #@! TO.C,R7*
X-64810000Y-126323641D02*
X-64810000Y-126016359D01*
X-65570000Y-126323641D02*
X-65570000Y-126016359D01*
G04 #@! TO.C,C10*
X-57930000Y-120412164D02*
X-57930000Y-120627836D01*
X-57210000Y-120412164D02*
X-57210000Y-120627836D01*
D12*
G04 #@! TO.C,U2*
X-74250000Y-112350000D02*
X-74250000Y-113550000D01*
X-71250000Y-112350000D02*
X-71250000Y-113550000D01*
D14*
X-71550000Y-114950000D02*
X-71550000Y-114950000D01*
X-71550000Y-115050000D02*
X-71550000Y-115050000D01*
X-71550000Y-115050000D02*
G75*
G02*
X-71550000Y-114950000I0J50000D01*
G01*
X-71550000Y-114950000D02*
G75*
G02*
X-71550000Y-115050000I0J-50000D01*
G01*
D13*
G04 #@! TO.C,R6*
X-73943641Y-116400000D02*
X-73636359Y-116400000D01*
X-73943641Y-115640000D02*
X-73636359Y-115640000D01*
G04 #@! TO.C,R5*
X-75933641Y-116410000D02*
X-75626359Y-116410000D01*
X-75933641Y-115650000D02*
X-75626359Y-115650000D01*
G04 #@! TO.C,R4*
X-71686359Y-115630000D02*
X-71993641Y-115630000D01*
X-71686359Y-116390000D02*
X-71993641Y-116390000D01*
G04 #@! TO.C,R3*
X-76180000Y-112116359D02*
X-76180000Y-112423641D01*
X-75420000Y-112116359D02*
X-75420000Y-112423641D01*
G04 #@! TO.C,C9*
X-71752164Y-109530000D02*
X-71967836Y-109530000D01*
X-71752164Y-110250000D02*
X-71967836Y-110250000D01*
G04 #@! TO.C,C8*
X-72940000Y-109557836D02*
X-72940000Y-109342164D01*
X-73660000Y-109557836D02*
X-73660000Y-109342164D01*
G04 #@! TO.C,Y1*
X-82190000Y-120520000D02*
X-82190000Y-122920000D01*
X-80590000Y-120520000D02*
X-82190000Y-120520000D01*
X-80590000Y-122920000D02*
X-80590000Y-120520000D01*
G04 #@! TO.C,R2*
X-81523641Y-123970000D02*
X-81216359Y-123970000D01*
X-81523641Y-123210000D02*
X-81216359Y-123210000D01*
G04 #@! TO.C,C6*
X-80560000Y-125747836D02*
X-80560000Y-125532164D01*
X-81280000Y-125747836D02*
X-81280000Y-125532164D01*
G04 #@! TO.C,C5*
X-77990000Y-118167836D02*
X-77990000Y-117952164D01*
X-78710000Y-118167836D02*
X-78710000Y-117952164D01*
G04 #@! TO.C,C4*
X-79020000Y-118757836D02*
X-79020000Y-118542164D01*
X-79740000Y-118757836D02*
X-79740000Y-118542164D01*
G04 #@! TO.C,C3*
X-69942164Y-131150000D02*
X-70157836Y-131150000D01*
X-69942164Y-131870000D02*
X-70157836Y-131870000D01*
G04 #@! TO.C,C2*
X-83367836Y-122780000D02*
X-83152164Y-122780000D01*
X-83367836Y-122060000D02*
X-83152164Y-122060000D01*
G04 #@! TO.C,C1*
X-83367836Y-121380000D02*
X-83152164Y-121380000D01*
X-83367836Y-120660000D02*
X-83152164Y-120660000D01*
G04 #@! TO.C,J4*
X-81040000Y-152490000D02*
X-81040000Y-151160000D01*
X-79710000Y-152490000D02*
X-81040000Y-152490000D01*
X-81040000Y-149890000D02*
X-81040000Y-147290000D01*
X-78440000Y-149890000D02*
X-81040000Y-149890000D01*
X-78440000Y-152490000D02*
X-78440000Y-149890000D01*
X-81040000Y-147290000D02*
X-70760000Y-147290000D01*
X-78440000Y-152490000D02*
X-70760000Y-152490000D01*
X-70760000Y-152490000D02*
X-70760000Y-147290000D01*
G04 #@! TO.C,R11*
X-70970000Y-141356359D02*
X-70970000Y-141663641D01*
X-70210000Y-141356359D02*
X-70210000Y-141663641D01*
G04 #@! TO.C,R10*
X-81310000Y-142656359D02*
X-81310000Y-142963641D01*
X-80550000Y-142656359D02*
X-80550000Y-142963641D01*
G04 #@! TO.C,R9*
X-71960000Y-134976359D02*
X-71960000Y-135283641D01*
X-71200000Y-134976359D02*
X-71200000Y-135283641D01*
G04 #@! TO.C,R8*
X-80550000Y-137086359D02*
X-80550000Y-137393641D01*
X-79790000Y-137086359D02*
X-79790000Y-137393641D01*
G04 #@! TO.C,C12*
X-71257836Y-139210000D02*
X-71042164Y-139210000D01*
X-71257836Y-138490000D02*
X-71042164Y-138490000D01*
G04 #@! TO.C,C11*
X-73327836Y-133210000D02*
X-73112164Y-133210000D01*
X-73327836Y-132490000D02*
X-73112164Y-132490000D01*
G04 #@! TO.C,C26*
X-82450000Y-149772164D02*
X-82450000Y-149987836D01*
X-81730000Y-149772164D02*
X-81730000Y-149987836D01*
G04 #@! TO.C,U4*
D15*
X-70727619Y-143654523D02*
X-70727619Y-144682619D01*
X-70667142Y-144803571D01*
X-70606666Y-144864047D01*
X-70485714Y-144924523D01*
X-70243809Y-144924523D01*
X-70122857Y-144864047D01*
X-70062380Y-144803571D01*
X-70001904Y-144682619D01*
X-70001904Y-143654523D01*
X-68852857Y-144077857D02*
X-68852857Y-144924523D01*
X-69155238Y-143594047D02*
X-69457619Y-144501190D01*
X-68671428Y-144501190D01*
G04 #@! TO.C,U3*
X-77167619Y-131774523D02*
X-77167619Y-132802619D01*
X-77107142Y-132923571D01*
X-77046666Y-132984047D01*
X-76925714Y-133044523D01*
X-76683809Y-133044523D01*
X-76562857Y-132984047D01*
X-76502380Y-132923571D01*
X-76441904Y-132802619D01*
X-76441904Y-131774523D01*
X-75958095Y-131774523D02*
X-75171904Y-131774523D01*
X-75595238Y-132258333D01*
X-75413809Y-132258333D01*
X-75292857Y-132318809D01*
X-75232380Y-132379285D01*
X-75171904Y-132500238D01*
X-75171904Y-132802619D01*
X-75232380Y-132923571D01*
X-75292857Y-132984047D01*
X-75413809Y-133044523D01*
X-75776666Y-133044523D01*
X-75897619Y-132984047D01*
X-75958095Y-132923571D01*
G04 #@! TO.C,R1*
D10*
X-76236666Y-118652380D02*
X-76570000Y-118176190D01*
X-76808095Y-118652380D02*
X-76808095Y-117652380D01*
X-76427142Y-117652380D01*
X-76331904Y-117700000D01*
X-76284285Y-117747619D01*
X-76236666Y-117842857D01*
X-76236666Y-117985714D01*
X-76284285Y-118080952D01*
X-76331904Y-118128571D01*
X-76427142Y-118176190D01*
X-76808095Y-118176190D01*
X-75284285Y-118652380D02*
X-75855714Y-118652380D01*
X-75570000Y-118652380D02*
X-75570000Y-117652380D01*
X-75665238Y-117795238D01*
X-75760476Y-117890476D01*
X-75855714Y-117938095D01*
G04 #@! TO.C,C7*
X-67586666Y-118817142D02*
X-67634285Y-118864761D01*
X-67777142Y-118912380D01*
X-67872380Y-118912380D01*
X-68015238Y-118864761D01*
X-68110476Y-118769523D01*
X-68158095Y-118674285D01*
X-68205714Y-118483809D01*
X-68205714Y-118340952D01*
X-68158095Y-118150476D01*
X-68110476Y-118055238D01*
X-68015238Y-117960000D01*
X-67872380Y-117912380D01*
X-67777142Y-117912380D01*
X-67634285Y-117960000D01*
X-67586666Y-118007619D01*
X-67253333Y-117912380D02*
X-66586666Y-117912380D01*
X-67015238Y-118912380D01*
G04 #@! TO.C,J1*
X-61613333Y-130972380D02*
X-61613333Y-131686666D01*
X-61660952Y-131829523D01*
X-61756190Y-131924761D01*
X-61899047Y-131972380D01*
X-61994285Y-131972380D01*
X-60613333Y-131972380D02*
X-61184761Y-131972380D01*
X-60899047Y-131972380D02*
X-60899047Y-130972380D01*
X-60994285Y-131115238D01*
X-61089523Y-131210476D01*
X-61184761Y-131258095D01*
G04 #@! TO.C,U1*
X-74421904Y-116342380D02*
X-74421904Y-117151904D01*
X-74374285Y-117247142D01*
X-74326666Y-117294761D01*
X-74231428Y-117342380D01*
X-74040952Y-117342380D01*
X-73945714Y-117294761D01*
X-73898095Y-117247142D01*
X-73850476Y-117151904D01*
X-73850476Y-116342380D01*
X-72850476Y-117342380D02*
X-73421904Y-117342380D01*
X-73136190Y-117342380D02*
X-73136190Y-116342380D01*
X-73231428Y-116485238D01*
X-73326666Y-116580476D01*
X-73421904Y-116628095D01*
G04 #@! TO.C,C29*
X-77732857Y-133067142D02*
X-77780476Y-133114761D01*
X-77923333Y-133162380D01*
X-78018571Y-133162380D01*
X-78161428Y-133114761D01*
X-78256666Y-133019523D01*
X-78304285Y-132924285D01*
X-78351904Y-132733809D01*
X-78351904Y-132590952D01*
X-78304285Y-132400476D01*
X-78256666Y-132305238D01*
X-78161428Y-132210000D01*
X-78018571Y-132162380D01*
X-77923333Y-132162380D01*
X-77780476Y-132210000D01*
X-77732857Y-132257619D01*
X-77351904Y-132257619D02*
X-77304285Y-132210000D01*
X-77209047Y-132162380D01*
X-76970952Y-132162380D01*
X-76875714Y-132210000D01*
X-76828095Y-132257619D01*
X-76780476Y-132352857D01*
X-76780476Y-132448095D01*
X-76828095Y-132590952D01*
X-77399523Y-133162380D01*
X-76780476Y-133162380D01*
X-76304285Y-133162380D02*
X-76113809Y-133162380D01*
X-76018571Y-133114761D01*
X-75970952Y-133067142D01*
X-75875714Y-132924285D01*
X-75828095Y-132733809D01*
X-75828095Y-132352857D01*
X-75875714Y-132257619D01*
X-75923333Y-132210000D01*
X-76018571Y-132162380D01*
X-76209047Y-132162380D01*
X-76304285Y-132210000D01*
X-76351904Y-132257619D01*
X-76399523Y-132352857D01*
X-76399523Y-132590952D01*
X-76351904Y-132686190D01*
X-76304285Y-132733809D01*
X-76209047Y-132781428D01*
X-76018571Y-132781428D01*
X-75923333Y-132733809D01*
X-75875714Y-132686190D01*
X-75828095Y-132590952D01*
G04 #@! TO.C,H2*
X-82841904Y-104932380D02*
X-82841904Y-103932380D01*
X-82841904Y-104408571D02*
X-82270476Y-104408571D01*
X-82270476Y-104932380D02*
X-82270476Y-103932380D01*
X-81841904Y-104027619D02*
X-81794285Y-103980000D01*
X-81699047Y-103932380D01*
X-81460952Y-103932380D01*
X-81365714Y-103980000D01*
X-81318095Y-104027619D01*
X-81270476Y-104122857D01*
X-81270476Y-104218095D01*
X-81318095Y-104360952D01*
X-81889523Y-104932380D01*
X-81270476Y-104932380D01*
G04 #@! TO.C,H1*
X-66491904Y-148692380D02*
X-66491904Y-147692380D01*
X-66491904Y-148168571D02*
X-65920476Y-148168571D01*
X-65920476Y-148692380D02*
X-65920476Y-147692380D01*
X-64920476Y-148692380D02*
X-65491904Y-148692380D01*
X-65206190Y-148692380D02*
X-65206190Y-147692380D01*
X-65301428Y-147835238D01*
X-65396666Y-147930476D01*
X-65491904Y-147978095D01*
G04 #@! TO.C,J5*
X-66497619Y-92473333D02*
X-65783333Y-92473333D01*
X-65640476Y-92520952D01*
X-65545238Y-92616190D01*
X-65497619Y-92759047D01*
X-65497619Y-92854285D01*
X-66497619Y-91520952D02*
X-66497619Y-91997142D01*
X-66021428Y-92044761D01*
X-66069047Y-91997142D01*
X-66116666Y-91901904D01*
X-66116666Y-91663809D01*
X-66069047Y-91568571D01*
X-66021428Y-91520952D01*
X-65926190Y-91473333D01*
X-65688095Y-91473333D01*
X-65592857Y-91520952D01*
X-65545238Y-91568571D01*
X-65497619Y-91663809D01*
X-65497619Y-91901904D01*
X-65545238Y-91997142D01*
X-65592857Y-92044761D01*
G04 #@! TO.C,U9*
D15*
X-59487619Y-111804523D02*
X-59487619Y-112832619D01*
X-59427142Y-112953571D01*
X-59366666Y-113014047D01*
X-59245714Y-113074523D01*
X-59003809Y-113074523D01*
X-58882857Y-113014047D01*
X-58822380Y-112953571D01*
X-58761904Y-112832619D01*
X-58761904Y-111804523D01*
X-58096666Y-113074523D02*
X-57854761Y-113074523D01*
X-57733809Y-113014047D01*
X-57673333Y-112953571D01*
X-57552380Y-112772142D01*
X-57491904Y-112530238D01*
X-57491904Y-112046428D01*
X-57552380Y-111925476D01*
X-57612857Y-111865000D01*
X-57733809Y-111804523D01*
X-57975714Y-111804523D01*
X-58096666Y-111865000D01*
X-58157142Y-111925476D01*
X-58217619Y-112046428D01*
X-58217619Y-112348809D01*
X-58157142Y-112469761D01*
X-58096666Y-112530238D01*
X-57975714Y-112590714D01*
X-57733809Y-112590714D01*
X-57612857Y-112530238D01*
X-57552380Y-112469761D01*
X-57491904Y-112348809D01*
G04 #@! TO.C,C28*
D10*
X-54342857Y-109832857D02*
X-54295238Y-109880476D01*
X-54247619Y-110023333D01*
X-54247619Y-110118571D01*
X-54295238Y-110261428D01*
X-54390476Y-110356666D01*
X-54485714Y-110404285D01*
X-54676190Y-110451904D01*
X-54819047Y-110451904D01*
X-55009523Y-110404285D01*
X-55104761Y-110356666D01*
X-55200000Y-110261428D01*
X-55247619Y-110118571D01*
X-55247619Y-110023333D01*
X-55200000Y-109880476D01*
X-55152380Y-109832857D01*
X-55152380Y-109451904D02*
X-55200000Y-109404285D01*
X-55247619Y-109309047D01*
X-55247619Y-109070952D01*
X-55200000Y-108975714D01*
X-55152380Y-108928095D01*
X-55057142Y-108880476D01*
X-54961904Y-108880476D01*
X-54819047Y-108928095D01*
X-54247619Y-109499523D01*
X-54247619Y-108880476D01*
X-54819047Y-108309047D02*
X-54866666Y-108404285D01*
X-54914285Y-108451904D01*
X-55009523Y-108499523D01*
X-55057142Y-108499523D01*
X-55152380Y-108451904D01*
X-55200000Y-108404285D01*
X-55247619Y-108309047D01*
X-55247619Y-108118571D01*
X-55200000Y-108023333D01*
X-55152380Y-107975714D01*
X-55057142Y-107928095D01*
X-55009523Y-107928095D01*
X-54914285Y-107975714D01*
X-54866666Y-108023333D01*
X-54819047Y-108118571D01*
X-54819047Y-108309047D01*
X-54771428Y-108404285D01*
X-54723809Y-108451904D01*
X-54628571Y-108499523D01*
X-54438095Y-108499523D01*
X-54342857Y-108451904D01*
X-54295238Y-108404285D01*
X-54247619Y-108309047D01*
X-54247619Y-108118571D01*
X-54295238Y-108023333D01*
X-54342857Y-107975714D01*
X-54438095Y-107928095D01*
X-54628571Y-107928095D01*
X-54723809Y-107975714D01*
X-54771428Y-108023333D01*
X-54819047Y-108118571D01*
G04 #@! TO.C,C27*
X-60832857Y-112402857D02*
X-60785238Y-112450476D01*
X-60737619Y-112593333D01*
X-60737619Y-112688571D01*
X-60785238Y-112831428D01*
X-60880476Y-112926666D01*
X-60975714Y-112974285D01*
X-61166190Y-113021904D01*
X-61309047Y-113021904D01*
X-61499523Y-112974285D01*
X-61594761Y-112926666D01*
X-61690000Y-112831428D01*
X-61737619Y-112688571D01*
X-61737619Y-112593333D01*
X-61690000Y-112450476D01*
X-61642380Y-112402857D01*
X-61642380Y-112021904D02*
X-61690000Y-111974285D01*
X-61737619Y-111879047D01*
X-61737619Y-111640952D01*
X-61690000Y-111545714D01*
X-61642380Y-111498095D01*
X-61547142Y-111450476D01*
X-61451904Y-111450476D01*
X-61309047Y-111498095D01*
X-60737619Y-112069523D01*
X-60737619Y-111450476D01*
X-61737619Y-111117142D02*
X-61737619Y-110450476D01*
X-60737619Y-110879047D01*
G04 #@! TO.C,U5*
D15*
X-51535476Y-115857619D02*
X-50507380Y-115857619D01*
X-50386428Y-115797142D01*
X-50325952Y-115736666D01*
X-50265476Y-115615714D01*
X-50265476Y-115373809D01*
X-50325952Y-115252857D01*
X-50386428Y-115192380D01*
X-50507380Y-115131904D01*
X-51535476Y-115131904D01*
X-51535476Y-113922380D02*
X-51535476Y-114527142D01*
X-50930714Y-114587619D01*
X-50991190Y-114527142D01*
X-51051666Y-114406190D01*
X-51051666Y-114103809D01*
X-50991190Y-113982857D01*
X-50930714Y-113922380D01*
X-50809761Y-113861904D01*
X-50507380Y-113861904D01*
X-50386428Y-113922380D01*
X-50325952Y-113982857D01*
X-50265476Y-114103809D01*
X-50265476Y-114406190D01*
X-50325952Y-114527142D01*
X-50386428Y-114587619D01*
G04 #@! TO.C,R25*
D10*
X-82907619Y-129852857D02*
X-83383809Y-130186190D01*
X-82907619Y-130424285D02*
X-83907619Y-130424285D01*
X-83907619Y-130043333D01*
X-83860000Y-129948095D01*
X-83812380Y-129900476D01*
X-83717142Y-129852857D01*
X-83574285Y-129852857D01*
X-83479047Y-129900476D01*
X-83431428Y-129948095D01*
X-83383809Y-130043333D01*
X-83383809Y-130424285D01*
X-83812380Y-129471904D02*
X-83860000Y-129424285D01*
X-83907619Y-129329047D01*
X-83907619Y-129090952D01*
X-83860000Y-128995714D01*
X-83812380Y-128948095D01*
X-83717142Y-128900476D01*
X-83621904Y-128900476D01*
X-83479047Y-128948095D01*
X-82907619Y-129519523D01*
X-82907619Y-128900476D01*
X-83907619Y-127995714D02*
X-83907619Y-128471904D01*
X-83431428Y-128519523D01*
X-83479047Y-128471904D01*
X-83526666Y-128376666D01*
X-83526666Y-128138571D01*
X-83479047Y-128043333D01*
X-83431428Y-127995714D01*
X-83336190Y-127948095D01*
X-83098095Y-127948095D01*
X-83002857Y-127995714D01*
X-82955238Y-128043333D01*
X-82907619Y-128138571D01*
X-82907619Y-128376666D01*
X-82955238Y-128471904D01*
X-83002857Y-128519523D01*
G04 #@! TO.C,R24*
X-84227619Y-129802857D02*
X-84703809Y-130136190D01*
X-84227619Y-130374285D02*
X-85227619Y-130374285D01*
X-85227619Y-129993333D01*
X-85180000Y-129898095D01*
X-85132380Y-129850476D01*
X-85037142Y-129802857D01*
X-84894285Y-129802857D01*
X-84799047Y-129850476D01*
X-84751428Y-129898095D01*
X-84703809Y-129993333D01*
X-84703809Y-130374285D01*
X-85132380Y-129421904D02*
X-85180000Y-129374285D01*
X-85227619Y-129279047D01*
X-85227619Y-129040952D01*
X-85180000Y-128945714D01*
X-85132380Y-128898095D01*
X-85037142Y-128850476D01*
X-84941904Y-128850476D01*
X-84799047Y-128898095D01*
X-84227619Y-129469523D01*
X-84227619Y-128850476D01*
X-84894285Y-127993333D02*
X-84227619Y-127993333D01*
X-85275238Y-128231428D02*
X-84560952Y-128469523D01*
X-84560952Y-127850476D01*
G04 #@! TO.C,R14*
X-43592857Y-115472380D02*
X-43926190Y-114996190D01*
X-44164285Y-115472380D02*
X-44164285Y-114472380D01*
X-43783333Y-114472380D01*
X-43688095Y-114520000D01*
X-43640476Y-114567619D01*
X-43592857Y-114662857D01*
X-43592857Y-114805714D01*
X-43640476Y-114900952D01*
X-43688095Y-114948571D01*
X-43783333Y-114996190D01*
X-44164285Y-114996190D01*
X-42640476Y-115472380D02*
X-43211904Y-115472380D01*
X-42926190Y-115472380D02*
X-42926190Y-114472380D01*
X-43021428Y-114615238D01*
X-43116666Y-114710476D01*
X-43211904Y-114758095D01*
X-41783333Y-114805714D02*
X-41783333Y-115472380D01*
X-42021428Y-114424761D02*
X-42259523Y-115139047D01*
X-41640476Y-115139047D01*
G04 #@! TO.C,R13*
X-49352857Y-95442380D02*
X-49686190Y-94966190D01*
X-49924285Y-95442380D02*
X-49924285Y-94442380D01*
X-49543333Y-94442380D01*
X-49448095Y-94490000D01*
X-49400476Y-94537619D01*
X-49352857Y-94632857D01*
X-49352857Y-94775714D01*
X-49400476Y-94870952D01*
X-49448095Y-94918571D01*
X-49543333Y-94966190D01*
X-49924285Y-94966190D01*
X-48400476Y-95442380D02*
X-48971904Y-95442380D01*
X-48686190Y-95442380D02*
X-48686190Y-94442380D01*
X-48781428Y-94585238D01*
X-48876666Y-94680476D01*
X-48971904Y-94728095D01*
X-48067142Y-94442380D02*
X-47448095Y-94442380D01*
X-47781428Y-94823333D01*
X-47638571Y-94823333D01*
X-47543333Y-94870952D01*
X-47495714Y-94918571D01*
X-47448095Y-95013809D01*
X-47448095Y-95251904D01*
X-47495714Y-95347142D01*
X-47543333Y-95394761D01*
X-47638571Y-95442380D01*
X-47924285Y-95442380D01*
X-48019523Y-95394761D01*
X-48067142Y-95347142D01*
G04 #@! TO.C,R12*
X-43577619Y-119992857D02*
X-44053809Y-120326190D01*
X-43577619Y-120564285D02*
X-44577619Y-120564285D01*
X-44577619Y-120183333D01*
X-44530000Y-120088095D01*
X-44482380Y-120040476D01*
X-44387142Y-119992857D01*
X-44244285Y-119992857D01*
X-44149047Y-120040476D01*
X-44101428Y-120088095D01*
X-44053809Y-120183333D01*
X-44053809Y-120564285D01*
X-43577619Y-119040476D02*
X-43577619Y-119611904D01*
X-43577619Y-119326190D02*
X-44577619Y-119326190D01*
X-44434761Y-119421428D01*
X-44339523Y-119516666D01*
X-44291904Y-119611904D01*
X-44482380Y-118659523D02*
X-44530000Y-118611904D01*
X-44577619Y-118516666D01*
X-44577619Y-118278571D01*
X-44530000Y-118183333D01*
X-44482380Y-118135714D01*
X-44387142Y-118088095D01*
X-44291904Y-118088095D01*
X-44149047Y-118135714D01*
X-43577619Y-118707142D01*
X-43577619Y-118088095D01*
G04 #@! TO.C,J2*
X-36923333Y-120772380D02*
X-36923333Y-121486666D01*
X-36970952Y-121629523D01*
X-37066190Y-121724761D01*
X-37209047Y-121772380D01*
X-37304285Y-121772380D01*
X-36494761Y-120867619D02*
X-36447142Y-120820000D01*
X-36351904Y-120772380D01*
X-36113809Y-120772380D01*
X-36018571Y-120820000D01*
X-35970952Y-120867619D01*
X-35923333Y-120962857D01*
X-35923333Y-121058095D01*
X-35970952Y-121200952D01*
X-36542380Y-121772380D01*
X-35923333Y-121772380D01*
G04 #@! TO.C,F1*
X-44823333Y-109738571D02*
X-45156666Y-109738571D01*
X-45156666Y-110262380D02*
X-45156666Y-109262380D01*
X-44680476Y-109262380D01*
X-43775714Y-110262380D02*
X-44347142Y-110262380D01*
X-44061428Y-110262380D02*
X-44061428Y-109262380D01*
X-44156666Y-109405238D01*
X-44251904Y-109500476D01*
X-44347142Y-109548095D01*
G04 #@! TO.C,C14*
X-46212857Y-109932857D02*
X-46165238Y-109980476D01*
X-46117619Y-110123333D01*
X-46117619Y-110218571D01*
X-46165238Y-110361428D01*
X-46260476Y-110456666D01*
X-46355714Y-110504285D01*
X-46546190Y-110551904D01*
X-46689047Y-110551904D01*
X-46879523Y-110504285D01*
X-46974761Y-110456666D01*
X-47070000Y-110361428D01*
X-47117619Y-110218571D01*
X-47117619Y-110123333D01*
X-47070000Y-109980476D01*
X-47022380Y-109932857D01*
X-46117619Y-108980476D02*
X-46117619Y-109551904D01*
X-46117619Y-109266190D02*
X-47117619Y-109266190D01*
X-46974761Y-109361428D01*
X-46879523Y-109456666D01*
X-46831904Y-109551904D01*
X-46784285Y-108123333D02*
X-46117619Y-108123333D01*
X-47165238Y-108361428D02*
X-46450952Y-108599523D01*
X-46450952Y-107980476D01*
G04 #@! TO.C,C13*
X-40662857Y-112372857D02*
X-40615238Y-112420476D01*
X-40567619Y-112563333D01*
X-40567619Y-112658571D01*
X-40615238Y-112801428D01*
X-40710476Y-112896666D01*
X-40805714Y-112944285D01*
X-40996190Y-112991904D01*
X-41139047Y-112991904D01*
X-41329523Y-112944285D01*
X-41424761Y-112896666D01*
X-41520000Y-112801428D01*
X-41567619Y-112658571D01*
X-41567619Y-112563333D01*
X-41520000Y-112420476D01*
X-41472380Y-112372857D01*
X-40567619Y-111420476D02*
X-40567619Y-111991904D01*
X-40567619Y-111706190D02*
X-41567619Y-111706190D01*
X-41424761Y-111801428D01*
X-41329523Y-111896666D01*
X-41281904Y-111991904D01*
X-41567619Y-111087142D02*
X-41567619Y-110468095D01*
X-41186666Y-110801428D01*
X-41186666Y-110658571D01*
X-41139047Y-110563333D01*
X-41091428Y-110515714D01*
X-40996190Y-110468095D01*
X-40758095Y-110468095D01*
X-40662857Y-110515714D01*
X-40615238Y-110563333D01*
X-40567619Y-110658571D01*
X-40567619Y-110944285D01*
X-40615238Y-111039523D01*
X-40662857Y-111087142D01*
G04 #@! TO.C,U6*
D15*
X-49295476Y-109117619D02*
X-48267380Y-109117619D01*
X-48146428Y-109057142D01*
X-48085952Y-108996666D01*
X-48025476Y-108875714D01*
X-48025476Y-108633809D01*
X-48085952Y-108512857D01*
X-48146428Y-108452380D01*
X-48267380Y-108391904D01*
X-49295476Y-108391904D01*
X-49295476Y-107242857D02*
X-49295476Y-107484761D01*
X-49235000Y-107605714D01*
X-49174523Y-107666190D01*
X-48993095Y-107787142D01*
X-48751190Y-107847619D01*
X-48267380Y-107847619D01*
X-48146428Y-107787142D01*
X-48085952Y-107726666D01*
X-48025476Y-107605714D01*
X-48025476Y-107363809D01*
X-48085952Y-107242857D01*
X-48146428Y-107182380D01*
X-48267380Y-107121904D01*
X-48569761Y-107121904D01*
X-48690714Y-107182380D01*
X-48751190Y-107242857D01*
X-48811666Y-107363809D01*
X-48811666Y-107605714D01*
X-48751190Y-107726666D01*
X-48690714Y-107787142D01*
X-48569761Y-107847619D01*
G04 #@! TO.C,R17*
D10*
X-48437619Y-112372857D02*
X-48913809Y-112706190D01*
X-48437619Y-112944285D02*
X-49437619Y-112944285D01*
X-49437619Y-112563333D01*
X-49390000Y-112468095D01*
X-49342380Y-112420476D01*
X-49247142Y-112372857D01*
X-49104285Y-112372857D01*
X-49009047Y-112420476D01*
X-48961428Y-112468095D01*
X-48913809Y-112563333D01*
X-48913809Y-112944285D01*
X-48437619Y-111420476D02*
X-48437619Y-111991904D01*
X-48437619Y-111706190D02*
X-49437619Y-111706190D01*
X-49294761Y-111801428D01*
X-49199523Y-111896666D01*
X-49151904Y-111991904D01*
X-49437619Y-111087142D02*
X-49437619Y-110420476D01*
X-48437619Y-110849047D01*
G04 #@! TO.C,R16*
X-48012857Y-106052380D02*
X-48346190Y-105576190D01*
X-48584285Y-106052380D02*
X-48584285Y-105052380D01*
X-48203333Y-105052380D01*
X-48108095Y-105100000D01*
X-48060476Y-105147619D01*
X-48012857Y-105242857D01*
X-48012857Y-105385714D01*
X-48060476Y-105480952D01*
X-48108095Y-105528571D01*
X-48203333Y-105576190D01*
X-48584285Y-105576190D01*
X-47060476Y-106052380D02*
X-47631904Y-106052380D01*
X-47346190Y-106052380D02*
X-47346190Y-105052380D01*
X-47441428Y-105195238D01*
X-47536666Y-105290476D01*
X-47631904Y-105338095D01*
X-46203333Y-105052380D02*
X-46393809Y-105052380D01*
X-46489047Y-105100000D01*
X-46536666Y-105147619D01*
X-46631904Y-105290476D01*
X-46679523Y-105480952D01*
X-46679523Y-105861904D01*
X-46631904Y-105957142D01*
X-46584285Y-106004761D01*
X-46489047Y-106052380D01*
X-46298571Y-106052380D01*
X-46203333Y-106004761D01*
X-46155714Y-105957142D01*
X-46108095Y-105861904D01*
X-46108095Y-105623809D01*
X-46155714Y-105528571D01*
X-46203333Y-105480952D01*
X-46298571Y-105433333D01*
X-46489047Y-105433333D01*
X-46584285Y-105480952D01*
X-46631904Y-105528571D01*
X-46679523Y-105623809D01*
G04 #@! TO.C,J3*
X-49513333Y-96252380D02*
X-49513333Y-96966666D01*
X-49560952Y-97109523D01*
X-49656190Y-97204761D01*
X-49799047Y-97252380D01*
X-49894285Y-97252380D01*
X-49132380Y-96252380D02*
X-48513333Y-96252380D01*
X-48846666Y-96633333D01*
X-48703809Y-96633333D01*
X-48608571Y-96680952D01*
X-48560952Y-96728571D01*
X-48513333Y-96823809D01*
X-48513333Y-97061904D01*
X-48560952Y-97157142D01*
X-48608571Y-97204761D01*
X-48703809Y-97252380D01*
X-48989523Y-97252380D01*
X-49084761Y-97204761D01*
X-49132380Y-97157142D01*
G04 #@! TO.C,C17*
X-53352857Y-112267142D02*
X-53400476Y-112314761D01*
X-53543333Y-112362380D01*
X-53638571Y-112362380D01*
X-53781428Y-112314761D01*
X-53876666Y-112219523D01*
X-53924285Y-112124285D01*
X-53971904Y-111933809D01*
X-53971904Y-111790952D01*
X-53924285Y-111600476D01*
X-53876666Y-111505238D01*
X-53781428Y-111410000D01*
X-53638571Y-111362380D01*
X-53543333Y-111362380D01*
X-53400476Y-111410000D01*
X-53352857Y-111457619D01*
X-52400476Y-112362380D02*
X-52971904Y-112362380D01*
X-52686190Y-112362380D02*
X-52686190Y-111362380D01*
X-52781428Y-111505238D01*
X-52876666Y-111600476D01*
X-52971904Y-111648095D01*
X-52067142Y-111362380D02*
X-51400476Y-111362380D01*
X-51829047Y-112362380D01*
G04 #@! TO.C,U8*
D15*
X-57167619Y-103394523D02*
X-57167619Y-104422619D01*
X-57107142Y-104543571D01*
X-57046666Y-104604047D01*
X-56925714Y-104664523D01*
X-56683809Y-104664523D01*
X-56562857Y-104604047D01*
X-56502380Y-104543571D01*
X-56441904Y-104422619D01*
X-56441904Y-103394523D01*
X-55655714Y-103938809D02*
X-55776666Y-103878333D01*
X-55837142Y-103817857D01*
X-55897619Y-103696904D01*
X-55897619Y-103636428D01*
X-55837142Y-103515476D01*
X-55776666Y-103455000D01*
X-55655714Y-103394523D01*
X-55413809Y-103394523D01*
X-55292857Y-103455000D01*
X-55232380Y-103515476D01*
X-55171904Y-103636428D01*
X-55171904Y-103696904D01*
X-55232380Y-103817857D01*
X-55292857Y-103878333D01*
X-55413809Y-103938809D01*
X-55655714Y-103938809D01*
X-55776666Y-103999285D01*
X-55837142Y-104059761D01*
X-55897619Y-104180714D01*
X-55897619Y-104422619D01*
X-55837142Y-104543571D01*
X-55776666Y-104604047D01*
X-55655714Y-104664523D01*
X-55413809Y-104664523D01*
X-55292857Y-104604047D01*
X-55232380Y-104543571D01*
X-55171904Y-104422619D01*
X-55171904Y-104180714D01*
X-55232380Y-104059761D01*
X-55292857Y-103999285D01*
X-55413809Y-103938809D01*
G04 #@! TO.C,Q1*
X-48420952Y-101835476D02*
X-48541904Y-101775000D01*
X-48662857Y-101654047D01*
X-48844285Y-101472619D01*
X-48965238Y-101412142D01*
X-49086190Y-101412142D01*
X-49025714Y-101714523D02*
X-49146666Y-101654047D01*
X-49267619Y-101533095D01*
X-49328095Y-101291190D01*
X-49328095Y-100867857D01*
X-49267619Y-100625952D01*
X-49146666Y-100505000D01*
X-49025714Y-100444523D01*
X-48783809Y-100444523D01*
X-48662857Y-100505000D01*
X-48541904Y-100625952D01*
X-48481428Y-100867857D01*
X-48481428Y-101291190D01*
X-48541904Y-101533095D01*
X-48662857Y-101654047D01*
X-48783809Y-101714523D01*
X-49025714Y-101714523D01*
X-47271904Y-101714523D02*
X-47997619Y-101714523D01*
X-47634761Y-101714523D02*
X-47634761Y-100444523D01*
X-47755714Y-100625952D01*
X-47876666Y-100746904D01*
X-47997619Y-100807380D01*
G04 #@! TO.C,R23*
D10*
X-60372857Y-99432380D02*
X-60706190Y-98956190D01*
X-60944285Y-99432380D02*
X-60944285Y-98432380D01*
X-60563333Y-98432380D01*
X-60468095Y-98480000D01*
X-60420476Y-98527619D01*
X-60372857Y-98622857D01*
X-60372857Y-98765714D01*
X-60420476Y-98860952D01*
X-60468095Y-98908571D01*
X-60563333Y-98956190D01*
X-60944285Y-98956190D01*
X-59991904Y-98527619D02*
X-59944285Y-98480000D01*
X-59849047Y-98432380D01*
X-59610952Y-98432380D01*
X-59515714Y-98480000D01*
X-59468095Y-98527619D01*
X-59420476Y-98622857D01*
X-59420476Y-98718095D01*
X-59468095Y-98860952D01*
X-60039523Y-99432380D01*
X-59420476Y-99432380D01*
X-59087142Y-98432380D02*
X-58468095Y-98432380D01*
X-58801428Y-98813333D01*
X-58658571Y-98813333D01*
X-58563333Y-98860952D01*
X-58515714Y-98908571D01*
X-58468095Y-99003809D01*
X-58468095Y-99241904D01*
X-58515714Y-99337142D01*
X-58563333Y-99384761D01*
X-58658571Y-99432380D01*
X-58944285Y-99432380D01*
X-59039523Y-99384761D01*
X-59087142Y-99337142D01*
G04 #@! TO.C,R20*
X-53042857Y-99512380D02*
X-53376190Y-99036190D01*
X-53614285Y-99512380D02*
X-53614285Y-98512380D01*
X-53233333Y-98512380D01*
X-53138095Y-98560000D01*
X-53090476Y-98607619D01*
X-53042857Y-98702857D01*
X-53042857Y-98845714D01*
X-53090476Y-98940952D01*
X-53138095Y-98988571D01*
X-53233333Y-99036190D01*
X-53614285Y-99036190D01*
X-52661904Y-98607619D02*
X-52614285Y-98560000D01*
X-52519047Y-98512380D01*
X-52280952Y-98512380D01*
X-52185714Y-98560000D01*
X-52138095Y-98607619D01*
X-52090476Y-98702857D01*
X-52090476Y-98798095D01*
X-52138095Y-98940952D01*
X-52709523Y-99512380D01*
X-52090476Y-99512380D01*
X-51471428Y-98512380D02*
X-51376190Y-98512380D01*
X-51280952Y-98560000D01*
X-51233333Y-98607619D01*
X-51185714Y-98702857D01*
X-51138095Y-98893333D01*
X-51138095Y-99131428D01*
X-51185714Y-99321904D01*
X-51233333Y-99417142D01*
X-51280952Y-99464761D01*
X-51376190Y-99512380D01*
X-51471428Y-99512380D01*
X-51566666Y-99464761D01*
X-51614285Y-99417142D01*
X-51661904Y-99321904D01*
X-51709523Y-99131428D01*
X-51709523Y-98893333D01*
X-51661904Y-98702857D01*
X-51614285Y-98607619D01*
X-51566666Y-98560000D01*
X-51471428Y-98512380D01*
G04 #@! TO.C,C24*
X-60262857Y-100597142D02*
X-60310476Y-100644761D01*
X-60453333Y-100692380D01*
X-60548571Y-100692380D01*
X-60691428Y-100644761D01*
X-60786666Y-100549523D01*
X-60834285Y-100454285D01*
X-60881904Y-100263809D01*
X-60881904Y-100120952D01*
X-60834285Y-99930476D01*
X-60786666Y-99835238D01*
X-60691428Y-99740000D01*
X-60548571Y-99692380D01*
X-60453333Y-99692380D01*
X-60310476Y-99740000D01*
X-60262857Y-99787619D01*
X-59881904Y-99787619D02*
X-59834285Y-99740000D01*
X-59739047Y-99692380D01*
X-59500952Y-99692380D01*
X-59405714Y-99740000D01*
X-59358095Y-99787619D01*
X-59310476Y-99882857D01*
X-59310476Y-99978095D01*
X-59358095Y-100120952D01*
X-59929523Y-100692380D01*
X-59310476Y-100692380D01*
X-58453333Y-100025714D02*
X-58453333Y-100692380D01*
X-58691428Y-99644761D02*
X-58929523Y-100359047D01*
X-58310476Y-100359047D01*
G04 #@! TO.C,U7*
D15*
X-70767619Y-107804523D02*
X-70767619Y-108832619D01*
X-70707142Y-108953571D01*
X-70646666Y-109014047D01*
X-70525714Y-109074523D01*
X-70283809Y-109074523D01*
X-70162857Y-109014047D01*
X-70102380Y-108953571D01*
X-70041904Y-108832619D01*
X-70041904Y-107804523D01*
X-69558095Y-107804523D02*
X-68711428Y-107804523D01*
X-69255714Y-109074523D01*
G04 #@! TO.C,R22*
D10*
X-63832857Y-99902380D02*
X-64166190Y-99426190D01*
X-64404285Y-99902380D02*
X-64404285Y-98902380D01*
X-64023333Y-98902380D01*
X-63928095Y-98950000D01*
X-63880476Y-98997619D01*
X-63832857Y-99092857D01*
X-63832857Y-99235714D01*
X-63880476Y-99330952D01*
X-63928095Y-99378571D01*
X-64023333Y-99426190D01*
X-64404285Y-99426190D01*
X-63451904Y-98997619D02*
X-63404285Y-98950000D01*
X-63309047Y-98902380D01*
X-63070952Y-98902380D01*
X-62975714Y-98950000D01*
X-62928095Y-98997619D01*
X-62880476Y-99092857D01*
X-62880476Y-99188095D01*
X-62928095Y-99330952D01*
X-63499523Y-99902380D01*
X-62880476Y-99902380D01*
X-62499523Y-98997619D02*
X-62451904Y-98950000D01*
X-62356666Y-98902380D01*
X-62118571Y-98902380D01*
X-62023333Y-98950000D01*
X-61975714Y-98997619D01*
X-61928095Y-99092857D01*
X-61928095Y-99188095D01*
X-61975714Y-99330952D01*
X-62547142Y-99902380D01*
X-61928095Y-99902380D01*
G04 #@! TO.C,R21*
X-63832857Y-98682380D02*
X-64166190Y-98206190D01*
X-64404285Y-98682380D02*
X-64404285Y-97682380D01*
X-64023333Y-97682380D01*
X-63928095Y-97730000D01*
X-63880476Y-97777619D01*
X-63832857Y-97872857D01*
X-63832857Y-98015714D01*
X-63880476Y-98110952D01*
X-63928095Y-98158571D01*
X-64023333Y-98206190D01*
X-64404285Y-98206190D01*
X-63451904Y-97777619D02*
X-63404285Y-97730000D01*
X-63309047Y-97682380D01*
X-63070952Y-97682380D01*
X-62975714Y-97730000D01*
X-62928095Y-97777619D01*
X-62880476Y-97872857D01*
X-62880476Y-97968095D01*
X-62928095Y-98110952D01*
X-63499523Y-98682380D01*
X-62880476Y-98682380D01*
X-61928095Y-98682380D02*
X-62499523Y-98682380D01*
X-62213809Y-98682380D02*
X-62213809Y-97682380D01*
X-62309047Y-97825238D01*
X-62404285Y-97920476D01*
X-62499523Y-97968095D01*
G04 #@! TO.C,R19*
X-66292857Y-113142380D02*
X-66626190Y-112666190D01*
X-66864285Y-113142380D02*
X-66864285Y-112142380D01*
X-66483333Y-112142380D01*
X-66388095Y-112190000D01*
X-66340476Y-112237619D01*
X-66292857Y-112332857D01*
X-66292857Y-112475714D01*
X-66340476Y-112570952D01*
X-66388095Y-112618571D01*
X-66483333Y-112666190D01*
X-66864285Y-112666190D01*
X-65340476Y-113142380D02*
X-65911904Y-113142380D01*
X-65626190Y-113142380D02*
X-65626190Y-112142380D01*
X-65721428Y-112285238D01*
X-65816666Y-112380476D01*
X-65911904Y-112428095D01*
X-64864285Y-113142380D02*
X-64673809Y-113142380D01*
X-64578571Y-113094761D01*
X-64530952Y-113047142D01*
X-64435714Y-112904285D01*
X-64388095Y-112713809D01*
X-64388095Y-112332857D01*
X-64435714Y-112237619D01*
X-64483333Y-112190000D01*
X-64578571Y-112142380D01*
X-64769047Y-112142380D01*
X-64864285Y-112190000D01*
X-64911904Y-112237619D01*
X-64959523Y-112332857D01*
X-64959523Y-112570952D01*
X-64911904Y-112666190D01*
X-64864285Y-112713809D01*
X-64769047Y-112761428D01*
X-64578571Y-112761428D01*
X-64483333Y-112713809D01*
X-64435714Y-112666190D01*
X-64388095Y-112570952D01*
G04 #@! TO.C,R18*
X-66392857Y-114392380D02*
X-66726190Y-113916190D01*
X-66964285Y-114392380D02*
X-66964285Y-113392380D01*
X-66583333Y-113392380D01*
X-66488095Y-113440000D01*
X-66440476Y-113487619D01*
X-66392857Y-113582857D01*
X-66392857Y-113725714D01*
X-66440476Y-113820952D01*
X-66488095Y-113868571D01*
X-66583333Y-113916190D01*
X-66964285Y-113916190D01*
X-65440476Y-114392380D02*
X-66011904Y-114392380D01*
X-65726190Y-114392380D02*
X-65726190Y-113392380D01*
X-65821428Y-113535238D01*
X-65916666Y-113630476D01*
X-66011904Y-113678095D01*
X-64869047Y-113820952D02*
X-64964285Y-113773333D01*
X-65011904Y-113725714D01*
X-65059523Y-113630476D01*
X-65059523Y-113582857D01*
X-65011904Y-113487619D01*
X-64964285Y-113440000D01*
X-64869047Y-113392380D01*
X-64678571Y-113392380D01*
X-64583333Y-113440000D01*
X-64535714Y-113487619D01*
X-64488095Y-113582857D01*
X-64488095Y-113630476D01*
X-64535714Y-113725714D01*
X-64583333Y-113773333D01*
X-64678571Y-113820952D01*
X-64869047Y-113820952D01*
X-64964285Y-113868571D01*
X-65011904Y-113916190D01*
X-65059523Y-114011428D01*
X-65059523Y-114201904D01*
X-65011904Y-114297142D01*
X-64964285Y-114344761D01*
X-64869047Y-114392380D01*
X-64678571Y-114392380D01*
X-64583333Y-114344761D01*
X-64535714Y-114297142D01*
X-64488095Y-114201904D01*
X-64488095Y-114011428D01*
X-64535714Y-113916190D01*
X-64583333Y-113868571D01*
X-64678571Y-113820952D01*
G04 #@! TO.C,R15*
X-68922857Y-111162380D02*
X-69256190Y-110686190D01*
X-69494285Y-111162380D02*
X-69494285Y-110162380D01*
X-69113333Y-110162380D01*
X-69018095Y-110210000D01*
X-68970476Y-110257619D01*
X-68922857Y-110352857D01*
X-68922857Y-110495714D01*
X-68970476Y-110590952D01*
X-69018095Y-110638571D01*
X-69113333Y-110686190D01*
X-69494285Y-110686190D01*
X-67970476Y-111162380D02*
X-68541904Y-111162380D01*
X-68256190Y-111162380D02*
X-68256190Y-110162380D01*
X-68351428Y-110305238D01*
X-68446666Y-110400476D01*
X-68541904Y-110448095D01*
X-67065714Y-110162380D02*
X-67541904Y-110162380D01*
X-67589523Y-110638571D01*
X-67541904Y-110590952D01*
X-67446666Y-110543333D01*
X-67208571Y-110543333D01*
X-67113333Y-110590952D01*
X-67065714Y-110638571D01*
X-67018095Y-110733809D01*
X-67018095Y-110971904D01*
X-67065714Y-111067142D01*
X-67113333Y-111114761D01*
X-67208571Y-111162380D01*
X-67446666Y-111162380D01*
X-67541904Y-111114761D01*
X-67589523Y-111067142D01*
G04 #@! TO.C,L1*
X-67706666Y-101862380D02*
X-68182857Y-101862380D01*
X-68182857Y-100862380D01*
X-66849523Y-101862380D02*
X-67420952Y-101862380D01*
X-67135238Y-101862380D02*
X-67135238Y-100862380D01*
X-67230476Y-101005238D01*
X-67325714Y-101100476D01*
X-67420952Y-101148095D01*
G04 #@! TO.C,D2*
X-63928095Y-102212380D02*
X-63928095Y-101212380D01*
X-63690000Y-101212380D01*
X-63547142Y-101260000D01*
X-63451904Y-101355238D01*
X-63404285Y-101450476D01*
X-63356666Y-101640952D01*
X-63356666Y-101783809D01*
X-63404285Y-101974285D01*
X-63451904Y-102069523D01*
X-63547142Y-102164761D01*
X-63690000Y-102212380D01*
X-63928095Y-102212380D01*
X-62975714Y-101307619D02*
X-62928095Y-101260000D01*
X-62832857Y-101212380D01*
X-62594761Y-101212380D01*
X-62499523Y-101260000D01*
X-62451904Y-101307619D01*
X-62404285Y-101402857D01*
X-62404285Y-101498095D01*
X-62451904Y-101640952D01*
X-63023333Y-102212380D01*
X-62404285Y-102212380D01*
G04 #@! TO.C,D1*
X-63928095Y-91362380D02*
X-63928095Y-90362380D01*
X-63690000Y-90362380D01*
X-63547142Y-90410000D01*
X-63451904Y-90505238D01*
X-63404285Y-90600476D01*
X-63356666Y-90790952D01*
X-63356666Y-90933809D01*
X-63404285Y-91124285D01*
X-63451904Y-91219523D01*
X-63547142Y-91314761D01*
X-63690000Y-91362380D01*
X-63928095Y-91362380D01*
X-62404285Y-91362380D02*
X-62975714Y-91362380D01*
X-62690000Y-91362380D02*
X-62690000Y-90362380D01*
X-62785238Y-90505238D01*
X-62880476Y-90600476D01*
X-62975714Y-90648095D01*
G04 #@! TO.C,C25*
X-63832857Y-92537142D02*
X-63880476Y-92584761D01*
X-64023333Y-92632380D01*
X-64118571Y-92632380D01*
X-64261428Y-92584761D01*
X-64356666Y-92489523D01*
X-64404285Y-92394285D01*
X-64451904Y-92203809D01*
X-64451904Y-92060952D01*
X-64404285Y-91870476D01*
X-64356666Y-91775238D01*
X-64261428Y-91680000D01*
X-64118571Y-91632380D01*
X-64023333Y-91632380D01*
X-63880476Y-91680000D01*
X-63832857Y-91727619D01*
X-63451904Y-91727619D02*
X-63404285Y-91680000D01*
X-63309047Y-91632380D01*
X-63070952Y-91632380D01*
X-62975714Y-91680000D01*
X-62928095Y-91727619D01*
X-62880476Y-91822857D01*
X-62880476Y-91918095D01*
X-62928095Y-92060952D01*
X-63499523Y-92632380D01*
X-62880476Y-92632380D01*
X-61975714Y-91632380D02*
X-62451904Y-91632380D01*
X-62499523Y-92108571D01*
X-62451904Y-92060952D01*
X-62356666Y-92013333D01*
X-62118571Y-92013333D01*
X-62023333Y-92060952D01*
X-61975714Y-92108571D01*
X-61928095Y-92203809D01*
X-61928095Y-92441904D01*
X-61975714Y-92537142D01*
X-62023333Y-92584761D01*
X-62118571Y-92632380D01*
X-62356666Y-92632380D01*
X-62451904Y-92584761D01*
X-62499523Y-92537142D01*
G04 #@! TO.C,C23*
X-63832857Y-97407142D02*
X-63880476Y-97454761D01*
X-64023333Y-97502380D01*
X-64118571Y-97502380D01*
X-64261428Y-97454761D01*
X-64356666Y-97359523D01*
X-64404285Y-97264285D01*
X-64451904Y-97073809D01*
X-64451904Y-96930952D01*
X-64404285Y-96740476D01*
X-64356666Y-96645238D01*
X-64261428Y-96550000D01*
X-64118571Y-96502380D01*
X-64023333Y-96502380D01*
X-63880476Y-96550000D01*
X-63832857Y-96597619D01*
X-63451904Y-96597619D02*
X-63404285Y-96550000D01*
X-63309047Y-96502380D01*
X-63070952Y-96502380D01*
X-62975714Y-96550000D01*
X-62928095Y-96597619D01*
X-62880476Y-96692857D01*
X-62880476Y-96788095D01*
X-62928095Y-96930952D01*
X-63499523Y-97502380D01*
X-62880476Y-97502380D01*
X-62547142Y-96502380D02*
X-61928095Y-96502380D01*
X-62261428Y-96883333D01*
X-62118571Y-96883333D01*
X-62023333Y-96930952D01*
X-61975714Y-96978571D01*
X-61928095Y-97073809D01*
X-61928095Y-97311904D01*
X-61975714Y-97407142D01*
X-62023333Y-97454761D01*
X-62118571Y-97502380D01*
X-62404285Y-97502380D01*
X-62499523Y-97454761D01*
X-62547142Y-97407142D01*
G04 #@! TO.C,C22*
X-63832857Y-96237142D02*
X-63880476Y-96284761D01*
X-64023333Y-96332380D01*
X-64118571Y-96332380D01*
X-64261428Y-96284761D01*
X-64356666Y-96189523D01*
X-64404285Y-96094285D01*
X-64451904Y-95903809D01*
X-64451904Y-95760952D01*
X-64404285Y-95570476D01*
X-64356666Y-95475238D01*
X-64261428Y-95380000D01*
X-64118571Y-95332380D01*
X-64023333Y-95332380D01*
X-63880476Y-95380000D01*
X-63832857Y-95427619D01*
X-63451904Y-95427619D02*
X-63404285Y-95380000D01*
X-63309047Y-95332380D01*
X-63070952Y-95332380D01*
X-62975714Y-95380000D01*
X-62928095Y-95427619D01*
X-62880476Y-95522857D01*
X-62880476Y-95618095D01*
X-62928095Y-95760952D01*
X-63499523Y-96332380D01*
X-62880476Y-96332380D01*
X-62499523Y-95427619D02*
X-62451904Y-95380000D01*
X-62356666Y-95332380D01*
X-62118571Y-95332380D01*
X-62023333Y-95380000D01*
X-61975714Y-95427619D01*
X-61928095Y-95522857D01*
X-61928095Y-95618095D01*
X-61975714Y-95760952D01*
X-62547142Y-96332380D01*
X-61928095Y-96332380D01*
G04 #@! TO.C,C21*
X-63832857Y-100987142D02*
X-63880476Y-101034761D01*
X-64023333Y-101082380D01*
X-64118571Y-101082380D01*
X-64261428Y-101034761D01*
X-64356666Y-100939523D01*
X-64404285Y-100844285D01*
X-64451904Y-100653809D01*
X-64451904Y-100510952D01*
X-64404285Y-100320476D01*
X-64356666Y-100225238D01*
X-64261428Y-100130000D01*
X-64118571Y-100082380D01*
X-64023333Y-100082380D01*
X-63880476Y-100130000D01*
X-63832857Y-100177619D01*
X-63451904Y-100177619D02*
X-63404285Y-100130000D01*
X-63309047Y-100082380D01*
X-63070952Y-100082380D01*
X-62975714Y-100130000D01*
X-62928095Y-100177619D01*
X-62880476Y-100272857D01*
X-62880476Y-100368095D01*
X-62928095Y-100510952D01*
X-63499523Y-101082380D01*
X-62880476Y-101082380D01*
X-61928095Y-101082380D02*
X-62499523Y-101082380D01*
X-62213809Y-101082380D02*
X-62213809Y-100082380D01*
X-62309047Y-100225238D01*
X-62404285Y-100320476D01*
X-62499523Y-100368095D01*
G04 #@! TO.C,C20*
X-63832857Y-95007142D02*
X-63880476Y-95054761D01*
X-64023333Y-95102380D01*
X-64118571Y-95102380D01*
X-64261428Y-95054761D01*
X-64356666Y-94959523D01*
X-64404285Y-94864285D01*
X-64451904Y-94673809D01*
X-64451904Y-94530952D01*
X-64404285Y-94340476D01*
X-64356666Y-94245238D01*
X-64261428Y-94150000D01*
X-64118571Y-94102380D01*
X-64023333Y-94102380D01*
X-63880476Y-94150000D01*
X-63832857Y-94197619D01*
X-63451904Y-94197619D02*
X-63404285Y-94150000D01*
X-63309047Y-94102380D01*
X-63070952Y-94102380D01*
X-62975714Y-94150000D01*
X-62928095Y-94197619D01*
X-62880476Y-94292857D01*
X-62880476Y-94388095D01*
X-62928095Y-94530952D01*
X-63499523Y-95102380D01*
X-62880476Y-95102380D01*
X-62261428Y-94102380D02*
X-62166190Y-94102380D01*
X-62070952Y-94150000D01*
X-62023333Y-94197619D01*
X-61975714Y-94292857D01*
X-61928095Y-94483333D01*
X-61928095Y-94721428D01*
X-61975714Y-94911904D01*
X-62023333Y-95007142D01*
X-62070952Y-95054761D01*
X-62166190Y-95102380D01*
X-62261428Y-95102380D01*
X-62356666Y-95054761D01*
X-62404285Y-95007142D01*
X-62451904Y-94911904D01*
X-62499523Y-94721428D01*
X-62499523Y-94483333D01*
X-62451904Y-94292857D01*
X-62404285Y-94197619D01*
X-62356666Y-94150000D01*
X-62261428Y-94102380D01*
G04 #@! TO.C,C19*
X-63832857Y-93747142D02*
X-63880476Y-93794761D01*
X-64023333Y-93842380D01*
X-64118571Y-93842380D01*
X-64261428Y-93794761D01*
X-64356666Y-93699523D01*
X-64404285Y-93604285D01*
X-64451904Y-93413809D01*
X-64451904Y-93270952D01*
X-64404285Y-93080476D01*
X-64356666Y-92985238D01*
X-64261428Y-92890000D01*
X-64118571Y-92842380D01*
X-64023333Y-92842380D01*
X-63880476Y-92890000D01*
X-63832857Y-92937619D01*
X-62880476Y-93842380D02*
X-63451904Y-93842380D01*
X-63166190Y-93842380D02*
X-63166190Y-92842380D01*
X-63261428Y-92985238D01*
X-63356666Y-93080476D01*
X-63451904Y-93128095D01*
X-62404285Y-93842380D02*
X-62213809Y-93842380D01*
X-62118571Y-93794761D01*
X-62070952Y-93747142D01*
X-61975714Y-93604285D01*
X-61928095Y-93413809D01*
X-61928095Y-93032857D01*
X-61975714Y-92937619D01*
X-62023333Y-92890000D01*
X-62118571Y-92842380D01*
X-62309047Y-92842380D01*
X-62404285Y-92890000D01*
X-62451904Y-92937619D01*
X-62499523Y-93032857D01*
X-62499523Y-93270952D01*
X-62451904Y-93366190D01*
X-62404285Y-93413809D01*
X-62309047Y-93461428D01*
X-62118571Y-93461428D01*
X-62023333Y-93413809D01*
X-61975714Y-93366190D01*
X-61928095Y-93270952D01*
G04 #@! TO.C,C18*
X-66232857Y-115487142D02*
X-66280476Y-115534761D01*
X-66423333Y-115582380D01*
X-66518571Y-115582380D01*
X-66661428Y-115534761D01*
X-66756666Y-115439523D01*
X-66804285Y-115344285D01*
X-66851904Y-115153809D01*
X-66851904Y-115010952D01*
X-66804285Y-114820476D01*
X-66756666Y-114725238D01*
X-66661428Y-114630000D01*
X-66518571Y-114582380D01*
X-66423333Y-114582380D01*
X-66280476Y-114630000D01*
X-66232857Y-114677619D01*
X-65280476Y-115582380D02*
X-65851904Y-115582380D01*
X-65566190Y-115582380D02*
X-65566190Y-114582380D01*
X-65661428Y-114725238D01*
X-65756666Y-114820476D01*
X-65851904Y-114868095D01*
X-64709047Y-115010952D02*
X-64804285Y-114963333D01*
X-64851904Y-114915714D01*
X-64899523Y-114820476D01*
X-64899523Y-114772857D01*
X-64851904Y-114677619D01*
X-64804285Y-114630000D01*
X-64709047Y-114582380D01*
X-64518571Y-114582380D01*
X-64423333Y-114630000D01*
X-64375714Y-114677619D01*
X-64328095Y-114772857D01*
X-64328095Y-114820476D01*
X-64375714Y-114915714D01*
X-64423333Y-114963333D01*
X-64518571Y-115010952D01*
X-64709047Y-115010952D01*
X-64804285Y-115058571D01*
X-64851904Y-115106190D01*
X-64899523Y-115201428D01*
X-64899523Y-115391904D01*
X-64851904Y-115487142D01*
X-64804285Y-115534761D01*
X-64709047Y-115582380D01*
X-64518571Y-115582380D01*
X-64423333Y-115534761D01*
X-64375714Y-115487142D01*
X-64328095Y-115391904D01*
X-64328095Y-115201428D01*
X-64375714Y-115106190D01*
X-64423333Y-115058571D01*
X-64518571Y-115010952D01*
G04 #@! TO.C,C16*
X-70862857Y-107272857D02*
X-70815238Y-107320476D01*
X-70767619Y-107463333D01*
X-70767619Y-107558571D01*
X-70815238Y-107701428D01*
X-70910476Y-107796666D01*
X-71005714Y-107844285D01*
X-71196190Y-107891904D01*
X-71339047Y-107891904D01*
X-71529523Y-107844285D01*
X-71624761Y-107796666D01*
X-71720000Y-107701428D01*
X-71767619Y-107558571D01*
X-71767619Y-107463333D01*
X-71720000Y-107320476D01*
X-71672380Y-107272857D01*
X-70767619Y-106320476D02*
X-70767619Y-106891904D01*
X-70767619Y-106606190D02*
X-71767619Y-106606190D01*
X-71624761Y-106701428D01*
X-71529523Y-106796666D01*
X-71481904Y-106891904D01*
X-71767619Y-105463333D02*
X-71767619Y-105653809D01*
X-71720000Y-105749047D01*
X-71672380Y-105796666D01*
X-71529523Y-105891904D01*
X-71339047Y-105939523D01*
X-70958095Y-105939523D01*
X-70862857Y-105891904D01*
X-70815238Y-105844285D01*
X-70767619Y-105749047D01*
X-70767619Y-105558571D01*
X-70815238Y-105463333D01*
X-70862857Y-105415714D01*
X-70958095Y-105368095D01*
X-71196190Y-105368095D01*
X-71291428Y-105415714D01*
X-71339047Y-105463333D01*
X-71386666Y-105558571D01*
X-71386666Y-105749047D01*
X-71339047Y-105844285D01*
X-71291428Y-105891904D01*
X-71196190Y-105939523D01*
G04 #@! TO.C,C15*
X-72022857Y-107262857D02*
X-71975238Y-107310476D01*
X-71927619Y-107453333D01*
X-71927619Y-107548571D01*
X-71975238Y-107691428D01*
X-72070476Y-107786666D01*
X-72165714Y-107834285D01*
X-72356190Y-107881904D01*
X-72499047Y-107881904D01*
X-72689523Y-107834285D01*
X-72784761Y-107786666D01*
X-72880000Y-107691428D01*
X-72927619Y-107548571D01*
X-72927619Y-107453333D01*
X-72880000Y-107310476D01*
X-72832380Y-107262857D01*
X-71927619Y-106310476D02*
X-71927619Y-106881904D01*
X-71927619Y-106596190D02*
X-72927619Y-106596190D01*
X-72784761Y-106691428D01*
X-72689523Y-106786666D01*
X-72641904Y-106881904D01*
X-72927619Y-105405714D02*
X-72927619Y-105881904D01*
X-72451428Y-105929523D01*
X-72499047Y-105881904D01*
X-72546666Y-105786666D01*
X-72546666Y-105548571D01*
X-72499047Y-105453333D01*
X-72451428Y-105405714D01*
X-72356190Y-105358095D01*
X-72118095Y-105358095D01*
X-72022857Y-105405714D01*
X-71975238Y-105453333D01*
X-71927619Y-105548571D01*
X-71927619Y-105786666D01*
X-71975238Y-105881904D01*
X-72022857Y-105929523D01*
G04 #@! TO.C,R7*
X-64697619Y-124296666D02*
X-65173809Y-124630000D01*
X-64697619Y-124868095D02*
X-65697619Y-124868095D01*
X-65697619Y-124487142D01*
X-65650000Y-124391904D01*
X-65602380Y-124344285D01*
X-65507142Y-124296666D01*
X-65364285Y-124296666D01*
X-65269047Y-124344285D01*
X-65221428Y-124391904D01*
X-65173809Y-124487142D01*
X-65173809Y-124868095D01*
X-65697619Y-123963333D02*
X-65697619Y-123296666D01*
X-64697619Y-123725238D01*
G04 #@! TO.C,C10*
X-56052857Y-121162857D02*
X-56005238Y-121210476D01*
X-55957619Y-121353333D01*
X-55957619Y-121448571D01*
X-56005238Y-121591428D01*
X-56100476Y-121686666D01*
X-56195714Y-121734285D01*
X-56386190Y-121781904D01*
X-56529047Y-121781904D01*
X-56719523Y-121734285D01*
X-56814761Y-121686666D01*
X-56910000Y-121591428D01*
X-56957619Y-121448571D01*
X-56957619Y-121353333D01*
X-56910000Y-121210476D01*
X-56862380Y-121162857D01*
X-55957619Y-120210476D02*
X-55957619Y-120781904D01*
X-55957619Y-120496190D02*
X-56957619Y-120496190D01*
X-56814761Y-120591428D01*
X-56719523Y-120686666D01*
X-56671904Y-120781904D01*
X-56957619Y-119591428D02*
X-56957619Y-119496190D01*
X-56910000Y-119400952D01*
X-56862380Y-119353333D01*
X-56767142Y-119305714D01*
X-56576666Y-119258095D01*
X-56338571Y-119258095D01*
X-56148095Y-119305714D01*
X-56052857Y-119353333D01*
X-56005238Y-119400952D01*
X-55957619Y-119496190D01*
X-55957619Y-119591428D01*
X-56005238Y-119686666D01*
X-56052857Y-119734285D01*
X-56148095Y-119781904D01*
X-56338571Y-119829523D01*
X-56576666Y-119829523D01*
X-56767142Y-119781904D01*
X-56862380Y-119734285D01*
X-56910000Y-119686666D01*
X-56957619Y-119591428D01*
G04 #@! TO.C,U2*
D15*
X-77035476Y-115317619D02*
X-76007380Y-115317619D01*
X-75886428Y-115257142D01*
X-75825952Y-115196666D01*
X-75765476Y-115075714D01*
X-75765476Y-114833809D01*
X-75825952Y-114712857D01*
X-75886428Y-114652380D01*
X-76007380Y-114591904D01*
X-77035476Y-114591904D01*
X-76914523Y-114047619D02*
X-76975000Y-113987142D01*
X-77035476Y-113866190D01*
X-77035476Y-113563809D01*
X-76975000Y-113442857D01*
X-76914523Y-113382380D01*
X-76793571Y-113321904D01*
X-76672619Y-113321904D01*
X-76491190Y-113382380D01*
X-75765476Y-114108095D01*
X-75765476Y-113321904D01*
G04 #@! TO.C,R6*
D10*
X-79616666Y-116592380D02*
X-79950000Y-116116190D01*
X-80188095Y-116592380D02*
X-80188095Y-115592380D01*
X-79807142Y-115592380D01*
X-79711904Y-115640000D01*
X-79664285Y-115687619D01*
X-79616666Y-115782857D01*
X-79616666Y-115925714D01*
X-79664285Y-116020952D01*
X-79711904Y-116068571D01*
X-79807142Y-116116190D01*
X-80188095Y-116116190D01*
X-78759523Y-115592380D02*
X-78950000Y-115592380D01*
X-79045238Y-115640000D01*
X-79092857Y-115687619D01*
X-79188095Y-115830476D01*
X-79235714Y-116020952D01*
X-79235714Y-116401904D01*
X-79188095Y-116497142D01*
X-79140476Y-116544761D01*
X-79045238Y-116592380D01*
X-78854761Y-116592380D01*
X-78759523Y-116544761D01*
X-78711904Y-116497142D01*
X-78664285Y-116401904D01*
X-78664285Y-116163809D01*
X-78711904Y-116068571D01*
X-78759523Y-116020952D01*
X-78854761Y-115973333D01*
X-79045238Y-115973333D01*
X-79140476Y-116020952D01*
X-79188095Y-116068571D01*
X-79235714Y-116163809D01*
G04 #@! TO.C,R5*
X-81446666Y-116652380D02*
X-81780000Y-116176190D01*
X-82018095Y-116652380D02*
X-82018095Y-115652380D01*
X-81637142Y-115652380D01*
X-81541904Y-115700000D01*
X-81494285Y-115747619D01*
X-81446666Y-115842857D01*
X-81446666Y-115985714D01*
X-81494285Y-116080952D01*
X-81541904Y-116128571D01*
X-81637142Y-116176190D01*
X-82018095Y-116176190D01*
X-80541904Y-115652380D02*
X-81018095Y-115652380D01*
X-81065714Y-116128571D01*
X-81018095Y-116080952D01*
X-80922857Y-116033333D01*
X-80684761Y-116033333D01*
X-80589523Y-116080952D01*
X-80541904Y-116128571D01*
X-80494285Y-116223809D01*
X-80494285Y-116461904D01*
X-80541904Y-116557142D01*
X-80589523Y-116604761D01*
X-80684761Y-116652380D01*
X-80922857Y-116652380D01*
X-81018095Y-116604761D01*
X-81065714Y-116557142D01*
G04 #@! TO.C,R4*
X-77816666Y-116522380D02*
X-78150000Y-116046190D01*
X-78388095Y-116522380D02*
X-78388095Y-115522380D01*
X-78007142Y-115522380D01*
X-77911904Y-115570000D01*
X-77864285Y-115617619D01*
X-77816666Y-115712857D01*
X-77816666Y-115855714D01*
X-77864285Y-115950952D01*
X-77911904Y-115998571D01*
X-78007142Y-116046190D01*
X-78388095Y-116046190D01*
X-76959523Y-115855714D02*
X-76959523Y-116522380D01*
X-77197619Y-115474761D02*
X-77435714Y-116189047D01*
X-76816666Y-116189047D01*
G04 #@! TO.C,R3*
X-76577619Y-112436666D02*
X-77053809Y-112770000D01*
X-76577619Y-113008095D02*
X-77577619Y-113008095D01*
X-77577619Y-112627142D01*
X-77530000Y-112531904D01*
X-77482380Y-112484285D01*
X-77387142Y-112436666D01*
X-77244285Y-112436666D01*
X-77149047Y-112484285D01*
X-77101428Y-112531904D01*
X-77053809Y-112627142D01*
X-77053809Y-113008095D01*
X-77577619Y-112103333D02*
X-77577619Y-111484285D01*
X-77196666Y-111817619D01*
X-77196666Y-111674761D01*
X-77149047Y-111579523D01*
X-77101428Y-111531904D01*
X-77006190Y-111484285D01*
X-76768095Y-111484285D01*
X-76672857Y-111531904D01*
X-76625238Y-111579523D01*
X-76577619Y-111674761D01*
X-76577619Y-111960476D01*
X-76625238Y-112055714D01*
X-76672857Y-112103333D01*
G04 #@! TO.C,C9*
X-72056666Y-109207142D02*
X-72104285Y-109254761D01*
X-72247142Y-109302380D01*
X-72342380Y-109302380D01*
X-72485238Y-109254761D01*
X-72580476Y-109159523D01*
X-72628095Y-109064285D01*
X-72675714Y-108873809D01*
X-72675714Y-108730952D01*
X-72628095Y-108540476D01*
X-72580476Y-108445238D01*
X-72485238Y-108350000D01*
X-72342380Y-108302380D01*
X-72247142Y-108302380D01*
X-72104285Y-108350000D01*
X-72056666Y-108397619D01*
X-71580476Y-109302380D02*
X-71390000Y-109302380D01*
X-71294761Y-109254761D01*
X-71247142Y-109207142D01*
X-71151904Y-109064285D01*
X-71104285Y-108873809D01*
X-71104285Y-108492857D01*
X-71151904Y-108397619D01*
X-71199523Y-108350000D01*
X-71294761Y-108302380D01*
X-71485238Y-108302380D01*
X-71580476Y-108350000D01*
X-71628095Y-108397619D01*
X-71675714Y-108492857D01*
X-71675714Y-108730952D01*
X-71628095Y-108826190D01*
X-71580476Y-108873809D01*
X-71485238Y-108921428D01*
X-71294761Y-108921428D01*
X-71199523Y-108873809D01*
X-71151904Y-108826190D01*
X-71104285Y-108730952D01*
G04 #@! TO.C,C8*
X-74102857Y-109616666D02*
X-74055238Y-109664285D01*
X-74007619Y-109807142D01*
X-74007619Y-109902380D01*
X-74055238Y-110045238D01*
X-74150476Y-110140476D01*
X-74245714Y-110188095D01*
X-74436190Y-110235714D01*
X-74579047Y-110235714D01*
X-74769523Y-110188095D01*
X-74864761Y-110140476D01*
X-74960000Y-110045238D01*
X-75007619Y-109902380D01*
X-75007619Y-109807142D01*
X-74960000Y-109664285D01*
X-74912380Y-109616666D01*
X-74579047Y-109045238D02*
X-74626666Y-109140476D01*
X-74674285Y-109188095D01*
X-74769523Y-109235714D01*
X-74817142Y-109235714D01*
X-74912380Y-109188095D01*
X-74960000Y-109140476D01*
X-75007619Y-109045238D01*
X-75007619Y-108854761D01*
X-74960000Y-108759523D01*
X-74912380Y-108711904D01*
X-74817142Y-108664285D01*
X-74769523Y-108664285D01*
X-74674285Y-108711904D01*
X-74626666Y-108759523D01*
X-74579047Y-108854761D01*
X-74579047Y-109045238D01*
X-74531428Y-109140476D01*
X-74483809Y-109188095D01*
X-74388571Y-109235714D01*
X-74198095Y-109235714D01*
X-74102857Y-109188095D01*
X-74055238Y-109140476D01*
X-74007619Y-109045238D01*
X-74007619Y-108854761D01*
X-74055238Y-108759523D01*
X-74102857Y-108711904D01*
X-74198095Y-108664285D01*
X-74388571Y-108664285D01*
X-74483809Y-108711904D01*
X-74531428Y-108759523D01*
X-74579047Y-108854761D01*
G04 #@! TO.C,Y1*
X-83763809Y-119886190D02*
X-83287619Y-119886190D01*
X-84287619Y-120219523D02*
X-83763809Y-119886190D01*
X-84287619Y-119552857D01*
X-83287619Y-118695714D02*
X-83287619Y-119267142D01*
X-83287619Y-118981428D02*
X-84287619Y-118981428D01*
X-84144761Y-119076666D01*
X-84049523Y-119171904D01*
X-84001904Y-119267142D01*
G04 #@! TO.C,R2*
X-83476666Y-124062380D02*
X-83810000Y-123586190D01*
X-84048095Y-124062380D02*
X-84048095Y-123062380D01*
X-83667142Y-123062380D01*
X-83571904Y-123110000D01*
X-83524285Y-123157619D01*
X-83476666Y-123252857D01*
X-83476666Y-123395714D01*
X-83524285Y-123490952D01*
X-83571904Y-123538571D01*
X-83667142Y-123586190D01*
X-84048095Y-123586190D01*
X-83095714Y-123157619D02*
X-83048095Y-123110000D01*
X-82952857Y-123062380D01*
X-82714761Y-123062380D01*
X-82619523Y-123110000D01*
X-82571904Y-123157619D01*
X-82524285Y-123252857D01*
X-82524285Y-123348095D01*
X-82571904Y-123490952D01*
X-83143333Y-124062380D01*
X-82524285Y-124062380D01*
G04 #@! TO.C,C6*
X-84182857Y-126996666D02*
X-84135238Y-127044285D01*
X-84087619Y-127187142D01*
X-84087619Y-127282380D01*
X-84135238Y-127425238D01*
X-84230476Y-127520476D01*
X-84325714Y-127568095D01*
X-84516190Y-127615714D01*
X-84659047Y-127615714D01*
X-84849523Y-127568095D01*
X-84944761Y-127520476D01*
X-85040000Y-127425238D01*
X-85087619Y-127282380D01*
X-85087619Y-127187142D01*
X-85040000Y-127044285D01*
X-84992380Y-126996666D01*
X-85087619Y-126139523D02*
X-85087619Y-126330000D01*
X-85040000Y-126425238D01*
X-84992380Y-126472857D01*
X-84849523Y-126568095D01*
X-84659047Y-126615714D01*
X-84278095Y-126615714D01*
X-84182857Y-126568095D01*
X-84135238Y-126520476D01*
X-84087619Y-126425238D01*
X-84087619Y-126234761D01*
X-84135238Y-126139523D01*
X-84182857Y-126091904D01*
X-84278095Y-126044285D01*
X-84516190Y-126044285D01*
X-84611428Y-126091904D01*
X-84659047Y-126139523D01*
X-84706666Y-126234761D01*
X-84706666Y-126425238D01*
X-84659047Y-126520476D01*
X-84611428Y-126568095D01*
X-84516190Y-126615714D01*
G04 #@! TO.C,C5*
X-80062857Y-118796666D02*
X-80015238Y-118844285D01*
X-79967619Y-118987142D01*
X-79967619Y-119082380D01*
X-80015238Y-119225238D01*
X-80110476Y-119320476D01*
X-80205714Y-119368095D01*
X-80396190Y-119415714D01*
X-80539047Y-119415714D01*
X-80729523Y-119368095D01*
X-80824761Y-119320476D01*
X-80920000Y-119225238D01*
X-80967619Y-119082380D01*
X-80967619Y-118987142D01*
X-80920000Y-118844285D01*
X-80872380Y-118796666D01*
X-80967619Y-117891904D02*
X-80967619Y-118368095D01*
X-80491428Y-118415714D01*
X-80539047Y-118368095D01*
X-80586666Y-118272857D01*
X-80586666Y-118034761D01*
X-80539047Y-117939523D01*
X-80491428Y-117891904D01*
X-80396190Y-117844285D01*
X-80158095Y-117844285D01*
X-80062857Y-117891904D01*
X-80015238Y-117939523D01*
X-79967619Y-118034761D01*
X-79967619Y-118272857D01*
X-80015238Y-118368095D01*
X-80062857Y-118415714D01*
G04 #@! TO.C,C4*
X-81272857Y-118896666D02*
X-81225238Y-118944285D01*
X-81177619Y-119087142D01*
X-81177619Y-119182380D01*
X-81225238Y-119325238D01*
X-81320476Y-119420476D01*
X-81415714Y-119468095D01*
X-81606190Y-119515714D01*
X-81749047Y-119515714D01*
X-81939523Y-119468095D01*
X-82034761Y-119420476D01*
X-82130000Y-119325238D01*
X-82177619Y-119182380D01*
X-82177619Y-119087142D01*
X-82130000Y-118944285D01*
X-82082380Y-118896666D01*
X-81844285Y-118039523D02*
X-81177619Y-118039523D01*
X-82225238Y-118277619D02*
X-81510952Y-118515714D01*
X-81510952Y-117896666D01*
G04 #@! TO.C,C3*
X-70216666Y-133027142D02*
X-70264285Y-133074761D01*
X-70407142Y-133122380D01*
X-70502380Y-133122380D01*
X-70645238Y-133074761D01*
X-70740476Y-132979523D01*
X-70788095Y-132884285D01*
X-70835714Y-132693809D01*
X-70835714Y-132550952D01*
X-70788095Y-132360476D01*
X-70740476Y-132265238D01*
X-70645238Y-132170000D01*
X-70502380Y-132122380D01*
X-70407142Y-132122380D01*
X-70264285Y-132170000D01*
X-70216666Y-132217619D01*
X-69883333Y-132122380D02*
X-69264285Y-132122380D01*
X-69597619Y-132503333D01*
X-69454761Y-132503333D01*
X-69359523Y-132550952D01*
X-69311904Y-132598571D01*
X-69264285Y-132693809D01*
X-69264285Y-132931904D01*
X-69311904Y-133027142D01*
X-69359523Y-133074761D01*
X-69454761Y-133122380D01*
X-69740476Y-133122380D01*
X-69835714Y-133074761D01*
X-69883333Y-133027142D01*
G04 #@! TO.C,C2*
X-85296666Y-122777142D02*
X-85344285Y-122824761D01*
X-85487142Y-122872380D01*
X-85582380Y-122872380D01*
X-85725238Y-122824761D01*
X-85820476Y-122729523D01*
X-85868095Y-122634285D01*
X-85915714Y-122443809D01*
X-85915714Y-122300952D01*
X-85868095Y-122110476D01*
X-85820476Y-122015238D01*
X-85725238Y-121920000D01*
X-85582380Y-121872380D01*
X-85487142Y-121872380D01*
X-85344285Y-121920000D01*
X-85296666Y-121967619D01*
X-84915714Y-121967619D02*
X-84868095Y-121920000D01*
X-84772857Y-121872380D01*
X-84534761Y-121872380D01*
X-84439523Y-121920000D01*
X-84391904Y-121967619D01*
X-84344285Y-122062857D01*
X-84344285Y-122158095D01*
X-84391904Y-122300952D01*
X-84963333Y-122872380D01*
X-84344285Y-122872380D01*
G04 #@! TO.C,C1*
X-85246666Y-121357142D02*
X-85294285Y-121404761D01*
X-85437142Y-121452380D01*
X-85532380Y-121452380D01*
X-85675238Y-121404761D01*
X-85770476Y-121309523D01*
X-85818095Y-121214285D01*
X-85865714Y-121023809D01*
X-85865714Y-120880952D01*
X-85818095Y-120690476D01*
X-85770476Y-120595238D01*
X-85675238Y-120500000D01*
X-85532380Y-120452380D01*
X-85437142Y-120452380D01*
X-85294285Y-120500000D01*
X-85246666Y-120547619D01*
X-84294285Y-121452380D02*
X-84865714Y-121452380D01*
X-84580000Y-121452380D02*
X-84580000Y-120452380D01*
X-84675238Y-120595238D01*
X-84770476Y-120690476D01*
X-84865714Y-120738095D01*
G04 #@! TO.C,J4*
X-85153333Y-149702380D02*
X-85153333Y-150416666D01*
X-85200952Y-150559523D01*
X-85296190Y-150654761D01*
X-85439047Y-150702380D01*
X-85534285Y-150702380D01*
X-84248571Y-150035714D02*
X-84248571Y-150702380D01*
X-84486666Y-149654761D02*
X-84724761Y-150369047D01*
X-84105714Y-150369047D01*
G04 #@! TO.C,R11*
X-68967619Y-142152857D02*
X-69443809Y-142486190D01*
X-68967619Y-142724285D02*
X-69967619Y-142724285D01*
X-69967619Y-142343333D01*
X-69920000Y-142248095D01*
X-69872380Y-142200476D01*
X-69777142Y-142152857D01*
X-69634285Y-142152857D01*
X-69539047Y-142200476D01*
X-69491428Y-142248095D01*
X-69443809Y-142343333D01*
X-69443809Y-142724285D01*
X-68967619Y-141200476D02*
X-68967619Y-141771904D01*
X-68967619Y-141486190D02*
X-69967619Y-141486190D01*
X-69824761Y-141581428D01*
X-69729523Y-141676666D01*
X-69681904Y-141771904D01*
X-68967619Y-140248095D02*
X-68967619Y-140819523D01*
X-68967619Y-140533809D02*
X-69967619Y-140533809D01*
X-69824761Y-140629047D01*
X-69729523Y-140724285D01*
X-69681904Y-140819523D01*
G04 #@! TO.C,R10*
X-81827619Y-143402857D02*
X-82303809Y-143736190D01*
X-81827619Y-143974285D02*
X-82827619Y-143974285D01*
X-82827619Y-143593333D01*
X-82780000Y-143498095D01*
X-82732380Y-143450476D01*
X-82637142Y-143402857D01*
X-82494285Y-143402857D01*
X-82399047Y-143450476D01*
X-82351428Y-143498095D01*
X-82303809Y-143593333D01*
X-82303809Y-143974285D01*
X-81827619Y-142450476D02*
X-81827619Y-143021904D01*
X-81827619Y-142736190D02*
X-82827619Y-142736190D01*
X-82684761Y-142831428D01*
X-82589523Y-142926666D01*
X-82541904Y-143021904D01*
X-82827619Y-141831428D02*
X-82827619Y-141736190D01*
X-82780000Y-141640952D01*
X-82732380Y-141593333D01*
X-82637142Y-141545714D01*
X-82446666Y-141498095D01*
X-82208571Y-141498095D01*
X-82018095Y-141545714D01*
X-81922857Y-141593333D01*
X-81875238Y-141640952D01*
X-81827619Y-141736190D01*
X-81827619Y-141831428D01*
X-81875238Y-141926666D01*
X-81922857Y-141974285D01*
X-82018095Y-142021904D01*
X-82208571Y-142069523D01*
X-82446666Y-142069523D01*
X-82637142Y-142021904D01*
X-82732380Y-141974285D01*
X-82780000Y-141926666D01*
X-82827619Y-141831428D01*
G04 #@! TO.C,R9*
X-69737619Y-135206666D02*
X-70213809Y-135540000D01*
X-69737619Y-135778095D02*
X-70737619Y-135778095D01*
X-70737619Y-135397142D01*
X-70690000Y-135301904D01*
X-70642380Y-135254285D01*
X-70547142Y-135206666D01*
X-70404285Y-135206666D01*
X-70309047Y-135254285D01*
X-70261428Y-135301904D01*
X-70213809Y-135397142D01*
X-70213809Y-135778095D01*
X-69737619Y-134730476D02*
X-69737619Y-134540000D01*
X-69785238Y-134444761D01*
X-69832857Y-134397142D01*
X-69975714Y-134301904D01*
X-70166190Y-134254285D01*
X-70547142Y-134254285D01*
X-70642380Y-134301904D01*
X-70690000Y-134349523D01*
X-70737619Y-134444761D01*
X-70737619Y-134635238D01*
X-70690000Y-134730476D01*
X-70642380Y-134778095D01*
X-70547142Y-134825714D01*
X-70309047Y-134825714D01*
X-70213809Y-134778095D01*
X-70166190Y-134730476D01*
X-70118571Y-134635238D01*
X-70118571Y-134444761D01*
X-70166190Y-134349523D01*
X-70213809Y-134301904D01*
X-70309047Y-134254285D01*
G04 #@! TO.C,R8*
X-80967619Y-137416666D02*
X-81443809Y-137750000D01*
X-80967619Y-137988095D02*
X-81967619Y-137988095D01*
X-81967619Y-137607142D01*
X-81920000Y-137511904D01*
X-81872380Y-137464285D01*
X-81777142Y-137416666D01*
X-81634285Y-137416666D01*
X-81539047Y-137464285D01*
X-81491428Y-137511904D01*
X-81443809Y-137607142D01*
X-81443809Y-137988095D01*
X-81539047Y-136845238D02*
X-81586666Y-136940476D01*
X-81634285Y-136988095D01*
X-81729523Y-137035714D01*
X-81777142Y-137035714D01*
X-81872380Y-136988095D01*
X-81920000Y-136940476D01*
X-81967619Y-136845238D01*
X-81967619Y-136654761D01*
X-81920000Y-136559523D01*
X-81872380Y-136511904D01*
X-81777142Y-136464285D01*
X-81729523Y-136464285D01*
X-81634285Y-136511904D01*
X-81586666Y-136559523D01*
X-81539047Y-136654761D01*
X-81539047Y-136845238D01*
X-81491428Y-136940476D01*
X-81443809Y-136988095D01*
X-81348571Y-137035714D01*
X-81158095Y-137035714D01*
X-81062857Y-136988095D01*
X-81015238Y-136940476D01*
X-80967619Y-136845238D01*
X-80967619Y-136654761D01*
X-81015238Y-136559523D01*
X-81062857Y-136511904D01*
X-81158095Y-136464285D01*
X-81348571Y-136464285D01*
X-81443809Y-136511904D01*
X-81491428Y-136559523D01*
X-81539047Y-136654761D01*
G04 #@! TO.C,C12*
X-71342857Y-138117142D02*
X-71390476Y-138164761D01*
X-71533333Y-138212380D01*
X-71628571Y-138212380D01*
X-71771428Y-138164761D01*
X-71866666Y-138069523D01*
X-71914285Y-137974285D01*
X-71961904Y-137783809D01*
X-71961904Y-137640952D01*
X-71914285Y-137450476D01*
X-71866666Y-137355238D01*
X-71771428Y-137260000D01*
X-71628571Y-137212380D01*
X-71533333Y-137212380D01*
X-71390476Y-137260000D01*
X-71342857Y-137307619D01*
X-70390476Y-138212380D02*
X-70961904Y-138212380D01*
X-70676190Y-138212380D02*
X-70676190Y-137212380D01*
X-70771428Y-137355238D01*
X-70866666Y-137450476D01*
X-70961904Y-137498095D01*
X-70009523Y-137307619D02*
X-69961904Y-137260000D01*
X-69866666Y-137212380D01*
X-69628571Y-137212380D01*
X-69533333Y-137260000D01*
X-69485714Y-137307619D01*
X-69438095Y-137402857D01*
X-69438095Y-137498095D01*
X-69485714Y-137640952D01*
X-70057142Y-138212380D01*
X-69438095Y-138212380D01*
G04 #@! TO.C,C11*
X-73862857Y-132047142D02*
X-73910476Y-132094761D01*
X-74053333Y-132142380D01*
X-74148571Y-132142380D01*
X-74291428Y-132094761D01*
X-74386666Y-131999523D01*
X-74434285Y-131904285D01*
X-74481904Y-131713809D01*
X-74481904Y-131570952D01*
X-74434285Y-131380476D01*
X-74386666Y-131285238D01*
X-74291428Y-131190000D01*
X-74148571Y-131142380D01*
X-74053333Y-131142380D01*
X-73910476Y-131190000D01*
X-73862857Y-131237619D01*
X-72910476Y-132142380D02*
X-73481904Y-132142380D01*
X-73196190Y-132142380D02*
X-73196190Y-131142380D01*
X-73291428Y-131285238D01*
X-73386666Y-131380476D01*
X-73481904Y-131428095D01*
X-71958095Y-132142380D02*
X-72529523Y-132142380D01*
X-72243809Y-132142380D02*
X-72243809Y-131142380D01*
X-72339047Y-131285238D01*
X-72434285Y-131380476D01*
X-72529523Y-131428095D01*
G04 #@! TO.C,C26*
X-82882857Y-150652857D02*
X-82835238Y-150700476D01*
X-82787619Y-150843333D01*
X-82787619Y-150938571D01*
X-82835238Y-151081428D01*
X-82930476Y-151176666D01*
X-83025714Y-151224285D01*
X-83216190Y-151271904D01*
X-83359047Y-151271904D01*
X-83549523Y-151224285D01*
X-83644761Y-151176666D01*
X-83740000Y-151081428D01*
X-83787619Y-150938571D01*
X-83787619Y-150843333D01*
X-83740000Y-150700476D01*
X-83692380Y-150652857D01*
X-83692380Y-150271904D02*
X-83740000Y-150224285D01*
X-83787619Y-150129047D01*
X-83787619Y-149890952D01*
X-83740000Y-149795714D01*
X-83692380Y-149748095D01*
X-83597142Y-149700476D01*
X-83501904Y-149700476D01*
X-83359047Y-149748095D01*
X-82787619Y-150319523D01*
X-82787619Y-149700476D01*
X-83787619Y-148843333D02*
X-83787619Y-149033809D01*
X-83740000Y-149129047D01*
X-83692380Y-149176666D01*
X-83549523Y-149271904D01*
X-83359047Y-149319523D01*
X-82978095Y-149319523D01*
X-82882857Y-149271904D01*
X-82835238Y-149224285D01*
X-82787619Y-149129047D01*
X-82787619Y-148938571D01*
X-82835238Y-148843333D01*
X-82882857Y-148795714D01*
X-82978095Y-148748095D01*
X-83216190Y-148748095D01*
X-83311428Y-148795714D01*
X-83359047Y-148843333D01*
X-83406666Y-148938571D01*
X-83406666Y-149129047D01*
X-83359047Y-149224285D01*
X-83311428Y-149271904D01*
X-83216190Y-149319523D01*
G04 #@! TD*
%LPC*%
D16*
G04 #@! TO.C,U4*
X-75750000Y-142690000D03*
D17*
X-71850000Y-140785000D03*
X-71850000Y-142055000D03*
X-71850000Y-143325000D03*
X-71850000Y-144595000D03*
X-79650000Y-144595000D03*
X-79650000Y-143325000D03*
X-79650000Y-142055000D03*
X-79650000Y-140785000D03*
G04 #@! TD*
D18*
G04 #@! TO.C,U3*
X-73148000Y-134365000D03*
X-73148000Y-135635000D03*
X-73148000Y-136905000D03*
X-73148000Y-138175000D03*
X-78572000Y-138175000D03*
X-78572000Y-136905000D03*
X-78572000Y-135635000D03*
X-78572000Y-134365000D03*
G04 #@! TD*
G04 #@! TO.C,R1*
G36*
G01*
X-76310000Y-116845000D02*
X-76310000Y-117215000D01*
G75*
G02*
X-76445000Y-117350000I-135000J0D01*
G01*
X-76715000Y-117350000D01*
G75*
G02*
X-76850000Y-117215000I0J135000D01*
G01*
X-76850000Y-116845000D01*
G75*
G02*
X-76715000Y-116710000I135000J0D01*
G01*
X-76445000Y-116710000D01*
G75*
G02*
X-76310000Y-116845000I0J-135000D01*
G01*
G37*
G36*
G01*
X-75290000Y-116845000D02*
X-75290000Y-117215000D01*
G75*
G02*
X-75425000Y-117350000I-135000J0D01*
G01*
X-75695000Y-117350000D01*
G75*
G02*
X-75830000Y-117215000I0J135000D01*
G01*
X-75830000Y-116845000D01*
G75*
G02*
X-75695000Y-116710000I135000J0D01*
G01*
X-75425000Y-116710000D01*
G75*
G02*
X-75290000Y-116845000I0J-135000D01*
G01*
G37*
G04 #@! TD*
G04 #@! TO.C,C7*
G36*
G01*
X-67220000Y-119790000D02*
X-67220000Y-119450000D01*
G75*
G02*
X-67080000Y-119310000I140000J0D01*
G01*
X-66800000Y-119310000D01*
G75*
G02*
X-66660000Y-119450000I0J-140000D01*
G01*
X-66660000Y-119790000D01*
G75*
G02*
X-66800000Y-119930000I-140000J0D01*
G01*
X-67080000Y-119930000D01*
G75*
G02*
X-67220000Y-119790000I0J140000D01*
G01*
G37*
G36*
G01*
X-68180000Y-119790000D02*
X-68180000Y-119450000D01*
G75*
G02*
X-68040000Y-119310000I140000J0D01*
G01*
X-67760000Y-119310000D01*
G75*
G02*
X-67620000Y-119450000I0J-140000D01*
G01*
X-67620000Y-119790000D01*
G75*
G02*
X-67760000Y-119930000I-140000J0D01*
G01*
X-68040000Y-119930000D01*
G75*
G02*
X-68180000Y-119790000I0J140000D01*
G01*
G37*
G04 #@! TD*
D19*
G04 #@! TO.C,J1*
X-62520000Y-120650000D03*
X-59980000Y-120650000D03*
X-62520000Y-123190000D03*
X-59980000Y-123190000D03*
X-62520000Y-125730000D03*
X-59980000Y-125730000D03*
X-62520000Y-128270000D03*
D20*
X-59980000Y-128270000D03*
G04 #@! TD*
G04 #@! TO.C,U1*
G36*
G01*
X-77560000Y-119315000D02*
X-77560000Y-117915000D01*
G75*
G02*
X-77485000Y-117840000I75000J0D01*
G01*
X-77335000Y-117840000D01*
G75*
G02*
X-77260000Y-117915000I0J-75000D01*
G01*
X-77260000Y-119315000D01*
G75*
G02*
X-77335000Y-119390000I-75000J0D01*
G01*
X-77485000Y-119390000D01*
G75*
G02*
X-77560000Y-119315000I0J75000D01*
G01*
G37*
G36*
G01*
X-77060000Y-119315000D02*
X-77060000Y-117915000D01*
G75*
G02*
X-76985000Y-117840000I75000J0D01*
G01*
X-76835000Y-117840000D01*
G75*
G02*
X-76760000Y-117915000I0J-75000D01*
G01*
X-76760000Y-119315000D01*
G75*
G02*
X-76835000Y-119390000I-75000J0D01*
G01*
X-76985000Y-119390000D01*
G75*
G02*
X-77060000Y-119315000I0J75000D01*
G01*
G37*
G36*
G01*
X-76560000Y-119315000D02*
X-76560000Y-117915000D01*
G75*
G02*
X-76485000Y-117840000I75000J0D01*
G01*
X-76335000Y-117840000D01*
G75*
G02*
X-76260000Y-117915000I0J-75000D01*
G01*
X-76260000Y-119315000D01*
G75*
G02*
X-76335000Y-119390000I-75000J0D01*
G01*
X-76485000Y-119390000D01*
G75*
G02*
X-76560000Y-119315000I0J75000D01*
G01*
G37*
G36*
G01*
X-76060000Y-119315000D02*
X-76060000Y-117915000D01*
G75*
G02*
X-75985000Y-117840000I75000J0D01*
G01*
X-75835000Y-117840000D01*
G75*
G02*
X-75760000Y-117915000I0J-75000D01*
G01*
X-75760000Y-119315000D01*
G75*
G02*
X-75835000Y-119390000I-75000J0D01*
G01*
X-75985000Y-119390000D01*
G75*
G02*
X-76060000Y-119315000I0J75000D01*
G01*
G37*
G36*
G01*
X-75560000Y-119315000D02*
X-75560000Y-117915000D01*
G75*
G02*
X-75485000Y-117840000I75000J0D01*
G01*
X-75335000Y-117840000D01*
G75*
G02*
X-75260000Y-117915000I0J-75000D01*
G01*
X-75260000Y-119315000D01*
G75*
G02*
X-75335000Y-119390000I-75000J0D01*
G01*
X-75485000Y-119390000D01*
G75*
G02*
X-75560000Y-119315000I0J75000D01*
G01*
G37*
G36*
G01*
X-75060000Y-119315000D02*
X-75060000Y-117915000D01*
G75*
G02*
X-74985000Y-117840000I75000J0D01*
G01*
X-74835000Y-117840000D01*
G75*
G02*
X-74760000Y-117915000I0J-75000D01*
G01*
X-74760000Y-119315000D01*
G75*
G02*
X-74835000Y-119390000I-75000J0D01*
G01*
X-74985000Y-119390000D01*
G75*
G02*
X-75060000Y-119315000I0J75000D01*
G01*
G37*
G36*
G01*
X-74560000Y-119315000D02*
X-74560000Y-117915000D01*
G75*
G02*
X-74485000Y-117840000I75000J0D01*
G01*
X-74335000Y-117840000D01*
G75*
G02*
X-74260000Y-117915000I0J-75000D01*
G01*
X-74260000Y-119315000D01*
G75*
G02*
X-74335000Y-119390000I-75000J0D01*
G01*
X-74485000Y-119390000D01*
G75*
G02*
X-74560000Y-119315000I0J75000D01*
G01*
G37*
G36*
G01*
X-74060000Y-119315000D02*
X-74060000Y-117915000D01*
G75*
G02*
X-73985000Y-117840000I75000J0D01*
G01*
X-73835000Y-117840000D01*
G75*
G02*
X-73760000Y-117915000I0J-75000D01*
G01*
X-73760000Y-119315000D01*
G75*
G02*
X-73835000Y-119390000I-75000J0D01*
G01*
X-73985000Y-119390000D01*
G75*
G02*
X-74060000Y-119315000I0J75000D01*
G01*
G37*
G36*
G01*
X-73560000Y-119315000D02*
X-73560000Y-117915000D01*
G75*
G02*
X-73485000Y-117840000I75000J0D01*
G01*
X-73335000Y-117840000D01*
G75*
G02*
X-73260000Y-117915000I0J-75000D01*
G01*
X-73260000Y-119315000D01*
G75*
G02*
X-73335000Y-119390000I-75000J0D01*
G01*
X-73485000Y-119390000D01*
G75*
G02*
X-73560000Y-119315000I0J75000D01*
G01*
G37*
G36*
G01*
X-73060000Y-119315000D02*
X-73060000Y-117915000D01*
G75*
G02*
X-72985000Y-117840000I75000J0D01*
G01*
X-72835000Y-117840000D01*
G75*
G02*
X-72760000Y-117915000I0J-75000D01*
G01*
X-72760000Y-119315000D01*
G75*
G02*
X-72835000Y-119390000I-75000J0D01*
G01*
X-72985000Y-119390000D01*
G75*
G02*
X-73060000Y-119315000I0J75000D01*
G01*
G37*
G36*
G01*
X-72560000Y-119315000D02*
X-72560000Y-117915000D01*
G75*
G02*
X-72485000Y-117840000I75000J0D01*
G01*
X-72335000Y-117840000D01*
G75*
G02*
X-72260000Y-117915000I0J-75000D01*
G01*
X-72260000Y-119315000D01*
G75*
G02*
X-72335000Y-119390000I-75000J0D01*
G01*
X-72485000Y-119390000D01*
G75*
G02*
X-72560000Y-119315000I0J75000D01*
G01*
G37*
G36*
G01*
X-72060000Y-119315000D02*
X-72060000Y-117915000D01*
G75*
G02*
X-71985000Y-117840000I75000J0D01*
G01*
X-71835000Y-117840000D01*
G75*
G02*
X-71760000Y-117915000I0J-75000D01*
G01*
X-71760000Y-119315000D01*
G75*
G02*
X-71835000Y-119390000I-75000J0D01*
G01*
X-71985000Y-119390000D01*
G75*
G02*
X-72060000Y-119315000I0J75000D01*
G01*
G37*
G36*
G01*
X-71560000Y-119315000D02*
X-71560000Y-117915000D01*
G75*
G02*
X-71485000Y-117840000I75000J0D01*
G01*
X-71335000Y-117840000D01*
G75*
G02*
X-71260000Y-117915000I0J-75000D01*
G01*
X-71260000Y-119315000D01*
G75*
G02*
X-71335000Y-119390000I-75000J0D01*
G01*
X-71485000Y-119390000D01*
G75*
G02*
X-71560000Y-119315000I0J75000D01*
G01*
G37*
G36*
G01*
X-71060000Y-119315000D02*
X-71060000Y-117915000D01*
G75*
G02*
X-70985000Y-117840000I75000J0D01*
G01*
X-70835000Y-117840000D01*
G75*
G02*
X-70760000Y-117915000I0J-75000D01*
G01*
X-70760000Y-119315000D01*
G75*
G02*
X-70835000Y-119390000I-75000J0D01*
G01*
X-70985000Y-119390000D01*
G75*
G02*
X-71060000Y-119315000I0J75000D01*
G01*
G37*
G36*
G01*
X-70560000Y-119315000D02*
X-70560000Y-117915000D01*
G75*
G02*
X-70485000Y-117840000I75000J0D01*
G01*
X-70335000Y-117840000D01*
G75*
G02*
X-70260000Y-117915000I0J-75000D01*
G01*
X-70260000Y-119315000D01*
G75*
G02*
X-70335000Y-119390000I-75000J0D01*
G01*
X-70485000Y-119390000D01*
G75*
G02*
X-70560000Y-119315000I0J75000D01*
G01*
G37*
G36*
G01*
X-70060000Y-119315000D02*
X-70060000Y-117915000D01*
G75*
G02*
X-69985000Y-117840000I75000J0D01*
G01*
X-69835000Y-117840000D01*
G75*
G02*
X-69760000Y-117915000I0J-75000D01*
G01*
X-69760000Y-119315000D01*
G75*
G02*
X-69835000Y-119390000I-75000J0D01*
G01*
X-69985000Y-119390000D01*
G75*
G02*
X-70060000Y-119315000I0J75000D01*
G01*
G37*
G36*
G01*
X-68760000Y-120615000D02*
X-68760000Y-120465000D01*
G75*
G02*
X-68685000Y-120390000I75000J0D01*
G01*
X-67285000Y-120390000D01*
G75*
G02*
X-67210000Y-120465000I0J-75000D01*
G01*
X-67210000Y-120615000D01*
G75*
G02*
X-67285000Y-120690000I-75000J0D01*
G01*
X-68685000Y-120690000D01*
G75*
G02*
X-68760000Y-120615000I0J75000D01*
G01*
G37*
G36*
G01*
X-68760000Y-121115000D02*
X-68760000Y-120965000D01*
G75*
G02*
X-68685000Y-120890000I75000J0D01*
G01*
X-67285000Y-120890000D01*
G75*
G02*
X-67210000Y-120965000I0J-75000D01*
G01*
X-67210000Y-121115000D01*
G75*
G02*
X-67285000Y-121190000I-75000J0D01*
G01*
X-68685000Y-121190000D01*
G75*
G02*
X-68760000Y-121115000I0J75000D01*
G01*
G37*
G36*
G01*
X-68760000Y-121615000D02*
X-68760000Y-121465000D01*
G75*
G02*
X-68685000Y-121390000I75000J0D01*
G01*
X-67285000Y-121390000D01*
G75*
G02*
X-67210000Y-121465000I0J-75000D01*
G01*
X-67210000Y-121615000D01*
G75*
G02*
X-67285000Y-121690000I-75000J0D01*
G01*
X-68685000Y-121690000D01*
G75*
G02*
X-68760000Y-121615000I0J75000D01*
G01*
G37*
G36*
G01*
X-68760000Y-122115000D02*
X-68760000Y-121965000D01*
G75*
G02*
X-68685000Y-121890000I75000J0D01*
G01*
X-67285000Y-121890000D01*
G75*
G02*
X-67210000Y-121965000I0J-75000D01*
G01*
X-67210000Y-122115000D01*
G75*
G02*
X-67285000Y-122190000I-75000J0D01*
G01*
X-68685000Y-122190000D01*
G75*
G02*
X-68760000Y-122115000I0J75000D01*
G01*
G37*
G36*
G01*
X-68760000Y-122615000D02*
X-68760000Y-122465000D01*
G75*
G02*
X-68685000Y-122390000I75000J0D01*
G01*
X-67285000Y-122390000D01*
G75*
G02*
X-67210000Y-122465000I0J-75000D01*
G01*
X-67210000Y-122615000D01*
G75*
G02*
X-67285000Y-122690000I-75000J0D01*
G01*
X-68685000Y-122690000D01*
G75*
G02*
X-68760000Y-122615000I0J75000D01*
G01*
G37*
G36*
G01*
X-68760000Y-123115000D02*
X-68760000Y-122965000D01*
G75*
G02*
X-68685000Y-122890000I75000J0D01*
G01*
X-67285000Y-122890000D01*
G75*
G02*
X-67210000Y-122965000I0J-75000D01*
G01*
X-67210000Y-123115000D01*
G75*
G02*
X-67285000Y-123190000I-75000J0D01*
G01*
X-68685000Y-123190000D01*
G75*
G02*
X-68760000Y-123115000I0J75000D01*
G01*
G37*
G36*
G01*
X-68760000Y-123615000D02*
X-68760000Y-123465000D01*
G75*
G02*
X-68685000Y-123390000I75000J0D01*
G01*
X-67285000Y-123390000D01*
G75*
G02*
X-67210000Y-123465000I0J-75000D01*
G01*
X-67210000Y-123615000D01*
G75*
G02*
X-67285000Y-123690000I-75000J0D01*
G01*
X-68685000Y-123690000D01*
G75*
G02*
X-68760000Y-123615000I0J75000D01*
G01*
G37*
G36*
G01*
X-68760000Y-124115000D02*
X-68760000Y-123965000D01*
G75*
G02*
X-68685000Y-123890000I75000J0D01*
G01*
X-67285000Y-123890000D01*
G75*
G02*
X-67210000Y-123965000I0J-75000D01*
G01*
X-67210000Y-124115000D01*
G75*
G02*
X-67285000Y-124190000I-75000J0D01*
G01*
X-68685000Y-124190000D01*
G75*
G02*
X-68760000Y-124115000I0J75000D01*
G01*
G37*
G36*
G01*
X-68760000Y-124615000D02*
X-68760000Y-124465000D01*
G75*
G02*
X-68685000Y-124390000I75000J0D01*
G01*
X-67285000Y-124390000D01*
G75*
G02*
X-67210000Y-124465000I0J-75000D01*
G01*
X-67210000Y-124615000D01*
G75*
G02*
X-67285000Y-124690000I-75000J0D01*
G01*
X-68685000Y-124690000D01*
G75*
G02*
X-68760000Y-124615000I0J75000D01*
G01*
G37*
G36*
G01*
X-68760000Y-125115000D02*
X-68760000Y-124965000D01*
G75*
G02*
X-68685000Y-124890000I75000J0D01*
G01*
X-67285000Y-124890000D01*
G75*
G02*
X-67210000Y-124965000I0J-75000D01*
G01*
X-67210000Y-125115000D01*
G75*
G02*
X-67285000Y-125190000I-75000J0D01*
G01*
X-68685000Y-125190000D01*
G75*
G02*
X-68760000Y-125115000I0J75000D01*
G01*
G37*
G36*
G01*
X-68760000Y-125615000D02*
X-68760000Y-125465000D01*
G75*
G02*
X-68685000Y-125390000I75000J0D01*
G01*
X-67285000Y-125390000D01*
G75*
G02*
X-67210000Y-125465000I0J-75000D01*
G01*
X-67210000Y-125615000D01*
G75*
G02*
X-67285000Y-125690000I-75000J0D01*
G01*
X-68685000Y-125690000D01*
G75*
G02*
X-68760000Y-125615000I0J75000D01*
G01*
G37*
G36*
G01*
X-68760000Y-126115000D02*
X-68760000Y-125965000D01*
G75*
G02*
X-68685000Y-125890000I75000J0D01*
G01*
X-67285000Y-125890000D01*
G75*
G02*
X-67210000Y-125965000I0J-75000D01*
G01*
X-67210000Y-126115000D01*
G75*
G02*
X-67285000Y-126190000I-75000J0D01*
G01*
X-68685000Y-126190000D01*
G75*
G02*
X-68760000Y-126115000I0J75000D01*
G01*
G37*
G36*
G01*
X-68760000Y-126615000D02*
X-68760000Y-126465000D01*
G75*
G02*
X-68685000Y-126390000I75000J0D01*
G01*
X-67285000Y-126390000D01*
G75*
G02*
X-67210000Y-126465000I0J-75000D01*
G01*
X-67210000Y-126615000D01*
G75*
G02*
X-67285000Y-126690000I-75000J0D01*
G01*
X-68685000Y-126690000D01*
G75*
G02*
X-68760000Y-126615000I0J75000D01*
G01*
G37*
G36*
G01*
X-68760000Y-127115000D02*
X-68760000Y-126965000D01*
G75*
G02*
X-68685000Y-126890000I75000J0D01*
G01*
X-67285000Y-126890000D01*
G75*
G02*
X-67210000Y-126965000I0J-75000D01*
G01*
X-67210000Y-127115000D01*
G75*
G02*
X-67285000Y-127190000I-75000J0D01*
G01*
X-68685000Y-127190000D01*
G75*
G02*
X-68760000Y-127115000I0J75000D01*
G01*
G37*
G36*
G01*
X-68760000Y-127615000D02*
X-68760000Y-127465000D01*
G75*
G02*
X-68685000Y-127390000I75000J0D01*
G01*
X-67285000Y-127390000D01*
G75*
G02*
X-67210000Y-127465000I0J-75000D01*
G01*
X-67210000Y-127615000D01*
G75*
G02*
X-67285000Y-127690000I-75000J0D01*
G01*
X-68685000Y-127690000D01*
G75*
G02*
X-68760000Y-127615000I0J75000D01*
G01*
G37*
G36*
G01*
X-68760000Y-128115000D02*
X-68760000Y-127965000D01*
G75*
G02*
X-68685000Y-127890000I75000J0D01*
G01*
X-67285000Y-127890000D01*
G75*
G02*
X-67210000Y-127965000I0J-75000D01*
G01*
X-67210000Y-128115000D01*
G75*
G02*
X-67285000Y-128190000I-75000J0D01*
G01*
X-68685000Y-128190000D01*
G75*
G02*
X-68760000Y-128115000I0J75000D01*
G01*
G37*
G36*
G01*
X-70060000Y-130665000D02*
X-70060000Y-129265000D01*
G75*
G02*
X-69985000Y-129190000I75000J0D01*
G01*
X-69835000Y-129190000D01*
G75*
G02*
X-69760000Y-129265000I0J-75000D01*
G01*
X-69760000Y-130665000D01*
G75*
G02*
X-69835000Y-130740000I-75000J0D01*
G01*
X-69985000Y-130740000D01*
G75*
G02*
X-70060000Y-130665000I0J75000D01*
G01*
G37*
G36*
G01*
X-70560000Y-130665000D02*
X-70560000Y-129265000D01*
G75*
G02*
X-70485000Y-129190000I75000J0D01*
G01*
X-70335000Y-129190000D01*
G75*
G02*
X-70260000Y-129265000I0J-75000D01*
G01*
X-70260000Y-130665000D01*
G75*
G02*
X-70335000Y-130740000I-75000J0D01*
G01*
X-70485000Y-130740000D01*
G75*
G02*
X-70560000Y-130665000I0J75000D01*
G01*
G37*
G36*
G01*
X-71060000Y-130665000D02*
X-71060000Y-129265000D01*
G75*
G02*
X-70985000Y-129190000I75000J0D01*
G01*
X-70835000Y-129190000D01*
G75*
G02*
X-70760000Y-129265000I0J-75000D01*
G01*
X-70760000Y-130665000D01*
G75*
G02*
X-70835000Y-130740000I-75000J0D01*
G01*
X-70985000Y-130740000D01*
G75*
G02*
X-71060000Y-130665000I0J75000D01*
G01*
G37*
G36*
G01*
X-71560000Y-130665000D02*
X-71560000Y-129265000D01*
G75*
G02*
X-71485000Y-129190000I75000J0D01*
G01*
X-71335000Y-129190000D01*
G75*
G02*
X-71260000Y-129265000I0J-75000D01*
G01*
X-71260000Y-130665000D01*
G75*
G02*
X-71335000Y-130740000I-75000J0D01*
G01*
X-71485000Y-130740000D01*
G75*
G02*
X-71560000Y-130665000I0J75000D01*
G01*
G37*
G36*
G01*
X-72060000Y-130665000D02*
X-72060000Y-129265000D01*
G75*
G02*
X-71985000Y-129190000I75000J0D01*
G01*
X-71835000Y-129190000D01*
G75*
G02*
X-71760000Y-129265000I0J-75000D01*
G01*
X-71760000Y-130665000D01*
G75*
G02*
X-71835000Y-130740000I-75000J0D01*
G01*
X-71985000Y-130740000D01*
G75*
G02*
X-72060000Y-130665000I0J75000D01*
G01*
G37*
G36*
G01*
X-72560000Y-130665000D02*
X-72560000Y-129265000D01*
G75*
G02*
X-72485000Y-129190000I75000J0D01*
G01*
X-72335000Y-129190000D01*
G75*
G02*
X-72260000Y-129265000I0J-75000D01*
G01*
X-72260000Y-130665000D01*
G75*
G02*
X-72335000Y-130740000I-75000J0D01*
G01*
X-72485000Y-130740000D01*
G75*
G02*
X-72560000Y-130665000I0J75000D01*
G01*
G37*
G36*
G01*
X-73060000Y-130665000D02*
X-73060000Y-129265000D01*
G75*
G02*
X-72985000Y-129190000I75000J0D01*
G01*
X-72835000Y-129190000D01*
G75*
G02*
X-72760000Y-129265000I0J-75000D01*
G01*
X-72760000Y-130665000D01*
G75*
G02*
X-72835000Y-130740000I-75000J0D01*
G01*
X-72985000Y-130740000D01*
G75*
G02*
X-73060000Y-130665000I0J75000D01*
G01*
G37*
G36*
G01*
X-73560000Y-130665000D02*
X-73560000Y-129265000D01*
G75*
G02*
X-73485000Y-129190000I75000J0D01*
G01*
X-73335000Y-129190000D01*
G75*
G02*
X-73260000Y-129265000I0J-75000D01*
G01*
X-73260000Y-130665000D01*
G75*
G02*
X-73335000Y-130740000I-75000J0D01*
G01*
X-73485000Y-130740000D01*
G75*
G02*
X-73560000Y-130665000I0J75000D01*
G01*
G37*
G36*
G01*
X-74060000Y-130665000D02*
X-74060000Y-129265000D01*
G75*
G02*
X-73985000Y-129190000I75000J0D01*
G01*
X-73835000Y-129190000D01*
G75*
G02*
X-73760000Y-129265000I0J-75000D01*
G01*
X-73760000Y-130665000D01*
G75*
G02*
X-73835000Y-130740000I-75000J0D01*
G01*
X-73985000Y-130740000D01*
G75*
G02*
X-74060000Y-130665000I0J75000D01*
G01*
G37*
G36*
G01*
X-74560000Y-130665000D02*
X-74560000Y-129265000D01*
G75*
G02*
X-74485000Y-129190000I75000J0D01*
G01*
X-74335000Y-129190000D01*
G75*
G02*
X-74260000Y-129265000I0J-75000D01*
G01*
X-74260000Y-130665000D01*
G75*
G02*
X-74335000Y-130740000I-75000J0D01*
G01*
X-74485000Y-130740000D01*
G75*
G02*
X-74560000Y-130665000I0J75000D01*
G01*
G37*
G36*
G01*
X-75060000Y-130665000D02*
X-75060000Y-129265000D01*
G75*
G02*
X-74985000Y-129190000I75000J0D01*
G01*
X-74835000Y-129190000D01*
G75*
G02*
X-74760000Y-129265000I0J-75000D01*
G01*
X-74760000Y-130665000D01*
G75*
G02*
X-74835000Y-130740000I-75000J0D01*
G01*
X-74985000Y-130740000D01*
G75*
G02*
X-75060000Y-130665000I0J75000D01*
G01*
G37*
G36*
G01*
X-75560000Y-130665000D02*
X-75560000Y-129265000D01*
G75*
G02*
X-75485000Y-129190000I75000J0D01*
G01*
X-75335000Y-129190000D01*
G75*
G02*
X-75260000Y-129265000I0J-75000D01*
G01*
X-75260000Y-130665000D01*
G75*
G02*
X-75335000Y-130740000I-75000J0D01*
G01*
X-75485000Y-130740000D01*
G75*
G02*
X-75560000Y-130665000I0J75000D01*
G01*
G37*
G36*
G01*
X-76060000Y-130665000D02*
X-76060000Y-129265000D01*
G75*
G02*
X-75985000Y-129190000I75000J0D01*
G01*
X-75835000Y-129190000D01*
G75*
G02*
X-75760000Y-129265000I0J-75000D01*
G01*
X-75760000Y-130665000D01*
G75*
G02*
X-75835000Y-130740000I-75000J0D01*
G01*
X-75985000Y-130740000D01*
G75*
G02*
X-76060000Y-130665000I0J75000D01*
G01*
G37*
G36*
G01*
X-76560000Y-130665000D02*
X-76560000Y-129265000D01*
G75*
G02*
X-76485000Y-129190000I75000J0D01*
G01*
X-76335000Y-129190000D01*
G75*
G02*
X-76260000Y-129265000I0J-75000D01*
G01*
X-76260000Y-130665000D01*
G75*
G02*
X-76335000Y-130740000I-75000J0D01*
G01*
X-76485000Y-130740000D01*
G75*
G02*
X-76560000Y-130665000I0J75000D01*
G01*
G37*
G36*
G01*
X-77060000Y-130665000D02*
X-77060000Y-129265000D01*
G75*
G02*
X-76985000Y-129190000I75000J0D01*
G01*
X-76835000Y-129190000D01*
G75*
G02*
X-76760000Y-129265000I0J-75000D01*
G01*
X-76760000Y-130665000D01*
G75*
G02*
X-76835000Y-130740000I-75000J0D01*
G01*
X-76985000Y-130740000D01*
G75*
G02*
X-77060000Y-130665000I0J75000D01*
G01*
G37*
G36*
G01*
X-77560000Y-130665000D02*
X-77560000Y-129265000D01*
G75*
G02*
X-77485000Y-129190000I75000J0D01*
G01*
X-77335000Y-129190000D01*
G75*
G02*
X-77260000Y-129265000I0J-75000D01*
G01*
X-77260000Y-130665000D01*
G75*
G02*
X-77335000Y-130740000I-75000J0D01*
G01*
X-77485000Y-130740000D01*
G75*
G02*
X-77560000Y-130665000I0J75000D01*
G01*
G37*
G36*
G01*
X-80110000Y-128115000D02*
X-80110000Y-127965000D01*
G75*
G02*
X-80035000Y-127890000I75000J0D01*
G01*
X-78635000Y-127890000D01*
G75*
G02*
X-78560000Y-127965000I0J-75000D01*
G01*
X-78560000Y-128115000D01*
G75*
G02*
X-78635000Y-128190000I-75000J0D01*
G01*
X-80035000Y-128190000D01*
G75*
G02*
X-80110000Y-128115000I0J75000D01*
G01*
G37*
G36*
G01*
X-80110000Y-127615000D02*
X-80110000Y-127465000D01*
G75*
G02*
X-80035000Y-127390000I75000J0D01*
G01*
X-78635000Y-127390000D01*
G75*
G02*
X-78560000Y-127465000I0J-75000D01*
G01*
X-78560000Y-127615000D01*
G75*
G02*
X-78635000Y-127690000I-75000J0D01*
G01*
X-80035000Y-127690000D01*
G75*
G02*
X-80110000Y-127615000I0J75000D01*
G01*
G37*
G36*
G01*
X-80110000Y-127115000D02*
X-80110000Y-126965000D01*
G75*
G02*
X-80035000Y-126890000I75000J0D01*
G01*
X-78635000Y-126890000D01*
G75*
G02*
X-78560000Y-126965000I0J-75000D01*
G01*
X-78560000Y-127115000D01*
G75*
G02*
X-78635000Y-127190000I-75000J0D01*
G01*
X-80035000Y-127190000D01*
G75*
G02*
X-80110000Y-127115000I0J75000D01*
G01*
G37*
G36*
G01*
X-80110000Y-126615000D02*
X-80110000Y-126465000D01*
G75*
G02*
X-80035000Y-126390000I75000J0D01*
G01*
X-78635000Y-126390000D01*
G75*
G02*
X-78560000Y-126465000I0J-75000D01*
G01*
X-78560000Y-126615000D01*
G75*
G02*
X-78635000Y-126690000I-75000J0D01*
G01*
X-80035000Y-126690000D01*
G75*
G02*
X-80110000Y-126615000I0J75000D01*
G01*
G37*
G36*
G01*
X-80110000Y-126115000D02*
X-80110000Y-125965000D01*
G75*
G02*
X-80035000Y-125890000I75000J0D01*
G01*
X-78635000Y-125890000D01*
G75*
G02*
X-78560000Y-125965000I0J-75000D01*
G01*
X-78560000Y-126115000D01*
G75*
G02*
X-78635000Y-126190000I-75000J0D01*
G01*
X-80035000Y-126190000D01*
G75*
G02*
X-80110000Y-126115000I0J75000D01*
G01*
G37*
G36*
G01*
X-80110000Y-125615000D02*
X-80110000Y-125465000D01*
G75*
G02*
X-80035000Y-125390000I75000J0D01*
G01*
X-78635000Y-125390000D01*
G75*
G02*
X-78560000Y-125465000I0J-75000D01*
G01*
X-78560000Y-125615000D01*
G75*
G02*
X-78635000Y-125690000I-75000J0D01*
G01*
X-80035000Y-125690000D01*
G75*
G02*
X-80110000Y-125615000I0J75000D01*
G01*
G37*
G36*
G01*
X-80110000Y-125115000D02*
X-80110000Y-124965000D01*
G75*
G02*
X-80035000Y-124890000I75000J0D01*
G01*
X-78635000Y-124890000D01*
G75*
G02*
X-78560000Y-124965000I0J-75000D01*
G01*
X-78560000Y-125115000D01*
G75*
G02*
X-78635000Y-125190000I-75000J0D01*
G01*
X-80035000Y-125190000D01*
G75*
G02*
X-80110000Y-125115000I0J75000D01*
G01*
G37*
G36*
G01*
X-80110000Y-124615000D02*
X-80110000Y-124465000D01*
G75*
G02*
X-80035000Y-124390000I75000J0D01*
G01*
X-78635000Y-124390000D01*
G75*
G02*
X-78560000Y-124465000I0J-75000D01*
G01*
X-78560000Y-124615000D01*
G75*
G02*
X-78635000Y-124690000I-75000J0D01*
G01*
X-80035000Y-124690000D01*
G75*
G02*
X-80110000Y-124615000I0J75000D01*
G01*
G37*
G36*
G01*
X-80110000Y-124115000D02*
X-80110000Y-123965000D01*
G75*
G02*
X-80035000Y-123890000I75000J0D01*
G01*
X-78635000Y-123890000D01*
G75*
G02*
X-78560000Y-123965000I0J-75000D01*
G01*
X-78560000Y-124115000D01*
G75*
G02*
X-78635000Y-124190000I-75000J0D01*
G01*
X-80035000Y-124190000D01*
G75*
G02*
X-80110000Y-124115000I0J75000D01*
G01*
G37*
G36*
G01*
X-80110000Y-123615000D02*
X-80110000Y-123465000D01*
G75*
G02*
X-80035000Y-123390000I75000J0D01*
G01*
X-78635000Y-123390000D01*
G75*
G02*
X-78560000Y-123465000I0J-75000D01*
G01*
X-78560000Y-123615000D01*
G75*
G02*
X-78635000Y-123690000I-75000J0D01*
G01*
X-80035000Y-123690000D01*
G75*
G02*
X-80110000Y-123615000I0J75000D01*
G01*
G37*
G36*
G01*
X-80110000Y-123115000D02*
X-80110000Y-122965000D01*
G75*
G02*
X-80035000Y-122890000I75000J0D01*
G01*
X-78635000Y-122890000D01*
G75*
G02*
X-78560000Y-122965000I0J-75000D01*
G01*
X-78560000Y-123115000D01*
G75*
G02*
X-78635000Y-123190000I-75000J0D01*
G01*
X-80035000Y-123190000D01*
G75*
G02*
X-80110000Y-123115000I0J75000D01*
G01*
G37*
G36*
G01*
X-80110000Y-122615000D02*
X-80110000Y-122465000D01*
G75*
G02*
X-80035000Y-122390000I75000J0D01*
G01*
X-78635000Y-122390000D01*
G75*
G02*
X-78560000Y-122465000I0J-75000D01*
G01*
X-78560000Y-122615000D01*
G75*
G02*
X-78635000Y-122690000I-75000J0D01*
G01*
X-80035000Y-122690000D01*
G75*
G02*
X-80110000Y-122615000I0J75000D01*
G01*
G37*
G36*
G01*
X-80110000Y-122115000D02*
X-80110000Y-121965000D01*
G75*
G02*
X-80035000Y-121890000I75000J0D01*
G01*
X-78635000Y-121890000D01*
G75*
G02*
X-78560000Y-121965000I0J-75000D01*
G01*
X-78560000Y-122115000D01*
G75*
G02*
X-78635000Y-122190000I-75000J0D01*
G01*
X-80035000Y-122190000D01*
G75*
G02*
X-80110000Y-122115000I0J75000D01*
G01*
G37*
G36*
G01*
X-80110000Y-121615000D02*
X-80110000Y-121465000D01*
G75*
G02*
X-80035000Y-121390000I75000J0D01*
G01*
X-78635000Y-121390000D01*
G75*
G02*
X-78560000Y-121465000I0J-75000D01*
G01*
X-78560000Y-121615000D01*
G75*
G02*
X-78635000Y-121690000I-75000J0D01*
G01*
X-80035000Y-121690000D01*
G75*
G02*
X-80110000Y-121615000I0J75000D01*
G01*
G37*
G36*
G01*
X-80110000Y-121115000D02*
X-80110000Y-120965000D01*
G75*
G02*
X-80035000Y-120890000I75000J0D01*
G01*
X-78635000Y-120890000D01*
G75*
G02*
X-78560000Y-120965000I0J-75000D01*
G01*
X-78560000Y-121115000D01*
G75*
G02*
X-78635000Y-121190000I-75000J0D01*
G01*
X-80035000Y-121190000D01*
G75*
G02*
X-80110000Y-121115000I0J75000D01*
G01*
G37*
G36*
G01*
X-80110000Y-120615000D02*
X-80110000Y-120465000D01*
G75*
G02*
X-80035000Y-120390000I75000J0D01*
G01*
X-78635000Y-120390000D01*
G75*
G02*
X-78560000Y-120465000I0J-75000D01*
G01*
X-78560000Y-120615000D01*
G75*
G02*
X-78635000Y-120690000I-75000J0D01*
G01*
X-80035000Y-120690000D01*
G75*
G02*
X-80110000Y-120615000I0J75000D01*
G01*
G37*
G04 #@! TD*
G04 #@! TO.C,C29*
G36*
G01*
X-77290000Y-131380000D02*
X-77290000Y-131720000D01*
G75*
G02*
X-77430000Y-131860000I-140000J0D01*
G01*
X-77710000Y-131860000D01*
G75*
G02*
X-77850000Y-131720000I0J140000D01*
G01*
X-77850000Y-131380000D01*
G75*
G02*
X-77710000Y-131240000I140000J0D01*
G01*
X-77430000Y-131240000D01*
G75*
G02*
X-77290000Y-131380000I0J-140000D01*
G01*
G37*
G36*
G01*
X-76330000Y-131380000D02*
X-76330000Y-131720000D01*
G75*
G02*
X-76470000Y-131860000I-140000J0D01*
G01*
X-76750000Y-131860000D01*
G75*
G02*
X-76890000Y-131720000I0J140000D01*
G01*
X-76890000Y-131380000D01*
G75*
G02*
X-76750000Y-131240000I140000J0D01*
G01*
X-76470000Y-131240000D01*
G75*
G02*
X-76330000Y-131380000I0J-140000D01*
G01*
G37*
G04 #@! TD*
D21*
G04 #@! TO.C,H2*
X-77980000Y-104870000D03*
G04 #@! TD*
G04 #@! TO.C,H1*
X-65730000Y-151940000D03*
G04 #@! TD*
D19*
G04 #@! TO.C,J5*
X-68210000Y-92110000D03*
X-70750000Y-92110000D03*
X-73290000Y-92110000D03*
X-75830000Y-92110000D03*
X-78370000Y-92110000D03*
X-80910000Y-92110000D03*
D20*
X-83450000Y-92110000D03*
G04 #@! TD*
D22*
G04 #@! TO.C,U9*
X-58520000Y-109650000D03*
D23*
X-57020000Y-108700000D03*
X-57020000Y-109650000D03*
X-57020000Y-110600000D03*
X-60020000Y-110600000D03*
X-60020000Y-109650000D03*
X-60020000Y-108700000D03*
G04 #@! TD*
G04 #@! TO.C,C28*
G36*
G01*
X-56030000Y-109390000D02*
X-55690000Y-109390000D01*
G75*
G02*
X-55550000Y-109530000I0J-140000D01*
G01*
X-55550000Y-109810000D01*
G75*
G02*
X-55690000Y-109950000I-140000J0D01*
G01*
X-56030000Y-109950000D01*
G75*
G02*
X-56170000Y-109810000I0J140000D01*
G01*
X-56170000Y-109530000D01*
G75*
G02*
X-56030000Y-109390000I140000J0D01*
G01*
G37*
G36*
G01*
X-56030000Y-108430000D02*
X-55690000Y-108430000D01*
G75*
G02*
X-55550000Y-108570000I0J-140000D01*
G01*
X-55550000Y-108850000D01*
G75*
G02*
X-55690000Y-108990000I-140000J0D01*
G01*
X-56030000Y-108990000D01*
G75*
G02*
X-56170000Y-108850000I0J140000D01*
G01*
X-56170000Y-108570000D01*
G75*
G02*
X-56030000Y-108430000I140000J0D01*
G01*
G37*
G04 #@! TD*
G04 #@! TO.C,C27*
G36*
G01*
X-61350000Y-109400000D02*
X-61010000Y-109400000D01*
G75*
G02*
X-60870000Y-109540000I0J-140000D01*
G01*
X-60870000Y-109820000D01*
G75*
G02*
X-61010000Y-109960000I-140000J0D01*
G01*
X-61350000Y-109960000D01*
G75*
G02*
X-61490000Y-109820000I0J140000D01*
G01*
X-61490000Y-109540000D01*
G75*
G02*
X-61350000Y-109400000I140000J0D01*
G01*
G37*
G36*
G01*
X-61350000Y-108440000D02*
X-61010000Y-108440000D01*
G75*
G02*
X-60870000Y-108580000I0J-140000D01*
G01*
X-60870000Y-108860000D01*
G75*
G02*
X-61010000Y-109000000I-140000J0D01*
G01*
X-61350000Y-109000000D01*
G75*
G02*
X-61490000Y-108860000I0J140000D01*
G01*
X-61490000Y-108580000D01*
G75*
G02*
X-61350000Y-108440000I140000J0D01*
G01*
G37*
G04 #@! TD*
D24*
G04 #@! TO.C,U5*
X-48475000Y-115420000D03*
X-48475000Y-114920000D03*
X-48475000Y-114420000D03*
X-46865000Y-114420000D03*
X-46865000Y-114920000D03*
X-46865000Y-115420000D03*
G04 #@! TD*
G04 #@! TO.C,R25*
G36*
G01*
X-81095000Y-127790000D02*
X-80725000Y-127790000D01*
G75*
G02*
X-80590000Y-127925000I0J-135000D01*
G01*
X-80590000Y-128195000D01*
G75*
G02*
X-80725000Y-128330000I-135000J0D01*
G01*
X-81095000Y-128330000D01*
G75*
G02*
X-81230000Y-128195000I0J135000D01*
G01*
X-81230000Y-127925000D01*
G75*
G02*
X-81095000Y-127790000I135000J0D01*
G01*
G37*
G36*
G01*
X-81095000Y-126770000D02*
X-80725000Y-126770000D01*
G75*
G02*
X-80590000Y-126905000I0J-135000D01*
G01*
X-80590000Y-127175000D01*
G75*
G02*
X-80725000Y-127310000I-135000J0D01*
G01*
X-81095000Y-127310000D01*
G75*
G02*
X-81230000Y-127175000I0J135000D01*
G01*
X-81230000Y-126905000D01*
G75*
G02*
X-81095000Y-126770000I135000J0D01*
G01*
G37*
G04 #@! TD*
G04 #@! TO.C,R24*
G36*
G01*
X-82105000Y-127790000D02*
X-81735000Y-127790000D01*
G75*
G02*
X-81600000Y-127925000I0J-135000D01*
G01*
X-81600000Y-128195000D01*
G75*
G02*
X-81735000Y-128330000I-135000J0D01*
G01*
X-82105000Y-128330000D01*
G75*
G02*
X-82240000Y-128195000I0J135000D01*
G01*
X-82240000Y-127925000D01*
G75*
G02*
X-82105000Y-127790000I135000J0D01*
G01*
G37*
G36*
G01*
X-82105000Y-126770000D02*
X-81735000Y-126770000D01*
G75*
G02*
X-81600000Y-126905000I0J-135000D01*
G01*
X-81600000Y-127175000D01*
G75*
G02*
X-81735000Y-127310000I-135000J0D01*
G01*
X-82105000Y-127310000D01*
G75*
G02*
X-82240000Y-127175000I0J135000D01*
G01*
X-82240000Y-126905000D01*
G75*
G02*
X-82105000Y-126770000I135000J0D01*
G01*
G37*
G04 #@! TD*
G04 #@! TO.C,R14*
G36*
G01*
X-42770000Y-113725000D02*
X-42770000Y-113355000D01*
G75*
G02*
X-42635000Y-113220000I135000J0D01*
G01*
X-42365000Y-113220000D01*
G75*
G02*
X-42230000Y-113355000I0J-135000D01*
G01*
X-42230000Y-113725000D01*
G75*
G02*
X-42365000Y-113860000I-135000J0D01*
G01*
X-42635000Y-113860000D01*
G75*
G02*
X-42770000Y-113725000I0J135000D01*
G01*
G37*
G36*
G01*
X-43790000Y-113725000D02*
X-43790000Y-113355000D01*
G75*
G02*
X-43655000Y-113220000I135000J0D01*
G01*
X-43385000Y-113220000D01*
G75*
G02*
X-43250000Y-113355000I0J-135000D01*
G01*
X-43250000Y-113725000D01*
G75*
G02*
X-43385000Y-113860000I-135000J0D01*
G01*
X-43655000Y-113860000D01*
G75*
G02*
X-43790000Y-113725000I0J135000D01*
G01*
G37*
G04 #@! TD*
G04 #@! TO.C,R13*
G36*
G01*
X-48950000Y-93635000D02*
X-48950000Y-94005000D01*
G75*
G02*
X-49085000Y-94140000I-135000J0D01*
G01*
X-49355000Y-94140000D01*
G75*
G02*
X-49490000Y-94005000I0J135000D01*
G01*
X-49490000Y-93635000D01*
G75*
G02*
X-49355000Y-93500000I135000J0D01*
G01*
X-49085000Y-93500000D01*
G75*
G02*
X-48950000Y-93635000I0J-135000D01*
G01*
G37*
G36*
G01*
X-47930000Y-93635000D02*
X-47930000Y-94005000D01*
G75*
G02*
X-48065000Y-94140000I-135000J0D01*
G01*
X-48335000Y-94140000D01*
G75*
G02*
X-48470000Y-94005000I0J135000D01*
G01*
X-48470000Y-93635000D01*
G75*
G02*
X-48335000Y-93500000I135000J0D01*
G01*
X-48065000Y-93500000D01*
G75*
G02*
X-47930000Y-93635000I0J-135000D01*
G01*
G37*
G04 #@! TD*
G04 #@! TO.C,R12*
G36*
G01*
X-42675000Y-119110000D02*
X-43045000Y-119110000D01*
G75*
G02*
X-43180000Y-118975000I0J135000D01*
G01*
X-43180000Y-118705000D01*
G75*
G02*
X-43045000Y-118570000I135000J0D01*
G01*
X-42675000Y-118570000D01*
G75*
G02*
X-42540000Y-118705000I0J-135000D01*
G01*
X-42540000Y-118975000D01*
G75*
G02*
X-42675000Y-119110000I-135000J0D01*
G01*
G37*
G36*
G01*
X-42675000Y-120130000D02*
X-43045000Y-120130000D01*
G75*
G02*
X-43180000Y-119995000I0J135000D01*
G01*
X-43180000Y-119725000D01*
G75*
G02*
X-43045000Y-119590000I135000J0D01*
G01*
X-42675000Y-119590000D01*
G75*
G02*
X-42540000Y-119725000I0J-135000D01*
G01*
X-42540000Y-119995000D01*
G75*
G02*
X-42675000Y-120130000I-135000J0D01*
G01*
G37*
G04 #@! TD*
G04 #@! TO.C,J2*
G36*
G01*
X-38970000Y-117302000D02*
X-40120000Y-117302000D01*
G75*
G02*
X-40222000Y-117200000I0J102000D01*
G01*
X-40222000Y-116900000D01*
G75*
G02*
X-40120000Y-116798000I102000J0D01*
G01*
X-38970000Y-116798000D01*
G75*
G02*
X-38868000Y-116900000I0J-102000D01*
G01*
X-38868000Y-117200000D01*
G75*
G02*
X-38970000Y-117302000I-102000J0D01*
G01*
G37*
G36*
G01*
X-38970000Y-116802000D02*
X-40120000Y-116802000D01*
G75*
G02*
X-40222000Y-116700000I0J102000D01*
G01*
X-40222000Y-116400000D01*
G75*
G02*
X-40120000Y-116298000I102000J0D01*
G01*
X-38970000Y-116298000D01*
G75*
G02*
X-38868000Y-116400000I0J-102000D01*
G01*
X-38868000Y-116700000D01*
G75*
G02*
X-38970000Y-116802000I-102000J0D01*
G01*
G37*
G36*
G01*
X-38970000Y-116302000D02*
X-40120000Y-116302000D01*
G75*
G02*
X-40222000Y-116200000I0J102000D01*
G01*
X-40222000Y-115900000D01*
G75*
G02*
X-40120000Y-115798000I102000J0D01*
G01*
X-38970000Y-115798000D01*
G75*
G02*
X-38868000Y-115900000I0J-102000D01*
G01*
X-38868000Y-116200000D01*
G75*
G02*
X-38970000Y-116302000I-102000J0D01*
G01*
G37*
G36*
G01*
X-38970000Y-113802000D02*
X-40120000Y-113802000D01*
G75*
G02*
X-40222000Y-113700000I0J102000D01*
G01*
X-40222000Y-113400000D01*
G75*
G02*
X-40120000Y-113298000I102000J0D01*
G01*
X-38970000Y-113298000D01*
G75*
G02*
X-38868000Y-113400000I0J-102000D01*
G01*
X-38868000Y-113700000D01*
G75*
G02*
X-38970000Y-113802000I-102000J0D01*
G01*
G37*
G36*
G01*
X-38970000Y-114302000D02*
X-40120000Y-114302000D01*
G75*
G02*
X-40222000Y-114200000I0J102000D01*
G01*
X-40222000Y-113900000D01*
G75*
G02*
X-40120000Y-113798000I102000J0D01*
G01*
X-38970000Y-113798000D01*
G75*
G02*
X-38868000Y-113900000I0J-102000D01*
G01*
X-38868000Y-114200000D01*
G75*
G02*
X-38970000Y-114302000I-102000J0D01*
G01*
G37*
G36*
G01*
X-38970000Y-114802000D02*
X-40120000Y-114802000D01*
G75*
G02*
X-40222000Y-114700000I0J102000D01*
G01*
X-40222000Y-114400000D01*
G75*
G02*
X-40120000Y-114298000I102000J0D01*
G01*
X-38970000Y-114298000D01*
G75*
G02*
X-38868000Y-114400000I0J-102000D01*
G01*
X-38868000Y-114700000D01*
G75*
G02*
X-38970000Y-114802000I-102000J0D01*
G01*
G37*
G36*
G01*
X-38970000Y-115802000D02*
X-40120000Y-115802000D01*
G75*
G02*
X-40222000Y-115700000I0J102000D01*
G01*
X-40222000Y-115400000D01*
G75*
G02*
X-40120000Y-115298000I102000J0D01*
G01*
X-38970000Y-115298000D01*
G75*
G02*
X-38868000Y-115400000I0J-102000D01*
G01*
X-38868000Y-115700000D01*
G75*
G02*
X-38970000Y-115802000I-102000J0D01*
G01*
G37*
G36*
G01*
X-38970000Y-115302000D02*
X-40120000Y-115302000D01*
G75*
G02*
X-40222000Y-115200000I0J102000D01*
G01*
X-40222000Y-114900000D01*
G75*
G02*
X-40120000Y-114798000I102000J0D01*
G01*
X-38970000Y-114798000D01*
G75*
G02*
X-38868000Y-114900000I0J-102000D01*
G01*
X-38868000Y-115200000D01*
G75*
G02*
X-38970000Y-115302000I-102000J0D01*
G01*
G37*
G36*
G01*
X-38970000Y-113302000D02*
X-40120000Y-113302000D01*
G75*
G02*
X-40222000Y-113200000I0J102000D01*
G01*
X-40222000Y-112600000D01*
G75*
G02*
X-40120000Y-112498000I102000J0D01*
G01*
X-38970000Y-112498000D01*
G75*
G02*
X-38868000Y-112600000I0J-102000D01*
G01*
X-38868000Y-113200000D01*
G75*
G02*
X-38970000Y-113302000I-102000J0D01*
G01*
G37*
G36*
G01*
X-38970000Y-118102000D02*
X-40120000Y-118102000D01*
G75*
G02*
X-40222000Y-118000000I0J102000D01*
G01*
X-40222000Y-117400000D01*
G75*
G02*
X-40120000Y-117298000I102000J0D01*
G01*
X-38970000Y-117298000D01*
G75*
G02*
X-38868000Y-117400000I0J-102000D01*
G01*
X-38868000Y-118000000D01*
G75*
G02*
X-38970000Y-118102000I-102000J0D01*
G01*
G37*
G36*
G01*
X-38970000Y-112502000D02*
X-40120000Y-112502000D01*
G75*
G02*
X-40222000Y-112400000I0J102000D01*
G01*
X-40222000Y-111800000D01*
G75*
G02*
X-40120000Y-111698000I102000J0D01*
G01*
X-38970000Y-111698000D01*
G75*
G02*
X-38868000Y-111800000I0J-102000D01*
G01*
X-38868000Y-112400000D01*
G75*
G02*
X-38970000Y-112502000I-102000J0D01*
G01*
G37*
G36*
G01*
X-38970000Y-118902000D02*
X-40120000Y-118902000D01*
G75*
G02*
X-40222000Y-118800000I0J102000D01*
G01*
X-40222000Y-118200000D01*
G75*
G02*
X-40120000Y-118098000I102000J0D01*
G01*
X-38970000Y-118098000D01*
G75*
G02*
X-38868000Y-118200000I0J-102000D01*
G01*
X-38868000Y-118800000D01*
G75*
G02*
X-38970000Y-118902000I-102000J0D01*
G01*
G37*
D25*
X-38470000Y-118190000D03*
X-38470000Y-112410000D03*
D26*
X-38970000Y-110980000D03*
X-38970000Y-119620000D03*
G36*
G01*
X-34089000Y-111582000D02*
X-35491000Y-111582000D01*
G75*
G02*
X-35792000Y-111281000I0J301000D01*
G01*
X-35792000Y-110679000D01*
G75*
G02*
X-35491000Y-110378000I301000J0D01*
G01*
X-34089000Y-110378000D01*
G75*
G02*
X-33788000Y-110679000I0J-301000D01*
G01*
X-33788000Y-111281000D01*
G75*
G02*
X-34089000Y-111582000I-301000J0D01*
G01*
G37*
G36*
G01*
X-34089000Y-120222000D02*
X-35491000Y-120222000D01*
G75*
G02*
X-35792000Y-119921000I0J301000D01*
G01*
X-35792000Y-119319000D01*
G75*
G02*
X-35491000Y-119018000I301000J0D01*
G01*
X-34089000Y-119018000D01*
G75*
G02*
X-33788000Y-119319000I0J-301000D01*
G01*
X-33788000Y-119921000D01*
G75*
G02*
X-34089000Y-120222000I-301000J0D01*
G01*
G37*
G04 #@! TD*
G04 #@! TO.C,F1*
G36*
G01*
X-44140000Y-111496250D02*
X-44140000Y-110983750D01*
G75*
G02*
X-43921250Y-110765000I218750J0D01*
G01*
X-43483750Y-110765000D01*
G75*
G02*
X-43265000Y-110983750I0J-218750D01*
G01*
X-43265000Y-111496250D01*
G75*
G02*
X-43483750Y-111715000I-218750J0D01*
G01*
X-43921250Y-111715000D01*
G75*
G02*
X-44140000Y-111496250I0J218750D01*
G01*
G37*
G36*
G01*
X-45715000Y-111496250D02*
X-45715000Y-110983750D01*
G75*
G02*
X-45496250Y-110765000I218750J0D01*
G01*
X-45058750Y-110765000D01*
G75*
G02*
X-44840000Y-110983750I0J-218750D01*
G01*
X-44840000Y-111496250D01*
G75*
G02*
X-45058750Y-111715000I-218750J0D01*
G01*
X-45496250Y-111715000D01*
G75*
G02*
X-45715000Y-111496250I0J218750D01*
G01*
G37*
G04 #@! TD*
G04 #@! TO.C,C14*
G36*
G01*
X-46670000Y-111910000D02*
X-46330000Y-111910000D01*
G75*
G02*
X-46190000Y-112050000I0J-140000D01*
G01*
X-46190000Y-112330000D01*
G75*
G02*
X-46330000Y-112470000I-140000J0D01*
G01*
X-46670000Y-112470000D01*
G75*
G02*
X-46810000Y-112330000I0J140000D01*
G01*
X-46810000Y-112050000D01*
G75*
G02*
X-46670000Y-111910000I140000J0D01*
G01*
G37*
G36*
G01*
X-46670000Y-110950000D02*
X-46330000Y-110950000D01*
G75*
G02*
X-46190000Y-111090000I0J-140000D01*
G01*
X-46190000Y-111370000D01*
G75*
G02*
X-46330000Y-111510000I-140000J0D01*
G01*
X-46670000Y-111510000D01*
G75*
G02*
X-46810000Y-111370000I0J140000D01*
G01*
X-46810000Y-111090000D01*
G75*
G02*
X-46670000Y-110950000I140000J0D01*
G01*
G37*
G04 #@! TD*
G04 #@! TO.C,C13*
G36*
G01*
X-42630000Y-111910000D02*
X-42290000Y-111910000D01*
G75*
G02*
X-42150000Y-112050000I0J-140000D01*
G01*
X-42150000Y-112330000D01*
G75*
G02*
X-42290000Y-112470000I-140000J0D01*
G01*
X-42630000Y-112470000D01*
G75*
G02*
X-42770000Y-112330000I0J140000D01*
G01*
X-42770000Y-112050000D01*
G75*
G02*
X-42630000Y-111910000I140000J0D01*
G01*
G37*
G36*
G01*
X-42630000Y-110950000D02*
X-42290000Y-110950000D01*
G75*
G02*
X-42150000Y-111090000I0J-140000D01*
G01*
X-42150000Y-111370000D01*
G75*
G02*
X-42290000Y-111510000I-140000J0D01*
G01*
X-42630000Y-111510000D01*
G75*
G02*
X-42770000Y-111370000I0J140000D01*
G01*
X-42770000Y-111090000D01*
G75*
G02*
X-42630000Y-110950000I140000J0D01*
G01*
G37*
G04 #@! TD*
D27*
G04 #@! TO.C,U6*
X-50320000Y-109390000D03*
X-52220000Y-109390000D03*
X-52220000Y-106890000D03*
X-51270000Y-106890000D03*
X-50320000Y-106890000D03*
G04 #@! TD*
G04 #@! TO.C,R17*
G36*
G01*
X-50515000Y-111440000D02*
X-50145000Y-111440000D01*
G75*
G02*
X-50010000Y-111575000I0J-135000D01*
G01*
X-50010000Y-111845000D01*
G75*
G02*
X-50145000Y-111980000I-135000J0D01*
G01*
X-50515000Y-111980000D01*
G75*
G02*
X-50650000Y-111845000I0J135000D01*
G01*
X-50650000Y-111575000D01*
G75*
G02*
X-50515000Y-111440000I135000J0D01*
G01*
G37*
G36*
G01*
X-50515000Y-110420000D02*
X-50145000Y-110420000D01*
G75*
G02*
X-50010000Y-110555000I0J-135000D01*
G01*
X-50010000Y-110825000D01*
G75*
G02*
X-50145000Y-110960000I-135000J0D01*
G01*
X-50515000Y-110960000D01*
G75*
G02*
X-50650000Y-110825000I0J135000D01*
G01*
X-50650000Y-110555000D01*
G75*
G02*
X-50515000Y-110420000I135000J0D01*
G01*
G37*
G04 #@! TD*
G04 #@! TO.C,R16*
G36*
G01*
X-50080000Y-105315000D02*
X-50080000Y-105685000D01*
G75*
G02*
X-50215000Y-105820000I-135000J0D01*
G01*
X-50485000Y-105820000D01*
G75*
G02*
X-50620000Y-105685000I0J135000D01*
G01*
X-50620000Y-105315000D01*
G75*
G02*
X-50485000Y-105180000I135000J0D01*
G01*
X-50215000Y-105180000D01*
G75*
G02*
X-50080000Y-105315000I0J-135000D01*
G01*
G37*
G36*
G01*
X-49060000Y-105315000D02*
X-49060000Y-105685000D01*
G75*
G02*
X-49195000Y-105820000I-135000J0D01*
G01*
X-49465000Y-105820000D01*
G75*
G02*
X-49600000Y-105685000I0J135000D01*
G01*
X-49600000Y-105315000D01*
G75*
G02*
X-49465000Y-105180000I135000J0D01*
G01*
X-49195000Y-105180000D01*
G75*
G02*
X-49060000Y-105315000I0J-135000D01*
G01*
G37*
G04 #@! TD*
D28*
G04 #@! TO.C,J3*
X-57850000Y-94350000D03*
D29*
X-52770000Y-94350000D03*
G04 #@! TD*
G04 #@! TO.C,C17*
G36*
G01*
X-52910000Y-110580000D02*
X-52910000Y-110920000D01*
G75*
G02*
X-53050000Y-111060000I-140000J0D01*
G01*
X-53330000Y-111060000D01*
G75*
G02*
X-53470000Y-110920000I0J140000D01*
G01*
X-53470000Y-110580000D01*
G75*
G02*
X-53330000Y-110440000I140000J0D01*
G01*
X-53050000Y-110440000D01*
G75*
G02*
X-52910000Y-110580000I0J-140000D01*
G01*
G37*
G36*
G01*
X-51950000Y-110580000D02*
X-51950000Y-110920000D01*
G75*
G02*
X-52090000Y-111060000I-140000J0D01*
G01*
X-52370000Y-111060000D01*
G75*
G02*
X-52510000Y-110920000I0J140000D01*
G01*
X-52510000Y-110580000D01*
G75*
G02*
X-52370000Y-110440000I140000J0D01*
G01*
X-52090000Y-110440000D01*
G75*
G02*
X-51950000Y-110580000I0J-140000D01*
G01*
G37*
G04 #@! TD*
D30*
G04 #@! TO.C,U8*
X-57360000Y-102180000D03*
X-57360000Y-101230000D03*
X-57360000Y-100280000D03*
X-54860000Y-100280000D03*
X-54860000Y-101230000D03*
X-54860000Y-102180000D03*
G04 #@! TD*
D31*
G04 #@! TO.C,Q1*
X-51430000Y-101150000D03*
X-52410000Y-101150000D03*
D32*
X-52570000Y-100275000D03*
X-51920000Y-100275000D03*
X-51270000Y-100275000D03*
X-51270000Y-102025000D03*
X-51920000Y-102025000D03*
X-52570000Y-102025000D03*
G04 #@! TD*
G04 #@! TO.C,R23*
G36*
G01*
X-59440000Y-101095000D02*
X-59440000Y-101465000D01*
G75*
G02*
X-59575000Y-101600000I-135000J0D01*
G01*
X-59845000Y-101600000D01*
G75*
G02*
X-59980000Y-101465000I0J135000D01*
G01*
X-59980000Y-101095000D01*
G75*
G02*
X-59845000Y-100960000I135000J0D01*
G01*
X-59575000Y-100960000D01*
G75*
G02*
X-59440000Y-101095000I0J-135000D01*
G01*
G37*
G36*
G01*
X-58420000Y-101095000D02*
X-58420000Y-101465000D01*
G75*
G02*
X-58555000Y-101600000I-135000J0D01*
G01*
X-58825000Y-101600000D01*
G75*
G02*
X-58960000Y-101465000I0J135000D01*
G01*
X-58960000Y-101095000D01*
G75*
G02*
X-58825000Y-100960000I135000J0D01*
G01*
X-58555000Y-100960000D01*
G75*
G02*
X-58420000Y-101095000I0J-135000D01*
G01*
G37*
G04 #@! TD*
G04 #@! TO.C,R20*
G36*
G01*
X-54860000Y-99085000D02*
X-54860000Y-98715000D01*
G75*
G02*
X-54725000Y-98580000I135000J0D01*
G01*
X-54455000Y-98580000D01*
G75*
G02*
X-54320000Y-98715000I0J-135000D01*
G01*
X-54320000Y-99085000D01*
G75*
G02*
X-54455000Y-99220000I-135000J0D01*
G01*
X-54725000Y-99220000D01*
G75*
G02*
X-54860000Y-99085000I0J135000D01*
G01*
G37*
G36*
G01*
X-55880000Y-99085000D02*
X-55880000Y-98715000D01*
G75*
G02*
X-55745000Y-98580000I135000J0D01*
G01*
X-55475000Y-98580000D01*
G75*
G02*
X-55340000Y-98715000I0J-135000D01*
G01*
X-55340000Y-99085000D01*
G75*
G02*
X-55475000Y-99220000I-135000J0D01*
G01*
X-55745000Y-99220000D01*
G75*
G02*
X-55880000Y-99085000I0J135000D01*
G01*
G37*
G04 #@! TD*
G04 #@! TO.C,C24*
G36*
G01*
X-58980000Y-102440000D02*
X-58980000Y-102100000D01*
G75*
G02*
X-58840000Y-101960000I140000J0D01*
G01*
X-58560000Y-101960000D01*
G75*
G02*
X-58420000Y-102100000I0J-140000D01*
G01*
X-58420000Y-102440000D01*
G75*
G02*
X-58560000Y-102580000I-140000J0D01*
G01*
X-58840000Y-102580000D01*
G75*
G02*
X-58980000Y-102440000I0J140000D01*
G01*
G37*
G36*
G01*
X-59940000Y-102440000D02*
X-59940000Y-102100000D01*
G75*
G02*
X-59800000Y-101960000I140000J0D01*
G01*
X-59520000Y-101960000D01*
G75*
G02*
X-59380000Y-102100000I0J-140000D01*
G01*
X-59380000Y-102440000D01*
G75*
G02*
X-59520000Y-102580000I-140000J0D01*
G01*
X-59800000Y-102580000D01*
G75*
G02*
X-59940000Y-102440000I0J140000D01*
G01*
G37*
G04 #@! TD*
D33*
G04 #@! TO.C,U7*
X-66330000Y-107130000D03*
D34*
X-64880000Y-106180000D03*
X-64880000Y-107130000D03*
X-64880000Y-108080000D03*
X-67780000Y-108080000D03*
X-67780000Y-107130000D03*
X-67780000Y-106180000D03*
G04 #@! TD*
G04 #@! TO.C,R22*
G36*
G01*
X-62960000Y-112625000D02*
X-62960000Y-112255000D01*
G75*
G02*
X-62825000Y-112120000I135000J0D01*
G01*
X-62555000Y-112120000D01*
G75*
G02*
X-62420000Y-112255000I0J-135000D01*
G01*
X-62420000Y-112625000D01*
G75*
G02*
X-62555000Y-112760000I-135000J0D01*
G01*
X-62825000Y-112760000D01*
G75*
G02*
X-62960000Y-112625000I0J135000D01*
G01*
G37*
G36*
G01*
X-63980000Y-112625000D02*
X-63980000Y-112255000D01*
G75*
G02*
X-63845000Y-112120000I135000J0D01*
G01*
X-63575000Y-112120000D01*
G75*
G02*
X-63440000Y-112255000I0J-135000D01*
G01*
X-63440000Y-112625000D01*
G75*
G02*
X-63575000Y-112760000I-135000J0D01*
G01*
X-63845000Y-112760000D01*
G75*
G02*
X-63980000Y-112625000I0J135000D01*
G01*
G37*
G04 #@! TD*
G04 #@! TO.C,R21*
G36*
G01*
X-63440000Y-111265000D02*
X-63440000Y-111635000D01*
G75*
G02*
X-63575000Y-111770000I-135000J0D01*
G01*
X-63845000Y-111770000D01*
G75*
G02*
X-63980000Y-111635000I0J135000D01*
G01*
X-63980000Y-111265000D01*
G75*
G02*
X-63845000Y-111130000I135000J0D01*
G01*
X-63575000Y-111130000D01*
G75*
G02*
X-63440000Y-111265000I0J-135000D01*
G01*
G37*
G36*
G01*
X-62420000Y-111265000D02*
X-62420000Y-111635000D01*
G75*
G02*
X-62555000Y-111770000I-135000J0D01*
G01*
X-62825000Y-111770000D01*
G75*
G02*
X-62960000Y-111635000I0J135000D01*
G01*
X-62960000Y-111265000D01*
G75*
G02*
X-62825000Y-111130000I135000J0D01*
G01*
X-62555000Y-111130000D01*
G75*
G02*
X-62420000Y-111265000I0J-135000D01*
G01*
G37*
G04 #@! TD*
G04 #@! TO.C,R19*
G36*
G01*
X-65650000Y-109305000D02*
X-65650000Y-109675000D01*
G75*
G02*
X-65785000Y-109810000I-135000J0D01*
G01*
X-66055000Y-109810000D01*
G75*
G02*
X-66190000Y-109675000I0J135000D01*
G01*
X-66190000Y-109305000D01*
G75*
G02*
X-66055000Y-109170000I135000J0D01*
G01*
X-65785000Y-109170000D01*
G75*
G02*
X-65650000Y-109305000I0J-135000D01*
G01*
G37*
G36*
G01*
X-64630000Y-109305000D02*
X-64630000Y-109675000D01*
G75*
G02*
X-64765000Y-109810000I-135000J0D01*
G01*
X-65035000Y-109810000D01*
G75*
G02*
X-65170000Y-109675000I0J135000D01*
G01*
X-65170000Y-109305000D01*
G75*
G02*
X-65035000Y-109170000I135000J0D01*
G01*
X-64765000Y-109170000D01*
G75*
G02*
X-64630000Y-109305000I0J-135000D01*
G01*
G37*
G04 #@! TD*
G04 #@! TO.C,R18*
G36*
G01*
X-65660000Y-110305000D02*
X-65660000Y-110675000D01*
G75*
G02*
X-65795000Y-110810000I-135000J0D01*
G01*
X-66065000Y-110810000D01*
G75*
G02*
X-66200000Y-110675000I0J135000D01*
G01*
X-66200000Y-110305000D01*
G75*
G02*
X-66065000Y-110170000I135000J0D01*
G01*
X-65795000Y-110170000D01*
G75*
G02*
X-65660000Y-110305000I0J-135000D01*
G01*
G37*
G36*
G01*
X-64640000Y-110305000D02*
X-64640000Y-110675000D01*
G75*
G02*
X-64775000Y-110810000I-135000J0D01*
G01*
X-65045000Y-110810000D01*
G75*
G02*
X-65180000Y-110675000I0J135000D01*
G01*
X-65180000Y-110305000D01*
G75*
G02*
X-65045000Y-110170000I135000J0D01*
G01*
X-64775000Y-110170000D01*
G75*
G02*
X-64640000Y-110305000I0J-135000D01*
G01*
G37*
G04 #@! TD*
G04 #@! TO.C,R15*
G36*
G01*
X-68530000Y-109295000D02*
X-68530000Y-109665000D01*
G75*
G02*
X-68665000Y-109800000I-135000J0D01*
G01*
X-68935000Y-109800000D01*
G75*
G02*
X-69070000Y-109665000I0J135000D01*
G01*
X-69070000Y-109295000D01*
G75*
G02*
X-68935000Y-109160000I135000J0D01*
G01*
X-68665000Y-109160000D01*
G75*
G02*
X-68530000Y-109295000I0J-135000D01*
G01*
G37*
G36*
G01*
X-67510000Y-109295000D02*
X-67510000Y-109665000D01*
G75*
G02*
X-67645000Y-109800000I-135000J0D01*
G01*
X-67915000Y-109800000D01*
G75*
G02*
X-68050000Y-109665000I0J135000D01*
G01*
X-68050000Y-109295000D01*
G75*
G02*
X-67915000Y-109160000I135000J0D01*
G01*
X-67645000Y-109160000D01*
G75*
G02*
X-67510000Y-109295000I0J-135000D01*
G01*
G37*
G04 #@! TD*
G04 #@! TO.C,L1*
G36*
G01*
X-66765000Y-104765000D02*
X-66765000Y-102615000D01*
G75*
G02*
X-66515000Y-102365000I250000J0D01*
G01*
X-65765000Y-102365000D01*
G75*
G02*
X-65515000Y-102615000I0J-250000D01*
G01*
X-65515000Y-104765000D01*
G75*
G02*
X-65765000Y-105015000I-250000J0D01*
G01*
X-66515000Y-105015000D01*
G75*
G02*
X-66765000Y-104765000I0J250000D01*
G01*
G37*
G36*
G01*
X-69565000Y-104765000D02*
X-69565000Y-102615000D01*
G75*
G02*
X-69315000Y-102365000I250000J0D01*
G01*
X-68565000Y-102365000D01*
G75*
G02*
X-68315000Y-102615000I0J-250000D01*
G01*
X-68315000Y-104765000D01*
G75*
G02*
X-68565000Y-105015000I-250000J0D01*
G01*
X-69315000Y-105015000D01*
G75*
G02*
X-69565000Y-104765000I0J250000D01*
G01*
G37*
G04 #@! TD*
D35*
G04 #@! TO.C,D2*
X-61620000Y-114920000D03*
X-63720000Y-114920000D03*
G04 #@! TD*
D36*
G04 #@! TO.C,D1*
X-64480000Y-104110000D03*
X-61180000Y-104110000D03*
G04 #@! TD*
G04 #@! TO.C,C25*
G36*
G01*
X-63390000Y-105650000D02*
X-63390000Y-105990000D01*
G75*
G02*
X-63530000Y-106130000I-140000J0D01*
G01*
X-63810000Y-106130000D01*
G75*
G02*
X-63950000Y-105990000I0J140000D01*
G01*
X-63950000Y-105650000D01*
G75*
G02*
X-63810000Y-105510000I140000J0D01*
G01*
X-63530000Y-105510000D01*
G75*
G02*
X-63390000Y-105650000I0J-140000D01*
G01*
G37*
G36*
G01*
X-62430000Y-105650000D02*
X-62430000Y-105990000D01*
G75*
G02*
X-62570000Y-106130000I-140000J0D01*
G01*
X-62850000Y-106130000D01*
G75*
G02*
X-62990000Y-105990000I0J140000D01*
G01*
X-62990000Y-105650000D01*
G75*
G02*
X-62850000Y-105510000I140000J0D01*
G01*
X-62570000Y-105510000D01*
G75*
G02*
X-62430000Y-105650000I0J-140000D01*
G01*
G37*
G04 #@! TD*
G04 #@! TO.C,C23*
G36*
G01*
X-63390000Y-109570000D02*
X-63390000Y-109910000D01*
G75*
G02*
X-63530000Y-110050000I-140000J0D01*
G01*
X-63810000Y-110050000D01*
G75*
G02*
X-63950000Y-109910000I0J140000D01*
G01*
X-63950000Y-109570000D01*
G75*
G02*
X-63810000Y-109430000I140000J0D01*
G01*
X-63530000Y-109430000D01*
G75*
G02*
X-63390000Y-109570000I0J-140000D01*
G01*
G37*
G36*
G01*
X-62430000Y-109570000D02*
X-62430000Y-109910000D01*
G75*
G02*
X-62570000Y-110050000I-140000J0D01*
G01*
X-62850000Y-110050000D01*
G75*
G02*
X-62990000Y-109910000I0J140000D01*
G01*
X-62990000Y-109570000D01*
G75*
G02*
X-62850000Y-109430000I140000J0D01*
G01*
X-62570000Y-109430000D01*
G75*
G02*
X-62430000Y-109570000I0J-140000D01*
G01*
G37*
G04 #@! TD*
G04 #@! TO.C,C22*
G36*
G01*
X-63390000Y-108580000D02*
X-63390000Y-108920000D01*
G75*
G02*
X-63530000Y-109060000I-140000J0D01*
G01*
X-63810000Y-109060000D01*
G75*
G02*
X-63950000Y-108920000I0J140000D01*
G01*
X-63950000Y-108580000D01*
G75*
G02*
X-63810000Y-108440000I140000J0D01*
G01*
X-63530000Y-108440000D01*
G75*
G02*
X-63390000Y-108580000I0J-140000D01*
G01*
G37*
G36*
G01*
X-62430000Y-108580000D02*
X-62430000Y-108920000D01*
G75*
G02*
X-62570000Y-109060000I-140000J0D01*
G01*
X-62850000Y-109060000D01*
G75*
G02*
X-62990000Y-108920000I0J140000D01*
G01*
X-62990000Y-108580000D01*
G75*
G02*
X-62850000Y-108440000I140000J0D01*
G01*
X-62570000Y-108440000D01*
G75*
G02*
X-62430000Y-108580000I0J-140000D01*
G01*
G37*
G04 #@! TD*
G04 #@! TO.C,C21*
G36*
G01*
X-63030000Y-113600000D02*
X-63030000Y-113260000D01*
G75*
G02*
X-62890000Y-113120000I140000J0D01*
G01*
X-62610000Y-113120000D01*
G75*
G02*
X-62470000Y-113260000I0J-140000D01*
G01*
X-62470000Y-113600000D01*
G75*
G02*
X-62610000Y-113740000I-140000J0D01*
G01*
X-62890000Y-113740000D01*
G75*
G02*
X-63030000Y-113600000I0J140000D01*
G01*
G37*
G36*
G01*
X-63990000Y-113600000D02*
X-63990000Y-113260000D01*
G75*
G02*
X-63850000Y-113120000I140000J0D01*
G01*
X-63570000Y-113120000D01*
G75*
G02*
X-63430000Y-113260000I0J-140000D01*
G01*
X-63430000Y-113600000D01*
G75*
G02*
X-63570000Y-113740000I-140000J0D01*
G01*
X-63850000Y-113740000D01*
G75*
G02*
X-63990000Y-113600000I0J140000D01*
G01*
G37*
G04 #@! TD*
G04 #@! TO.C,C20*
G36*
G01*
X-63390000Y-107600000D02*
X-63390000Y-107940000D01*
G75*
G02*
X-63530000Y-108080000I-140000J0D01*
G01*
X-63810000Y-108080000D01*
G75*
G02*
X-63950000Y-107940000I0J140000D01*
G01*
X-63950000Y-107600000D01*
G75*
G02*
X-63810000Y-107460000I140000J0D01*
G01*
X-63530000Y-107460000D01*
G75*
G02*
X-63390000Y-107600000I0J-140000D01*
G01*
G37*
G36*
G01*
X-62430000Y-107600000D02*
X-62430000Y-107940000D01*
G75*
G02*
X-62570000Y-108080000I-140000J0D01*
G01*
X-62850000Y-108080000D01*
G75*
G02*
X-62990000Y-107940000I0J140000D01*
G01*
X-62990000Y-107600000D01*
G75*
G02*
X-62850000Y-107460000I140000J0D01*
G01*
X-62570000Y-107460000D01*
G75*
G02*
X-62430000Y-107600000I0J-140000D01*
G01*
G37*
G04 #@! TD*
G04 #@! TO.C,C19*
G36*
G01*
X-63390000Y-106630000D02*
X-63390000Y-106970000D01*
G75*
G02*
X-63530000Y-107110000I-140000J0D01*
G01*
X-63810000Y-107110000D01*
G75*
G02*
X-63950000Y-106970000I0J140000D01*
G01*
X-63950000Y-106630000D01*
G75*
G02*
X-63810000Y-106490000I140000J0D01*
G01*
X-63530000Y-106490000D01*
G75*
G02*
X-63390000Y-106630000I0J-140000D01*
G01*
G37*
G36*
G01*
X-62430000Y-106630000D02*
X-62430000Y-106970000D01*
G75*
G02*
X-62570000Y-107110000I-140000J0D01*
G01*
X-62850000Y-107110000D01*
G75*
G02*
X-62990000Y-106970000I0J140000D01*
G01*
X-62990000Y-106630000D01*
G75*
G02*
X-62850000Y-106490000I140000J0D01*
G01*
X-62570000Y-106490000D01*
G75*
G02*
X-62430000Y-106630000I0J-140000D01*
G01*
G37*
G04 #@! TD*
G04 #@! TO.C,C18*
G36*
G01*
X-65620000Y-111310000D02*
X-65620000Y-111650000D01*
G75*
G02*
X-65760000Y-111790000I-140000J0D01*
G01*
X-66040000Y-111790000D01*
G75*
G02*
X-66180000Y-111650000I0J140000D01*
G01*
X-66180000Y-111310000D01*
G75*
G02*
X-66040000Y-111170000I140000J0D01*
G01*
X-65760000Y-111170000D01*
G75*
G02*
X-65620000Y-111310000I0J-140000D01*
G01*
G37*
G36*
G01*
X-64660000Y-111310000D02*
X-64660000Y-111650000D01*
G75*
G02*
X-64800000Y-111790000I-140000J0D01*
G01*
X-65080000Y-111790000D01*
G75*
G02*
X-65220000Y-111650000I0J140000D01*
G01*
X-65220000Y-111310000D01*
G75*
G02*
X-65080000Y-111170000I140000J0D01*
G01*
X-64800000Y-111170000D01*
G75*
G02*
X-64660000Y-111310000I0J-140000D01*
G01*
G37*
G04 #@! TD*
G04 #@! TO.C,C16*
G36*
G01*
X-68810000Y-106440000D02*
X-69150000Y-106440000D01*
G75*
G02*
X-69290000Y-106300000I0J140000D01*
G01*
X-69290000Y-106020000D01*
G75*
G02*
X-69150000Y-105880000I140000J0D01*
G01*
X-68810000Y-105880000D01*
G75*
G02*
X-68670000Y-106020000I0J-140000D01*
G01*
X-68670000Y-106300000D01*
G75*
G02*
X-68810000Y-106440000I-140000J0D01*
G01*
G37*
G36*
G01*
X-68810000Y-107400000D02*
X-69150000Y-107400000D01*
G75*
G02*
X-69290000Y-107260000I0J140000D01*
G01*
X-69290000Y-106980000D01*
G75*
G02*
X-69150000Y-106840000I140000J0D01*
G01*
X-68810000Y-106840000D01*
G75*
G02*
X-68670000Y-106980000I0J-140000D01*
G01*
X-68670000Y-107260000D01*
G75*
G02*
X-68810000Y-107400000I-140000J0D01*
G01*
G37*
G04 #@! TD*
G04 #@! TO.C,C15*
G36*
G01*
X-69790000Y-106440000D02*
X-70130000Y-106440000D01*
G75*
G02*
X-70270000Y-106300000I0J140000D01*
G01*
X-70270000Y-106020000D01*
G75*
G02*
X-70130000Y-105880000I140000J0D01*
G01*
X-69790000Y-105880000D01*
G75*
G02*
X-69650000Y-106020000I0J-140000D01*
G01*
X-69650000Y-106300000D01*
G75*
G02*
X-69790000Y-106440000I-140000J0D01*
G01*
G37*
G36*
G01*
X-69790000Y-107400000D02*
X-70130000Y-107400000D01*
G75*
G02*
X-70270000Y-107260000I0J140000D01*
G01*
X-70270000Y-106980000D01*
G75*
G02*
X-70130000Y-106840000I140000J0D01*
G01*
X-69790000Y-106840000D01*
G75*
G02*
X-69650000Y-106980000I0J-140000D01*
G01*
X-69650000Y-107260000D01*
G75*
G02*
X-69790000Y-107400000I-140000J0D01*
G01*
G37*
G04 #@! TD*
G04 #@! TO.C,R7*
G36*
G01*
X-65005000Y-125930000D02*
X-65375000Y-125930000D01*
G75*
G02*
X-65510000Y-125795000I0J135000D01*
G01*
X-65510000Y-125525000D01*
G75*
G02*
X-65375000Y-125390000I135000J0D01*
G01*
X-65005000Y-125390000D01*
G75*
G02*
X-64870000Y-125525000I0J-135000D01*
G01*
X-64870000Y-125795000D01*
G75*
G02*
X-65005000Y-125930000I-135000J0D01*
G01*
G37*
G36*
G01*
X-65005000Y-126950000D02*
X-65375000Y-126950000D01*
G75*
G02*
X-65510000Y-126815000I0J135000D01*
G01*
X-65510000Y-126545000D01*
G75*
G02*
X-65375000Y-126410000I135000J0D01*
G01*
X-65005000Y-126410000D01*
G75*
G02*
X-64870000Y-126545000I0J-135000D01*
G01*
X-64870000Y-126815000D01*
G75*
G02*
X-65005000Y-126950000I-135000J0D01*
G01*
G37*
G04 #@! TD*
G04 #@! TO.C,C10*
G36*
G01*
X-57740000Y-120720000D02*
X-57400000Y-120720000D01*
G75*
G02*
X-57260000Y-120860000I0J-140000D01*
G01*
X-57260000Y-121140000D01*
G75*
G02*
X-57400000Y-121280000I-140000J0D01*
G01*
X-57740000Y-121280000D01*
G75*
G02*
X-57880000Y-121140000I0J140000D01*
G01*
X-57880000Y-120860000D01*
G75*
G02*
X-57740000Y-120720000I140000J0D01*
G01*
G37*
G36*
G01*
X-57740000Y-119760000D02*
X-57400000Y-119760000D01*
G75*
G02*
X-57260000Y-119900000I0J-140000D01*
G01*
X-57260000Y-120180000D01*
G75*
G02*
X-57400000Y-120320000I-140000J0D01*
G01*
X-57740000Y-120320000D01*
G75*
G02*
X-57880000Y-120180000I0J140000D01*
G01*
X-57880000Y-119900000D01*
G75*
G02*
X-57740000Y-119760000I140000J0D01*
G01*
G37*
G04 #@! TD*
D37*
G04 #@! TO.C,U2*
X-71550000Y-111750000D03*
X-72350000Y-111750000D03*
X-73150000Y-111750000D03*
X-73950000Y-111750000D03*
X-73950000Y-114150000D03*
X-73150000Y-114150000D03*
X-72350000Y-114150000D03*
X-71550000Y-114150000D03*
G04 #@! TD*
G04 #@! TO.C,R6*
G36*
G01*
X-73550000Y-116205000D02*
X-73550000Y-115835000D01*
G75*
G02*
X-73415000Y-115700000I135000J0D01*
G01*
X-73145000Y-115700000D01*
G75*
G02*
X-73010000Y-115835000I0J-135000D01*
G01*
X-73010000Y-116205000D01*
G75*
G02*
X-73145000Y-116340000I-135000J0D01*
G01*
X-73415000Y-116340000D01*
G75*
G02*
X-73550000Y-116205000I0J135000D01*
G01*
G37*
G36*
G01*
X-74570000Y-116205000D02*
X-74570000Y-115835000D01*
G75*
G02*
X-74435000Y-115700000I135000J0D01*
G01*
X-74165000Y-115700000D01*
G75*
G02*
X-74030000Y-115835000I0J-135000D01*
G01*
X-74030000Y-116205000D01*
G75*
G02*
X-74165000Y-116340000I-135000J0D01*
G01*
X-74435000Y-116340000D01*
G75*
G02*
X-74570000Y-116205000I0J135000D01*
G01*
G37*
G04 #@! TD*
G04 #@! TO.C,R5*
G36*
G01*
X-75540000Y-116215000D02*
X-75540000Y-115845000D01*
G75*
G02*
X-75405000Y-115710000I135000J0D01*
G01*
X-75135000Y-115710000D01*
G75*
G02*
X-75000000Y-115845000I0J-135000D01*
G01*
X-75000000Y-116215000D01*
G75*
G02*
X-75135000Y-116350000I-135000J0D01*
G01*
X-75405000Y-116350000D01*
G75*
G02*
X-75540000Y-116215000I0J135000D01*
G01*
G37*
G36*
G01*
X-76560000Y-116215000D02*
X-76560000Y-115845000D01*
G75*
G02*
X-76425000Y-115710000I135000J0D01*
G01*
X-76155000Y-115710000D01*
G75*
G02*
X-76020000Y-115845000I0J-135000D01*
G01*
X-76020000Y-116215000D01*
G75*
G02*
X-76155000Y-116350000I-135000J0D01*
G01*
X-76425000Y-116350000D01*
G75*
G02*
X-76560000Y-116215000I0J135000D01*
G01*
G37*
G04 #@! TD*
G04 #@! TO.C,R4*
G36*
G01*
X-72080000Y-115825000D02*
X-72080000Y-116195000D01*
G75*
G02*
X-72215000Y-116330000I-135000J0D01*
G01*
X-72485000Y-116330000D01*
G75*
G02*
X-72620000Y-116195000I0J135000D01*
G01*
X-72620000Y-115825000D01*
G75*
G02*
X-72485000Y-115690000I135000J0D01*
G01*
X-72215000Y-115690000D01*
G75*
G02*
X-72080000Y-115825000I0J-135000D01*
G01*
G37*
G36*
G01*
X-71060000Y-115825000D02*
X-71060000Y-116195000D01*
G75*
G02*
X-71195000Y-116330000I-135000J0D01*
G01*
X-71465000Y-116330000D01*
G75*
G02*
X-71600000Y-116195000I0J135000D01*
G01*
X-71600000Y-115825000D01*
G75*
G02*
X-71465000Y-115690000I135000J0D01*
G01*
X-71195000Y-115690000D01*
G75*
G02*
X-71060000Y-115825000I0J-135000D01*
G01*
G37*
G04 #@! TD*
G04 #@! TO.C,R3*
G36*
G01*
X-75985000Y-112510000D02*
X-75615000Y-112510000D01*
G75*
G02*
X-75480000Y-112645000I0J-135000D01*
G01*
X-75480000Y-112915000D01*
G75*
G02*
X-75615000Y-113050000I-135000J0D01*
G01*
X-75985000Y-113050000D01*
G75*
G02*
X-76120000Y-112915000I0J135000D01*
G01*
X-76120000Y-112645000D01*
G75*
G02*
X-75985000Y-112510000I135000J0D01*
G01*
G37*
G36*
G01*
X-75985000Y-111490000D02*
X-75615000Y-111490000D01*
G75*
G02*
X-75480000Y-111625000I0J-135000D01*
G01*
X-75480000Y-111895000D01*
G75*
G02*
X-75615000Y-112030000I-135000J0D01*
G01*
X-75985000Y-112030000D01*
G75*
G02*
X-76120000Y-111895000I0J135000D01*
G01*
X-76120000Y-111625000D01*
G75*
G02*
X-75985000Y-111490000I135000J0D01*
G01*
G37*
G04 #@! TD*
G04 #@! TO.C,C9*
G36*
G01*
X-72060000Y-109720000D02*
X-72060000Y-110060000D01*
G75*
G02*
X-72200000Y-110200000I-140000J0D01*
G01*
X-72480000Y-110200000D01*
G75*
G02*
X-72620000Y-110060000I0J140000D01*
G01*
X-72620000Y-109720000D01*
G75*
G02*
X-72480000Y-109580000I140000J0D01*
G01*
X-72200000Y-109580000D01*
G75*
G02*
X-72060000Y-109720000I0J-140000D01*
G01*
G37*
G36*
G01*
X-71100000Y-109720000D02*
X-71100000Y-110060000D01*
G75*
G02*
X-71240000Y-110200000I-140000J0D01*
G01*
X-71520000Y-110200000D01*
G75*
G02*
X-71660000Y-110060000I0J140000D01*
G01*
X-71660000Y-109720000D01*
G75*
G02*
X-71520000Y-109580000I140000J0D01*
G01*
X-71240000Y-109580000D01*
G75*
G02*
X-71100000Y-109720000I0J-140000D01*
G01*
G37*
G04 #@! TD*
G04 #@! TO.C,C8*
G36*
G01*
X-73130000Y-109250000D02*
X-73470000Y-109250000D01*
G75*
G02*
X-73610000Y-109110000I0J140000D01*
G01*
X-73610000Y-108830000D01*
G75*
G02*
X-73470000Y-108690000I140000J0D01*
G01*
X-73130000Y-108690000D01*
G75*
G02*
X-72990000Y-108830000I0J-140000D01*
G01*
X-72990000Y-109110000D01*
G75*
G02*
X-73130000Y-109250000I-140000J0D01*
G01*
G37*
G36*
G01*
X-73130000Y-110210000D02*
X-73470000Y-110210000D01*
G75*
G02*
X-73610000Y-110070000I0J140000D01*
G01*
X-73610000Y-109790000D01*
G75*
G02*
X-73470000Y-109650000I140000J0D01*
G01*
X-73130000Y-109650000D01*
G75*
G02*
X-72990000Y-109790000I0J-140000D01*
G01*
X-72990000Y-110070000D01*
G75*
G02*
X-73130000Y-110210000I-140000J0D01*
G01*
G37*
G04 #@! TD*
D38*
G04 #@! TO.C,Y1*
X-81390000Y-122420000D03*
X-81390000Y-121020000D03*
G04 #@! TD*
G04 #@! TO.C,R2*
G36*
G01*
X-81130000Y-123775000D02*
X-81130000Y-123405000D01*
G75*
G02*
X-80995000Y-123270000I135000J0D01*
G01*
X-80725000Y-123270000D01*
G75*
G02*
X-80590000Y-123405000I0J-135000D01*
G01*
X-80590000Y-123775000D01*
G75*
G02*
X-80725000Y-123910000I-135000J0D01*
G01*
X-80995000Y-123910000D01*
G75*
G02*
X-81130000Y-123775000I0J135000D01*
G01*
G37*
G36*
G01*
X-82150000Y-123775000D02*
X-82150000Y-123405000D01*
G75*
G02*
X-82015000Y-123270000I135000J0D01*
G01*
X-81745000Y-123270000D01*
G75*
G02*
X-81610000Y-123405000I0J-135000D01*
G01*
X-81610000Y-123775000D01*
G75*
G02*
X-81745000Y-123910000I-135000J0D01*
G01*
X-82015000Y-123910000D01*
G75*
G02*
X-82150000Y-123775000I0J135000D01*
G01*
G37*
G04 #@! TD*
G04 #@! TO.C,C6*
G36*
G01*
X-80750000Y-125440000D02*
X-81090000Y-125440000D01*
G75*
G02*
X-81230000Y-125300000I0J140000D01*
G01*
X-81230000Y-125020000D01*
G75*
G02*
X-81090000Y-124880000I140000J0D01*
G01*
X-80750000Y-124880000D01*
G75*
G02*
X-80610000Y-125020000I0J-140000D01*
G01*
X-80610000Y-125300000D01*
G75*
G02*
X-80750000Y-125440000I-140000J0D01*
G01*
G37*
G36*
G01*
X-80750000Y-126400000D02*
X-81090000Y-126400000D01*
G75*
G02*
X-81230000Y-126260000I0J140000D01*
G01*
X-81230000Y-125980000D01*
G75*
G02*
X-81090000Y-125840000I140000J0D01*
G01*
X-80750000Y-125840000D01*
G75*
G02*
X-80610000Y-125980000I0J-140000D01*
G01*
X-80610000Y-126260000D01*
G75*
G02*
X-80750000Y-126400000I-140000J0D01*
G01*
G37*
G04 #@! TD*
G04 #@! TO.C,C5*
G36*
G01*
X-78180000Y-117860000D02*
X-78520000Y-117860000D01*
G75*
G02*
X-78660000Y-117720000I0J140000D01*
G01*
X-78660000Y-117440000D01*
G75*
G02*
X-78520000Y-117300000I140000J0D01*
G01*
X-78180000Y-117300000D01*
G75*
G02*
X-78040000Y-117440000I0J-140000D01*
G01*
X-78040000Y-117720000D01*
G75*
G02*
X-78180000Y-117860000I-140000J0D01*
G01*
G37*
G36*
G01*
X-78180000Y-118820000D02*
X-78520000Y-118820000D01*
G75*
G02*
X-78660000Y-118680000I0J140000D01*
G01*
X-78660000Y-118400000D01*
G75*
G02*
X-78520000Y-118260000I140000J0D01*
G01*
X-78180000Y-118260000D01*
G75*
G02*
X-78040000Y-118400000I0J-140000D01*
G01*
X-78040000Y-118680000D01*
G75*
G02*
X-78180000Y-118820000I-140000J0D01*
G01*
G37*
G04 #@! TD*
G04 #@! TO.C,C4*
G36*
G01*
X-79210000Y-118450000D02*
X-79550000Y-118450000D01*
G75*
G02*
X-79690000Y-118310000I0J140000D01*
G01*
X-79690000Y-118030000D01*
G75*
G02*
X-79550000Y-117890000I140000J0D01*
G01*
X-79210000Y-117890000D01*
G75*
G02*
X-79070000Y-118030000I0J-140000D01*
G01*
X-79070000Y-118310000D01*
G75*
G02*
X-79210000Y-118450000I-140000J0D01*
G01*
G37*
G36*
G01*
X-79210000Y-119410000D02*
X-79550000Y-119410000D01*
G75*
G02*
X-79690000Y-119270000I0J140000D01*
G01*
X-79690000Y-118990000D01*
G75*
G02*
X-79550000Y-118850000I140000J0D01*
G01*
X-79210000Y-118850000D01*
G75*
G02*
X-79070000Y-118990000I0J-140000D01*
G01*
X-79070000Y-119270000D01*
G75*
G02*
X-79210000Y-119410000I-140000J0D01*
G01*
G37*
G04 #@! TD*
G04 #@! TO.C,C3*
G36*
G01*
X-70250000Y-131340000D02*
X-70250000Y-131680000D01*
G75*
G02*
X-70390000Y-131820000I-140000J0D01*
G01*
X-70670000Y-131820000D01*
G75*
G02*
X-70810000Y-131680000I0J140000D01*
G01*
X-70810000Y-131340000D01*
G75*
G02*
X-70670000Y-131200000I140000J0D01*
G01*
X-70390000Y-131200000D01*
G75*
G02*
X-70250000Y-131340000I0J-140000D01*
G01*
G37*
G36*
G01*
X-69290000Y-131340000D02*
X-69290000Y-131680000D01*
G75*
G02*
X-69430000Y-131820000I-140000J0D01*
G01*
X-69710000Y-131820000D01*
G75*
G02*
X-69850000Y-131680000I0J140000D01*
G01*
X-69850000Y-131340000D01*
G75*
G02*
X-69710000Y-131200000I140000J0D01*
G01*
X-69430000Y-131200000D01*
G75*
G02*
X-69290000Y-131340000I0J-140000D01*
G01*
G37*
G04 #@! TD*
G04 #@! TO.C,C2*
G36*
G01*
X-83060000Y-122590000D02*
X-83060000Y-122250000D01*
G75*
G02*
X-82920000Y-122110000I140000J0D01*
G01*
X-82640000Y-122110000D01*
G75*
G02*
X-82500000Y-122250000I0J-140000D01*
G01*
X-82500000Y-122590000D01*
G75*
G02*
X-82640000Y-122730000I-140000J0D01*
G01*
X-82920000Y-122730000D01*
G75*
G02*
X-83060000Y-122590000I0J140000D01*
G01*
G37*
G36*
G01*
X-84020000Y-122590000D02*
X-84020000Y-122250000D01*
G75*
G02*
X-83880000Y-122110000I140000J0D01*
G01*
X-83600000Y-122110000D01*
G75*
G02*
X-83460000Y-122250000I0J-140000D01*
G01*
X-83460000Y-122590000D01*
G75*
G02*
X-83600000Y-122730000I-140000J0D01*
G01*
X-83880000Y-122730000D01*
G75*
G02*
X-84020000Y-122590000I0J140000D01*
G01*
G37*
G04 #@! TD*
G04 #@! TO.C,C1*
G36*
G01*
X-83060000Y-121190000D02*
X-83060000Y-120850000D01*
G75*
G02*
X-82920000Y-120710000I140000J0D01*
G01*
X-82640000Y-120710000D01*
G75*
G02*
X-82500000Y-120850000I0J-140000D01*
G01*
X-82500000Y-121190000D01*
G75*
G02*
X-82640000Y-121330000I-140000J0D01*
G01*
X-82920000Y-121330000D01*
G75*
G02*
X-83060000Y-121190000I0J140000D01*
G01*
G37*
G36*
G01*
X-84020000Y-121190000D02*
X-84020000Y-120850000D01*
G75*
G02*
X-83880000Y-120710000I140000J0D01*
G01*
X-83600000Y-120710000D01*
G75*
G02*
X-83460000Y-120850000I0J-140000D01*
G01*
X-83460000Y-121190000D01*
G75*
G02*
X-83600000Y-121330000I-140000J0D01*
G01*
X-83880000Y-121330000D01*
G75*
G02*
X-84020000Y-121190000I0J140000D01*
G01*
G37*
G04 #@! TD*
D19*
G04 #@! TO.C,J4*
X-72090000Y-148620000D03*
X-72090000Y-151160000D03*
X-74630000Y-148620000D03*
X-74630000Y-151160000D03*
X-77170000Y-148620000D03*
X-77170000Y-151160000D03*
X-79710000Y-148620000D03*
D20*
X-79710000Y-151160000D03*
G04 #@! TD*
G04 #@! TO.C,R11*
G36*
G01*
X-70775000Y-141750000D02*
X-70405000Y-141750000D01*
G75*
G02*
X-70270000Y-141885000I0J-135000D01*
G01*
X-70270000Y-142155000D01*
G75*
G02*
X-70405000Y-142290000I-135000J0D01*
G01*
X-70775000Y-142290000D01*
G75*
G02*
X-70910000Y-142155000I0J135000D01*
G01*
X-70910000Y-141885000D01*
G75*
G02*
X-70775000Y-141750000I135000J0D01*
G01*
G37*
G36*
G01*
X-70775000Y-140730000D02*
X-70405000Y-140730000D01*
G75*
G02*
X-70270000Y-140865000I0J-135000D01*
G01*
X-70270000Y-141135000D01*
G75*
G02*
X-70405000Y-141270000I-135000J0D01*
G01*
X-70775000Y-141270000D01*
G75*
G02*
X-70910000Y-141135000I0J135000D01*
G01*
X-70910000Y-140865000D01*
G75*
G02*
X-70775000Y-140730000I135000J0D01*
G01*
G37*
G04 #@! TD*
G04 #@! TO.C,R10*
G36*
G01*
X-81115000Y-143050000D02*
X-80745000Y-143050000D01*
G75*
G02*
X-80610000Y-143185000I0J-135000D01*
G01*
X-80610000Y-143455000D01*
G75*
G02*
X-80745000Y-143590000I-135000J0D01*
G01*
X-81115000Y-143590000D01*
G75*
G02*
X-81250000Y-143455000I0J135000D01*
G01*
X-81250000Y-143185000D01*
G75*
G02*
X-81115000Y-143050000I135000J0D01*
G01*
G37*
G36*
G01*
X-81115000Y-142030000D02*
X-80745000Y-142030000D01*
G75*
G02*
X-80610000Y-142165000I0J-135000D01*
G01*
X-80610000Y-142435000D01*
G75*
G02*
X-80745000Y-142570000I-135000J0D01*
G01*
X-81115000Y-142570000D01*
G75*
G02*
X-81250000Y-142435000I0J135000D01*
G01*
X-81250000Y-142165000D01*
G75*
G02*
X-81115000Y-142030000I135000J0D01*
G01*
G37*
G04 #@! TD*
G04 #@! TO.C,R9*
G36*
G01*
X-71765000Y-135370000D02*
X-71395000Y-135370000D01*
G75*
G02*
X-71260000Y-135505000I0J-135000D01*
G01*
X-71260000Y-135775000D01*
G75*
G02*
X-71395000Y-135910000I-135000J0D01*
G01*
X-71765000Y-135910000D01*
G75*
G02*
X-71900000Y-135775000I0J135000D01*
G01*
X-71900000Y-135505000D01*
G75*
G02*
X-71765000Y-135370000I135000J0D01*
G01*
G37*
G36*
G01*
X-71765000Y-134350000D02*
X-71395000Y-134350000D01*
G75*
G02*
X-71260000Y-134485000I0J-135000D01*
G01*
X-71260000Y-134755000D01*
G75*
G02*
X-71395000Y-134890000I-135000J0D01*
G01*
X-71765000Y-134890000D01*
G75*
G02*
X-71900000Y-134755000I0J135000D01*
G01*
X-71900000Y-134485000D01*
G75*
G02*
X-71765000Y-134350000I135000J0D01*
G01*
G37*
G04 #@! TD*
G04 #@! TO.C,R8*
G36*
G01*
X-80355000Y-137480000D02*
X-79985000Y-137480000D01*
G75*
G02*
X-79850000Y-137615000I0J-135000D01*
G01*
X-79850000Y-137885000D01*
G75*
G02*
X-79985000Y-138020000I-135000J0D01*
G01*
X-80355000Y-138020000D01*
G75*
G02*
X-80490000Y-137885000I0J135000D01*
G01*
X-80490000Y-137615000D01*
G75*
G02*
X-80355000Y-137480000I135000J0D01*
G01*
G37*
G36*
G01*
X-80355000Y-136460000D02*
X-79985000Y-136460000D01*
G75*
G02*
X-79850000Y-136595000I0J-135000D01*
G01*
X-79850000Y-136865000D01*
G75*
G02*
X-79985000Y-137000000I-135000J0D01*
G01*
X-80355000Y-137000000D01*
G75*
G02*
X-80490000Y-136865000I0J135000D01*
G01*
X-80490000Y-136595000D01*
G75*
G02*
X-80355000Y-136460000I135000J0D01*
G01*
G37*
G04 #@! TD*
G04 #@! TO.C,C12*
G36*
G01*
X-70950000Y-139020000D02*
X-70950000Y-138680000D01*
G75*
G02*
X-70810000Y-138540000I140000J0D01*
G01*
X-70530000Y-138540000D01*
G75*
G02*
X-70390000Y-138680000I0J-140000D01*
G01*
X-70390000Y-139020000D01*
G75*
G02*
X-70530000Y-139160000I-140000J0D01*
G01*
X-70810000Y-139160000D01*
G75*
G02*
X-70950000Y-139020000I0J140000D01*
G01*
G37*
G36*
G01*
X-71910000Y-139020000D02*
X-71910000Y-138680000D01*
G75*
G02*
X-71770000Y-138540000I140000J0D01*
G01*
X-71490000Y-138540000D01*
G75*
G02*
X-71350000Y-138680000I0J-140000D01*
G01*
X-71350000Y-139020000D01*
G75*
G02*
X-71490000Y-139160000I-140000J0D01*
G01*
X-71770000Y-139160000D01*
G75*
G02*
X-71910000Y-139020000I0J140000D01*
G01*
G37*
G04 #@! TD*
G04 #@! TO.C,C11*
G36*
G01*
X-73020000Y-133020000D02*
X-73020000Y-132680000D01*
G75*
G02*
X-72880000Y-132540000I140000J0D01*
G01*
X-72600000Y-132540000D01*
G75*
G02*
X-72460000Y-132680000I0J-140000D01*
G01*
X-72460000Y-133020000D01*
G75*
G02*
X-72600000Y-133160000I-140000J0D01*
G01*
X-72880000Y-133160000D01*
G75*
G02*
X-73020000Y-133020000I0J140000D01*
G01*
G37*
G36*
G01*
X-73980000Y-133020000D02*
X-73980000Y-132680000D01*
G75*
G02*
X-73840000Y-132540000I140000J0D01*
G01*
X-73560000Y-132540000D01*
G75*
G02*
X-73420000Y-132680000I0J-140000D01*
G01*
X-73420000Y-133020000D01*
G75*
G02*
X-73560000Y-133160000I-140000J0D01*
G01*
X-73840000Y-133160000D01*
G75*
G02*
X-73980000Y-133020000I0J140000D01*
G01*
G37*
G04 #@! TD*
G04 #@! TO.C,C26*
G36*
G01*
X-82260000Y-150080000D02*
X-81920000Y-150080000D01*
G75*
G02*
X-81780000Y-150220000I0J-140000D01*
G01*
X-81780000Y-150500000D01*
G75*
G02*
X-81920000Y-150640000I-140000J0D01*
G01*
X-82260000Y-150640000D01*
G75*
G02*
X-82400000Y-150500000I0J140000D01*
G01*
X-82400000Y-150220000D01*
G75*
G02*
X-82260000Y-150080000I140000J0D01*
G01*
G37*
G36*
G01*
X-82260000Y-149120000D02*
X-81920000Y-149120000D01*
G75*
G02*
X-81780000Y-149260000I0J-140000D01*
G01*
X-81780000Y-149540000D01*
G75*
G02*
X-81920000Y-149680000I-140000J0D01*
G01*
X-82260000Y-149680000D01*
G75*
G02*
X-82400000Y-149540000I0J140000D01*
G01*
X-82400000Y-149260000D01*
G75*
G02*
X-82260000Y-149120000I140000J0D01*
G01*
G37*
G04 #@! TD*
M02*
