M48
; DRILL file {KiCad (5.1.12)-1} date 11/16/24 18:41:14
; FORMAT={-:-/ absolute / metric / decimal}
; #@! TF.CreationDate,2024-11-16T18:41:14+01:00
; #@! TF.GenerationSoftware,Kicad,Pcbnew,(5.1.12)-1
; #@! TF.FileFunction,Plated,1,4,PTH
FMAT,2
METRIC
T1C0.300
T2C0.400
T3C0.600
T4C1.000
T5C1.520
%
G90
G05
T1
X-85.22Y-98.04
X-85.21Y-152.64
X-85.2Y-143.28
X-85.18Y-94.52
X-85.15Y-104.12
X-85.13Y-108.9
X-85.11Y-105.92
X-85.06Y-111.85
X-85.03Y-138.8
X-84.95Y-141.18
X-84.81Y-128.13
X-84.79Y-148.98
X-84.78Y-146.85
X-84.63Y-135.48
X-84.57Y-132.7
X-84.26Y-130.2
X-84.13Y-115.4
X-84.13Y-118.02
X-83.68Y-121.75
X-83.54Y-152.65
X-83.51Y-147.26
X-83.42Y-127.7
X-83.24Y-148.74
X-83.12Y-133.04
X-83.02Y-105.99
X-82.96Y-129.33
X-82.93Y-108.24
X-82.91Y-94.45
X-82.86Y-99.27
X-82.86Y-111.88
X-82.65Y-134.7
X-82.51Y-123.55
X-82.43Y-146.33
X-82.29Y-153.02
X-82.25Y-130.69
X-82.1Y-125.35
X-81.66Y-139.24
X-81.63Y-142.3
X-81.45Y-148.25
X-81.32Y-126.12
X-81.31Y-150.36
X-81.06Y-112.01
X-81.04Y-144.52
X-80.83Y-124.43
X-80.14Y-111.36
X-80.07Y-102.44
X-80.05Y-118.11
X-79.82Y-109.26
X-79.72Y-116.4
X-79.38Y-119.81
X-79.31Y-117.38
X-79.28Y-114.22
X-79.12Y-154.05
X-79.07Y-108.54
X-78.98Y-146.32
X-78.5Y-133.17
X-78.47Y-144.57
X-78.46Y-139.21
X-78.44Y-113.99
X-78.37Y-94.33
X-78.26Y-116.62
X-78.01Y-109.5
X-78.01Y-112.07
X-77.92Y-118.55
X-77.76Y-132.13
X-77.72Y-125.92
X-77.525Y-116.115
X-77.25Y-98.14
X-77.24Y-121.98
X-77.01Y-133.84
X-76.92Y-120.26
X-76.89Y-137.88
X-76.81Y-123.76
X-76.65Y-112.95
X-76.62Y-154.28
X-76.61Y-132.06
X-76.47Y-115.41
X-76.32Y-139.62
X-75.73Y-141.75
X-75.72Y-146.3
X-75.65Y-102.56
X-75.59Y-143.45
X-74.66Y-104.75
X-74.64Y-121.93
X-74.61Y-135.37
X-74.61Y-137.26
X-74.34Y-120.34
X-74.28Y-115.21
X-74.18Y-109.08
X-74.01Y-139.62
X-73.84Y-146.13
X-73.79Y-108.3
X-73.765Y-117.205
X-73.56Y-103.58
X-73.36Y-127.47
X-73.32Y-112.5
X-73.3Y-110.7
X-73.28Y-153.67
X-73.05Y-120.95
X-72.97Y-106.82
X-72.91Y-116.93
X-72.5Y-139.25
X-72.36Y-125.55
X-72.17Y-96.96
X-72.11Y-133.43
X-72.03Y-113.39
X-72.0Y-106.29
X-71.91Y-94.36
X-71.73Y-104.34
X-71.68Y-137.76
X-71.53Y-112.54
X-71.49Y-114.88
X-71.38Y-154.2
X-71.27Y-116.88
X-70.83Y-109.89
X-70.78Y-124.69
X-70.71Y-103.4
X-70.67Y-139.78
X-70.59Y-128.52
X-70.51Y-116.18
X-70.51Y-126.58
X-70.49Y-135.41
X-70.42Y-122.71
X-70.41Y-111.73
X-70.41Y-131.28
X-70.33Y-147.3
X-70.23Y-114.65
X-70.07Y-98.99
X-70.01Y-143.7
X-69.97Y-145.78
X-69.81Y-94.59
X-69.62Y-136.79
X-69.61Y-137.83
X-69.57Y-121.19
X-69.57Y-130.85
X-69.5Y-152.61
X-69.47Y-96.11
X-69.27Y-115.88
X-68.89Y-105.55
X-68.89Y-108.07
X-68.79Y-101.46
X-68.62Y-110.7
X-68.43Y-115.02
X-67.91Y-154.2
X-67.87Y-118.84
X-67.84Y-129.77
X-67.59Y-132.02
X-67.58Y-105.42
X-67.2Y-100.22
X-67.16Y-116.24
X-67.01Y-118.8
X-66.76Y-109.49
X-66.58Y-107.54
X-66.54Y-94.71
X-66.27Y-108.65
X-66.12Y-106.71
X-65.92Y-98.74
X-65.92Y-137.98
X-65.89Y-130.35
X-65.86Y-141.34
X-65.8Y-135.91
X-65.58Y-133.87
X-65.52Y-143.21
X-65.5Y-117.48
X-65.48Y-145.44
X-65.43Y-132.2
X-65.28Y-128.9
X-65.26Y-127.24
X-65.2Y-116.09
X-65.2Y-119.24
X-64.13Y-97.23
X-64.1Y-99.9
X-64.03Y-142.48
X-64.03Y-144.35
X-63.97Y-148.35
X-63.9Y-145.74
X-63.88Y-118.03
X-63.86Y-141.11
X-63.79Y-138.25
X-63.69Y-109.28
X-63.66Y-107.31
X-63.65Y-106.28
X-63.63Y-108.28
X-63.61Y-116.23
X-63.12Y-130.17
X-62.99Y-133.47
X-62.89Y-98.18
X-62.85Y-112.93
X-62.51Y-95.7
X-62.51Y-116.26
X-62.47Y-131.19
X-61.78Y-97.4
X-61.39Y-90.82
X-61.38Y-94.17
X-61.19Y-110.61
X-61.18Y-108.21
X-61.17Y-116.05
X-61.15Y-99.78
X-60.92Y-132.79
X-60.53Y-114.75
X-60.45Y-108.7
X-60.33Y-113.09
X-60.26Y-111.41
X-60.21Y-130.57
X-59.93Y-108.13
X-59.67Y-133.75
X-59.41Y-107.15
X-58.97Y-115.27
X-58.89Y-111.92
X-58.77Y-90.97
X-58.58Y-110.12
X-58.57Y-109.1
X-58.54Y-119.31
X-58.31Y-107.53
X-58.14Y-98.86
X-57.8Y-96.87
X-57.63Y-111.87
X-57.62Y-114.32
X-57.05Y-107.67
X-56.45Y-120.05
X-56.39Y-91.0
X-56.22Y-111.82
X-56.05Y-96.94
X-55.76Y-95.64
X-55.71Y-110.5
X-55.66Y-114.8
X-55.59Y-112.92
X-54.85Y-109.67
X-54.45Y-97.3
X-54.14Y-110.68
X-53.72Y-98.57
X-53.52Y-100.38
X-53.5Y-101.83
X-53.27Y-91.17
X-53.26Y-109.92
X-53.23Y-111.65
X-52.88Y-108.11
X-52.15Y-113.36
X-52.05Y-102.84
X-51.89Y-105.49
X-51.22Y-99.6
X-51.21Y-108.2
X-50.99Y-117.59
X-50.5Y-122.08
X-49.48Y-108.22
X-49.46Y-111.66
X-49.16Y-106.08
X-49.15Y-91.1
X-48.89Y-107.17
X-48.57Y-119.32
X-48.28Y-94.66
X-48.17Y-92.7
X-47.27Y-93.78
X-46.78Y-121.93
X-46.41Y-113.18
X-45.97Y-107.02
X-45.89Y-103.81
X-45.83Y-90.99
X-45.83Y-94.6
X-45.78Y-118.11
X-45.69Y-101.18
X-45.69Y-115.13
X-45.67Y-96.58
X-45.67Y-99.03
X-44.3Y-113.5
X-44.2Y-115.2
X-43.49Y-112.33
X-43.34Y-108.95
X-43.21Y-120.76
X-43.18Y-121.97
X-42.29Y-115.28
X-41.8Y-120.01
X-40.83Y-109.09
X-38.91Y-121.9
X-37.58Y-109.11
X-36.35Y-116.41
X-35.95Y-112.66
X-34.82Y-114.57
X-34.73Y-117.37
X-34.66Y-121.73
X-34.61Y-109.09
T2
X-81.12Y-137.35
X-73.148Y-133.758
X-71.63Y-139.88
T4
X-83.45Y-92.11
X-80.91Y-92.11
X-79.71Y-148.62
X-79.71Y-151.16
X-78.37Y-92.11
X-77.17Y-148.62
X-77.17Y-151.16
X-75.83Y-92.11
X-74.63Y-148.62
X-74.63Y-151.16
X-73.29Y-92.11
X-72.09Y-148.62
X-72.09Y-151.16
X-70.75Y-92.11
X-68.21Y-92.11
X-62.52Y-120.65
X-62.52Y-123.19
X-62.52Y-125.73
X-62.52Y-128.27
X-59.98Y-120.65
X-59.98Y-123.19
X-59.98Y-125.73
X-59.98Y-128.27
T5
X-57.85Y-94.35
X-52.77Y-94.35
T3
X-39.52Y-110.98G85X-38.42Y-110.98
G05
X-39.52Y-119.62G85X-38.42Y-119.62
G05
X-35.19Y-110.98G85X-34.39Y-110.98
G05
X-35.19Y-119.62G85X-34.39Y-119.62
G05
T0
M30
