G04 #@! TF.GenerationSoftware,KiCad,Pcbnew,(5.1.12)-1*
G04 #@! TF.CreationDate,2024-11-16T18:41:12+01:00*
G04 #@! TF.ProjectId,C7W1B1V1.0,43375731-4231-4563-912e-302e6b696361,rev?*
G04 #@! TF.SameCoordinates,Original*
G04 #@! TF.FileFunction,Legend,Bot*
G04 #@! TF.FilePolarity,Positive*
%FSLAX46Y46*%
G04 Gerber Fmt 4.6, Leading zero omitted, Abs format (unit mm)*
G04 Created by KiCad (PCBNEW (5.1.12)-1) date 2024-11-16 18:41:12*
%MOMM*%
%LPD*%
G01*
G04 APERTURE LIST*
%ADD10O,1.700000X1.700000*%
%ADD11R,1.700000X1.700000*%
%ADD12C,2.700000*%
%ADD13C,0.650000*%
%ADD14O,2.304000X1.204000*%
%ADD15C,3.000000*%
%ADD16R,3.000000X3.000000*%
G04 APERTURE END LIST*
%LPC*%
D10*
G04 #@! TO.C,J1*
X-62520000Y-120650000D03*
X-59980000Y-120650000D03*
X-62520000Y-123190000D03*
X-59980000Y-123190000D03*
X-62520000Y-125730000D03*
X-59980000Y-125730000D03*
X-62520000Y-128270000D03*
D11*
X-59980000Y-128270000D03*
G04 #@! TD*
D12*
G04 #@! TO.C,H2*
X-77980000Y-104870000D03*
G04 #@! TD*
G04 #@! TO.C,H1*
X-65730000Y-151940000D03*
G04 #@! TD*
D10*
G04 #@! TO.C,J5*
X-68210000Y-92110000D03*
X-70750000Y-92110000D03*
X-73290000Y-92110000D03*
X-75830000Y-92110000D03*
X-78370000Y-92110000D03*
X-80910000Y-92110000D03*
D11*
X-83450000Y-92110000D03*
G04 #@! TD*
D13*
G04 #@! TO.C,J2*
X-38470000Y-118190000D03*
X-38470000Y-112410000D03*
D14*
X-38970000Y-110980000D03*
X-38970000Y-119620000D03*
G36*
G01*
X-34089000Y-111582000D02*
X-35491000Y-111582000D01*
G75*
G02*
X-35792000Y-111281000I0J301000D01*
G01*
X-35792000Y-110679000D01*
G75*
G02*
X-35491000Y-110378000I301000J0D01*
G01*
X-34089000Y-110378000D01*
G75*
G02*
X-33788000Y-110679000I0J-301000D01*
G01*
X-33788000Y-111281000D01*
G75*
G02*
X-34089000Y-111582000I-301000J0D01*
G01*
G37*
G36*
G01*
X-34089000Y-120222000D02*
X-35491000Y-120222000D01*
G75*
G02*
X-35792000Y-119921000I0J301000D01*
G01*
X-35792000Y-119319000D01*
G75*
G02*
X-35491000Y-119018000I301000J0D01*
G01*
X-34089000Y-119018000D01*
G75*
G02*
X-33788000Y-119319000I0J-301000D01*
G01*
X-33788000Y-119921000D01*
G75*
G02*
X-34089000Y-120222000I-301000J0D01*
G01*
G37*
G04 #@! TD*
D15*
G04 #@! TO.C,J3*
X-57850000Y-94350000D03*
D16*
X-52770000Y-94350000D03*
G04 #@! TD*
D10*
G04 #@! TO.C,J4*
X-72090000Y-148620000D03*
X-72090000Y-151160000D03*
X-74630000Y-148620000D03*
X-74630000Y-151160000D03*
X-77170000Y-148620000D03*
X-77170000Y-151160000D03*
X-79710000Y-148620000D03*
D11*
X-79710000Y-151160000D03*
G04 #@! TD*
M02*
